<?xml version="1.0" encoding="UTF-8" standalone="no"?>
<!-- Created with Inkscape (http://www.inkscape.org/) -->

<svg
   width="87mm"
   height="124mm"
   viewBox="0 0 87 124"
   version="1.1"
   id="svg5"
   inkscape:version="1.1.2 (b8e25be833, 2022-02-05)"
   sodipodi:docname="decoracion_silla.svg"
   xmlns:inkscape="http://www.inkscape.org/namespaces/inkscape"
   xmlns:sodipodi="http://sodipodi.sourceforge.net/DTD/sodipodi-0.dtd"
   xmlns="http://www.w3.org/2000/svg"
   xmlns:svg="http://www.w3.org/2000/svg">
  <sodipodi:namedview
     id="namedview7"
     pagecolor="#505050"
     bordercolor="#eeeeee"
     borderopacity="1"
     inkscape:pageshadow="0"
     inkscape:pageopacity="0"
     inkscape:pagecheckerboard="0"
     inkscape:document-units="mm"
     showgrid="false"
     inkscape:zoom="0.41008324"
     inkscape:cx="-28.043087"
     inkscape:cy="-48.770586"
     inkscape:window-width="1600"
     inkscape:window-height="837"
     inkscape:window-x="-8"
     inkscape:window-y="-8"
     inkscape:window-maximized="1"
     inkscape:current-layer="layer1" />
  <defs
     id="defs2">
    <clipPath
       clipPathUnits="userSpaceOnUse"
       id="clipPath3286-1">
      <path
         d="M 0,7942.213 H 1920 V 0 H 0 Z"
         id="path3284-9" />
    </clipPath>
    <clipPath
       clipPathUnits="userSpaceOnUse"
       id="clipPath3298-9">
      <path
         d="m 1347.16,921.597 h 583.66 v -463.33 h -583.66 z"
         id="path3296-2" />
    </clipPath>
    <clipPath
       clipPathUnits="userSpaceOnUse"
       id="clipPath3314-2">
      <path
         d="m 1247.16,921.597 h 683.66 v -463.33 h -683.66 z"
         id="path3312-4" />
    </clipPath>
    <clipPath
       clipPathUnits="userSpaceOnUse"
       id="clipPath3330-4">
      <path
         d="M 945.373,921.597 H 1219.7 V 458.267 H 945.373 Z"
         id="path3328-9" />
    </clipPath>
    <clipPath
       clipPathUnits="userSpaceOnUse"
       id="clipPath3286">
      <path
         d="M 0,7942.213 H 1920 V 0 H 0 Z"
         id="path3284" />
    </clipPath>
    <clipPath
       clipPathUnits="userSpaceOnUse"
       id="clipPath3298">
      <path
         d="m 1347.16,921.597 h 583.66 v -463.33 h -583.66 z"
         id="path3296" />
    </clipPath>
    <clipPath
       clipPathUnits="userSpaceOnUse"
       id="clipPath3314">
      <path
         d="m 1247.16,921.597 h 683.66 v -463.33 h -683.66 z"
         id="path3312" />
    </clipPath>
    <clipPath
       clipPathUnits="userSpaceOnUse"
       id="clipPath3330">
      <path
         d="M 945.373,921.597 H 1219.7 V 458.267 H 945.373 Z"
         id="path3328" />
    </clipPath>
    <clipPath
       clipPathUnits="userSpaceOnUse"
       id="clipPath838">
      <path
         d="M 835.957,933 H 681.412 L 932.191,688.17 Z"
         id="path836" />
    </clipPath>
    <mask
       maskUnits="userSpaceOnUse"
       x="0"
       y="0"
       width="1"
       height="1"
       id="mask854">
      <g
         id="g864">
        <g
           id="g862">
          <g
             id="g860">
            <g
               id="g858">
              <path
                 d="M -32768,32767 H 32767 V -32768 H -32768 Z"
                 style="fill:url(#radialGradient852);stroke:none"
                 id="path856" />
            </g>
          </g>
        </g>
      </g>
    </mask>
    <radialGradient
       fx="0"
       fy="0"
       cx="0"
       cy="0"
       r="1"
       gradientUnits="userSpaceOnUse"
       gradientTransform="matrix(1084.5957,0,0,-417.11316,944.82977,696.96643)"
       spreadMethod="pad"
       id="radialGradient852">
      <stop
         style="stop-opacity:1;stop-color:#ffffff"
         offset="0"
         id="stop848" />
      <stop
         style="stop-opacity:0;stop-color:#ffffff"
         offset="1"
         id="stop850" />
    </radialGradient>
    <radialGradient
       fx="0"
       fy="0"
       cx="0"
       cy="0"
       r="1"
       gradientUnits="userSpaceOnUse"
       gradientTransform="matrix(1084.5957,0,0,-417.11316,944.82977,696.96643)"
       spreadMethod="pad"
       id="radialGradient874">
      <stop
         style="stop-opacity:1;stop-color:#49aeda"
         offset="0"
         id="stop870" />
      <stop
         style="stop-opacity:1;stop-color:#ffffff"
         offset="1"
         id="stop872" />
    </radialGradient>
    <clipPath
       clipPathUnits="userSpaceOnUse"
       id="clipPath884">
      <path
         d="M 1181.728,933 H 1027.326 L 932.191,688.17 Z"
         id="path882" />
    </clipPath>
    <mask
       maskUnits="userSpaceOnUse"
       x="0"
       y="0"
       width="1"
       height="1"
       id="mask900">
      <g
         id="g910">
        <g
           id="g908">
          <g
             id="g906">
            <g
               id="g904">
              <path
                 d="M -32768,32767 H 32767 V -32768 H -32768 Z"
                 style="fill:url(#radialGradient898);stroke:none"
                 id="path902" />
            </g>
          </g>
        </g>
      </g>
    </mask>
    <radialGradient
       fx="0"
       fy="0"
       cx="0"
       cy="0"
       r="1"
       gradientUnits="userSpaceOnUse"
       gradientTransform="matrix(1084.5957,0,0,-417.11316,944.82977,696.96643)"
       spreadMethod="pad"
       id="radialGradient898">
      <stop
         style="stop-opacity:1;stop-color:#ffffff"
         offset="0"
         id="stop894" />
      <stop
         style="stop-opacity:0;stop-color:#ffffff"
         offset="1"
         id="stop896" />
    </radialGradient>
    <radialGradient
       fx="0"
       fy="0"
       cx="0"
       cy="0"
       r="1"
       gradientUnits="userSpaceOnUse"
       gradientTransform="matrix(1084.5957,0,0,-417.11316,944.82977,696.96643)"
       spreadMethod="pad"
       id="radialGradient920">
      <stop
         style="stop-opacity:1;stop-color:#49aeda"
         offset="0"
         id="stop916" />
      <stop
         style="stop-opacity:1;stop-color:#ffffff"
         offset="1"
         id="stop918" />
    </radialGradient>
    <clipPath
       clipPathUnits="userSpaceOnUse"
       id="clipPath930">
      <path
         d="M 424.059,933 H 131.832 L 932.191,688.17 Z"
         id="path928" />
    </clipPath>
    <mask
       maskUnits="userSpaceOnUse"
       x="0"
       y="0"
       width="1"
       height="1"
       id="mask946">
      <g
         id="g956">
        <g
           id="g954">
          <g
             id="g952">
            <g
               id="g950">
              <path
                 d="M -32768,32767 H 32767 V -32768 H -32768 Z"
                 style="fill:url(#radialGradient944);stroke:none"
                 id="path948" />
            </g>
          </g>
        </g>
      </g>
    </mask>
    <radialGradient
       fx="0"
       fy="0"
       cx="0"
       cy="0"
       r="1"
       gradientUnits="userSpaceOnUse"
       gradientTransform="matrix(1084.5957,0,0,-417.11316,944.82977,696.96643)"
       spreadMethod="pad"
       id="radialGradient944">
      <stop
         style="stop-opacity:1;stop-color:#ffffff"
         offset="0"
         id="stop940" />
      <stop
         style="stop-opacity:0;stop-color:#ffffff"
         offset="1"
         id="stop942" />
    </radialGradient>
    <radialGradient
       fx="0"
       fy="0"
       cx="0"
       cy="0"
       r="1"
       gradientUnits="userSpaceOnUse"
       gradientTransform="matrix(1084.5957,0,0,-417.11316,944.82977,696.96643)"
       spreadMethod="pad"
       id="radialGradient966">
      <stop
         style="stop-opacity:1;stop-color:#49aeda"
         offset="0"
         id="stop962" />
      <stop
         style="stop-opacity:1;stop-color:#ffffff"
         offset="1"
         id="stop964" />
    </radialGradient>
    <clipPath
       clipPathUnits="userSpaceOnUse"
       id="clipPath976">
      <path
         d="M 1729.778,933 H 1438.563 L 932.191,688.17 Z"
         id="path974" />
    </clipPath>
    <mask
       maskUnits="userSpaceOnUse"
       x="0"
       y="0"
       width="1"
       height="1"
       id="mask992">
      <g
         id="g1002">
        <g
           id="g1000">
          <g
             id="g998">
            <g
               id="g996">
              <path
                 d="M -32768,32767 H 32767 V -32768 H -32768 Z"
                 style="fill:url(#radialGradient990);stroke:none"
                 id="path994" />
            </g>
          </g>
        </g>
      </g>
    </mask>
    <radialGradient
       fx="0"
       fy="0"
       cx="0"
       cy="0"
       r="1"
       gradientUnits="userSpaceOnUse"
       gradientTransform="matrix(1084.5957,0,0,-417.11316,944.82977,696.96643)"
       spreadMethod="pad"
       id="radialGradient990">
      <stop
         style="stop-opacity:1;stop-color:#ffffff"
         offset="0"
         id="stop986" />
      <stop
         style="stop-opacity:0;stop-color:#ffffff"
         offset="1"
         id="stop988" />
    </radialGradient>
    <radialGradient
       fx="0"
       fy="0"
       cx="0"
       cy="0"
       r="1"
       gradientUnits="userSpaceOnUse"
       gradientTransform="matrix(1084.5957,0,0,-417.11316,944.82977,696.96643)"
       spreadMethod="pad"
       id="radialGradient1012">
      <stop
         style="stop-opacity:1;stop-color:#49aeda"
         offset="0"
         id="stop1008" />
      <stop
         style="stop-opacity:1;stop-color:#ffffff"
         offset="1"
         id="stop1010" />
    </radialGradient>
    <clipPath
       clipPathUnits="userSpaceOnUse"
       id="clipPath1022">
      <path
         d="M 932.191,688.17 1920,745.597 v 92.222 z"
         id="path1020" />
    </clipPath>
    <mask
       maskUnits="userSpaceOnUse"
       x="0"
       y="0"
       width="1"
       height="1"
       id="mask1038">
      <g
         id="g1048">
        <g
           id="g1046">
          <g
             id="g1044">
            <g
               id="g1042">
              <path
                 d="M -32768,32767 H 32767 V -32768 H -32768 Z"
                 style="fill:url(#radialGradient1036);stroke:none"
                 id="path1040" />
            </g>
          </g>
        </g>
      </g>
    </mask>
    <radialGradient
       fx="0"
       fy="0"
       cx="0"
       cy="0"
       r="1"
       gradientUnits="userSpaceOnUse"
       gradientTransform="matrix(1084.5957,0,0,-417.11316,944.82977,696.96643)"
       spreadMethod="pad"
       id="radialGradient1036">
      <stop
         style="stop-opacity:1;stop-color:#ffffff"
         offset="0"
         id="stop1032" />
      <stop
         style="stop-opacity:0;stop-color:#ffffff"
         offset="1"
         id="stop1034" />
    </radialGradient>
    <radialGradient
       fx="0"
       fy="0"
       cx="0"
       cy="0"
       r="1"
       gradientUnits="userSpaceOnUse"
       gradientTransform="matrix(1084.5957,0,0,-417.11316,944.82977,696.96643)"
       spreadMethod="pad"
       id="radialGradient1058">
      <stop
         style="stop-opacity:1;stop-color:#49aeda"
         offset="0"
         id="stop1054" />
      <stop
         style="stop-opacity:1;stop-color:#ffffff"
         offset="1"
         id="stop1056" />
    </radialGradient>
    <clipPath
       clipPathUnits="userSpaceOnUse"
       id="clipPath1068">
      <path
         d="m 1028.428,443.341 h 154.546 L 932.191,688.17 Z"
         id="path1066" />
    </clipPath>
    <mask
       maskUnits="userSpaceOnUse"
       x="0"
       y="0"
       width="1"
       height="1"
       id="mask1084">
      <g
         id="g1094">
        <g
           id="g1092">
          <g
             id="g1090">
            <g
               id="g1088">
              <path
                 d="M -32768,32767 H 32767 V -32768 H -32768 Z"
                 style="fill:url(#radialGradient1082);stroke:none"
                 id="path1086" />
            </g>
          </g>
        </g>
      </g>
    </mask>
    <radialGradient
       fx="0"
       fy="0"
       cx="0"
       cy="0"
       r="1"
       gradientUnits="userSpaceOnUse"
       gradientTransform="matrix(1084.5957,0,0,-417.11316,944.82977,696.96643)"
       spreadMethod="pad"
       id="radialGradient1082">
      <stop
         style="stop-opacity:1;stop-color:#ffffff"
         offset="0"
         id="stop1078" />
      <stop
         style="stop-opacity:0;stop-color:#ffffff"
         offset="1"
         id="stop1080" />
    </radialGradient>
    <radialGradient
       fx="0"
       fy="0"
       cx="0"
       cy="0"
       r="1"
       gradientUnits="userSpaceOnUse"
       gradientTransform="matrix(1084.5957,0,0,-417.11316,944.82977,696.96643)"
       spreadMethod="pad"
       id="radialGradient1104">
      <stop
         style="stop-opacity:1;stop-color:#49aeda"
         offset="0"
         id="stop1100" />
      <stop
         style="stop-opacity:1;stop-color:#ffffff"
         offset="1"
         id="stop1102" />
    </radialGradient>
    <clipPath
       clipPathUnits="userSpaceOnUse"
       id="clipPath1114">
      <path
         d="m 1440.326,443.341 h 292.228 L 932.191,688.17 Z"
         id="path1112" />
    </clipPath>
    <mask
       maskUnits="userSpaceOnUse"
       x="0"
       y="0"
       width="1"
       height="1"
       id="mask1130">
      <g
         id="g1140">
        <g
           id="g1138">
          <g
             id="g1136">
            <g
               id="g1134">
              <path
                 d="M -32768,32767 H 32767 V -32768 H -32768 Z"
                 style="fill:url(#radialGradient1128);stroke:none"
                 id="path1132" />
            </g>
          </g>
        </g>
      </g>
    </mask>
    <radialGradient
       fx="0"
       fy="0"
       cx="0"
       cy="0"
       r="1"
       gradientUnits="userSpaceOnUse"
       gradientTransform="matrix(1084.5957,0,0,-417.11316,944.82977,696.96643)"
       spreadMethod="pad"
       id="radialGradient1128">
      <stop
         style="stop-opacity:1;stop-color:#ffffff"
         offset="0"
         id="stop1124" />
      <stop
         style="stop-opacity:0;stop-color:#ffffff"
         offset="1"
         id="stop1126" />
    </radialGradient>
    <radialGradient
       fx="0"
       fy="0"
       cx="0"
       cy="0"
       r="1"
       gradientUnits="userSpaceOnUse"
       gradientTransform="matrix(1084.5957,0,0,-417.11316,944.82977,696.96643)"
       spreadMethod="pad"
       id="radialGradient1150">
      <stop
         style="stop-opacity:1;stop-color:#49aeda"
         offset="0"
         id="stop1146" />
      <stop
         style="stop-opacity:1;stop-color:#ffffff"
         offset="1"
         id="stop1148" />
    </radialGradient>
    <clipPath
       clipPathUnits="userSpaceOnUse"
       id="clipPath1160">
      <path
         d="m 1920,539.264 v 92.138 L 932.191,688.17 Z"
         id="path1158" />
    </clipPath>
    <mask
       maskUnits="userSpaceOnUse"
       x="0"
       y="0"
       width="1"
       height="1"
       id="mask1176">
      <g
         id="g1186">
        <g
           id="g1184">
          <g
             id="g1182">
            <g
               id="g1180">
              <path
                 d="M -32768,32767 H 32767 V -32768 H -32768 Z"
                 style="fill:url(#radialGradient1174);stroke:none"
                 id="path1178" />
            </g>
          </g>
        </g>
      </g>
    </mask>
    <radialGradient
       fx="0"
       fy="0"
       cx="0"
       cy="0"
       r="1"
       gradientUnits="userSpaceOnUse"
       gradientTransform="matrix(1084.5957,0,0,-417.11316,944.82977,696.96643)"
       spreadMethod="pad"
       id="radialGradient1174">
      <stop
         style="stop-opacity:1;stop-color:#ffffff"
         offset="0"
         id="stop1170" />
      <stop
         style="stop-opacity:0;stop-color:#ffffff"
         offset="1"
         id="stop1172" />
    </radialGradient>
    <radialGradient
       fx="0"
       fy="0"
       cx="0"
       cy="0"
       r="1"
       gradientUnits="userSpaceOnUse"
       gradientTransform="matrix(1084.5957,0,0,-417.11316,944.82977,696.96643)"
       spreadMethod="pad"
       id="radialGradient1196">
      <stop
         style="stop-opacity:1;stop-color:#49aeda"
         offset="0"
         id="stop1192" />
      <stop
         style="stop-opacity:1;stop-color:#ffffff"
         offset="1"
         id="stop1194" />
    </radialGradient>
    <clipPath
       clipPathUnits="userSpaceOnUse"
       id="clipPath1206">
      <path
         d="M 0,741.743 932.191,688.17 0,828.695 Z"
         id="path1204" />
    </clipPath>
    <mask
       maskUnits="userSpaceOnUse"
       x="0"
       y="0"
       width="1"
       height="1"
       id="mask1222">
      <g
         id="g1232">
        <g
           id="g1230">
          <g
             id="g1228">
            <g
               id="g1226">
              <path
                 d="M -32768,32767 H 32767 V -32768 H -32768 Z"
                 style="fill:url(#radialGradient1220);stroke:none"
                 id="path1224" />
            </g>
          </g>
        </g>
      </g>
    </mask>
    <radialGradient
       fx="0"
       fy="0"
       cx="0"
       cy="0"
       r="1"
       gradientUnits="userSpaceOnUse"
       gradientTransform="matrix(1084.5957,0,0,-417.11316,944.82977,696.96643)"
       spreadMethod="pad"
       id="radialGradient1220">
      <stop
         style="stop-opacity:1;stop-color:#ffffff"
         offset="0"
         id="stop1216" />
      <stop
         style="stop-opacity:0;stop-color:#ffffff"
         offset="1"
         id="stop1218" />
    </radialGradient>
    <radialGradient
       fx="0"
       fy="0"
       cx="0"
       cy="0"
       r="1"
       gradientUnits="userSpaceOnUse"
       gradientTransform="matrix(1084.5957,0,0,-417.11316,944.82977,696.96643)"
       spreadMethod="pad"
       id="radialGradient1242">
      <stop
         style="stop-opacity:1;stop-color:#49aeda"
         offset="0"
         id="stop1238" />
      <stop
         style="stop-opacity:1;stop-color:#ffffff"
         offset="1"
         id="stop1240" />
    </radialGradient>
    <clipPath
       clipPathUnits="userSpaceOnUse"
       id="clipPath1252">
      <path
         d="M 0,633.978 V 546.946 L 932.191,688.17 Z"
         id="path1250" />
    </clipPath>
    <mask
       maskUnits="userSpaceOnUse"
       x="0"
       y="0"
       width="1"
       height="1"
       id="mask1268">
      <g
         id="g1278">
        <g
           id="g1276">
          <g
             id="g1274">
            <g
               id="g1272">
              <path
                 d="M -32768,32767 H 32767 V -32768 H -32768 Z"
                 style="fill:url(#radialGradient1266);stroke:none"
                 id="path1270" />
            </g>
          </g>
        </g>
      </g>
    </mask>
    <radialGradient
       fx="0"
       fy="0"
       cx="0"
       cy="0"
       r="1"
       gradientUnits="userSpaceOnUse"
       gradientTransform="matrix(1084.5957,0,0,-417.11316,944.82977,696.96643)"
       spreadMethod="pad"
       id="radialGradient1266">
      <stop
         style="stop-opacity:1;stop-color:#ffffff"
         offset="0"
         id="stop1262" />
      <stop
         style="stop-opacity:0;stop-color:#ffffff"
         offset="1"
         id="stop1264" />
    </radialGradient>
    <radialGradient
       fx="0"
       fy="0"
       cx="0"
       cy="0"
       r="1"
       gradientUnits="userSpaceOnUse"
       gradientTransform="matrix(1084.5957,0,0,-417.11316,944.82977,696.96643)"
       spreadMethod="pad"
       id="radialGradient1288">
      <stop
         style="stop-opacity:1;stop-color:#49aeda"
         offset="0"
         id="stop1284" />
      <stop
         style="stop-opacity:1;stop-color:#ffffff"
         offset="1"
         id="stop1286" />
    </radialGradient>
    <clipPath
       clipPathUnits="userSpaceOnUse"
       id="clipPath1298">
      <path
         d="M 134.6,443.341 H 425.817 L 932.191,688.17 Z"
         id="path1296" />
    </clipPath>
    <mask
       maskUnits="userSpaceOnUse"
       x="0"
       y="0"
       width="1"
       height="1"
       id="mask1314">
      <g
         id="g1324">
        <g
           id="g1322">
          <g
             id="g1320">
            <g
               id="g1318">
              <path
                 d="M -32768,32767 H 32767 V -32768 H -32768 Z"
                 style="fill:url(#radialGradient1312);stroke:none"
                 id="path1316" />
            </g>
          </g>
        </g>
      </g>
    </mask>
    <radialGradient
       fx="0"
       fy="0"
       cx="0"
       cy="0"
       r="1"
       gradientUnits="userSpaceOnUse"
       gradientTransform="matrix(1084.5957,0,0,-417.11316,944.82977,696.96643)"
       spreadMethod="pad"
       id="radialGradient1312">
      <stop
         style="stop-opacity:1;stop-color:#ffffff"
         offset="0"
         id="stop1308" />
      <stop
         style="stop-opacity:0;stop-color:#ffffff"
         offset="1"
         id="stop1310" />
    </radialGradient>
    <radialGradient
       fx="0"
       fy="0"
       cx="0"
       cy="0"
       r="1"
       gradientUnits="userSpaceOnUse"
       gradientTransform="matrix(1084.5957,0,0,-417.11316,944.82977,696.96643)"
       spreadMethod="pad"
       id="radialGradient1334">
      <stop
         style="stop-opacity:1;stop-color:#49aeda"
         offset="0"
         id="stop1330" />
      <stop
         style="stop-opacity:1;stop-color:#ffffff"
         offset="1"
         id="stop1332" />
    </radialGradient>
    <clipPath
       clipPathUnits="userSpaceOnUse"
       id="clipPath1344">
      <path
         d="M 682.654,443.341 H 837.057 L 932.191,688.17 Z"
         id="path1342" />
    </clipPath>
    <mask
       maskUnits="userSpaceOnUse"
       x="0"
       y="0"
       width="1"
       height="1"
       id="mask1360">
      <g
         id="g1370">
        <g
           id="g1368">
          <g
             id="g1366">
            <g
               id="g1364">
              <path
                 d="M -32768,32767 H 32767 V -32768 H -32768 Z"
                 style="fill:url(#radialGradient1358);stroke:none"
                 id="path1362" />
            </g>
          </g>
        </g>
      </g>
    </mask>
    <radialGradient
       fx="0"
       fy="0"
       cx="0"
       cy="0"
       r="1"
       gradientUnits="userSpaceOnUse"
       gradientTransform="matrix(1084.5957,0,0,-417.11316,944.82977,696.96643)"
       spreadMethod="pad"
       id="radialGradient1358">
      <stop
         style="stop-opacity:1;stop-color:#ffffff"
         offset="0"
         id="stop1354" />
      <stop
         style="stop-opacity:0;stop-color:#ffffff"
         offset="1"
         id="stop1356" />
    </radialGradient>
    <radialGradient
       fx="0"
       fy="0"
       cx="0"
       cy="0"
       r="1"
       gradientUnits="userSpaceOnUse"
       gradientTransform="matrix(1084.5957,0,0,-417.11316,944.82977,696.96643)"
       spreadMethod="pad"
       id="radialGradient1380">
      <stop
         style="stop-opacity:1;stop-color:#49aeda"
         offset="0"
         id="stop1376" />
      <stop
         style="stop-opacity:1;stop-color:#ffffff"
         offset="1"
         id="stop1378" />
    </radialGradient>
    <clipPath
       clipPathUnits="userSpaceOnUse"
       id="clipPath2498">
      <path
         d="M 0,7942.213 H 1920 V 0 H 0 Z"
         id="path2496" />
    </clipPath>
    <clipPath
       clipPathUnits="userSpaceOnUse"
       id="clipPath2648">
      <path
         d="m 871.296,7837.097 42.318,26.412 -8.437,21.989 -33.881,17.425 z"
         id="path2646" />
    </clipPath>
    <clipPath
       clipPathUnits="userSpaceOnUse"
       id="clipPath2688">
      <path
         d="M 0,7942.213 H 1920 V 0 H 0 Z"
         id="path2686" />
    </clipPath>
    <clipPath
       clipPathUnits="userSpaceOnUse"
       id="clipPath2728">
      <path
         d="m 945.281,7889.997 -6.638,-22.956 32.775,-22.541 v 62.23 z"
         id="path2726" />
    </clipPath>
    <clipPath
       clipPathUnits="userSpaceOnUse"
       id="clipPath2828">
      <path
         d="m 959.143,7872.206 c -3.024,3.339 -6.147,6.501 -9.354,9.481 v 0 c 0.186,-4.788 0.157,-9.581 -0.085,-14.367 v 0 c -0.219,-3.966 3.518,-6.248 5.871,-3.311 v 0 c 1.147,1.458 2.276,2.947 3.383,4.466 v 0 c 0.997,-1.635 1.971,-3.3 2.919,-4.992 v 0 c 1.858,-3.389 5.989,-1.701 6.241,2.808 v 0 c 0.274,5.335 0.31,10.679 0.105,16.017 v 0 c -2.927,-3.542 -5.959,-6.912 -9.08,-10.102"
         id="path2826" />
    </clipPath>
    <clipPath
       clipPathUnits="userSpaceOnUse"
       id="clipPath2852">
      <path
         d="m 945.281,7889.997 -6.638,-22.956 32.775,-22.541 v 62.23 z"
         id="path2850" />
    </clipPath>
    <clipPath
       clipPathUnits="userSpaceOnUse"
       id="clipPath2888">
      <path
         d="m 958.935,7883.897 c -2.179,-0.126 -3.733,-3.825 -3.735,-8.262 v 0 c 0.008,-4.439 1.574,-8.134 3.751,-8.257 v 0 c 2.17,-0.125 4.143,3.574 4.137,8.265 v 0 c -0.002,4.609 -1.916,8.257 -4.043,8.258 v 0 c -0.037,0 -0.073,0 -0.11,0"
         id="path2886" />
    </clipPath>
    <clipPath
       clipPathUnits="userSpaceOnUse"
       id="clipPath2912">
      <path
         d="M 0,7942.213 H 1920 V 0 H 0 Z"
         id="path2910" />
    </clipPath>
  </defs>
  <g
     inkscape:label="Capa 1"
     inkscape:groupmode="layer"
     id="layer1">
    <g
       id="g6522"
       transform="matrix(0.35277777,0,0,-0.35277777,-570.25524,3041.1159)"
       style="display:inline">
      <g
         id="g2492"
         transform="translate(750.54892,702.99184)">
        <g
           id="g2494"
           clip-path="url(#clipPath2498)">
          <g
             id="g2500"
             transform="translate(523.8135,7625.8022)" />
          <g
             id="g2504"
             transform="translate(524.4399,4851.709)" />
          <g
             id="g2508"
             transform="translate(974.0352,7910.5845)">
            <path
               d="m 0,0 c -0.852,0.466 -1.789,0.697 -2.726,0.697 -1.065,0 -2.129,-0.301 -3.06,-0.896 l -26.136,-16.733 c -1.16,-0.743 -2.011,-1.881 -2.393,-3.204 l -6.639,-22.957 c -0.678,-2.348 0.223,-4.868 2.237,-6.254 l 32.775,-22.541 c 0.964,-0.664 2.088,-1 3.217,-1 0.905,0 1.812,0.216 2.642,0.653 1.866,0.981 3.035,2.916 3.035,5.024 V -4.98 C 2.952,-2.905 1.819,-0.996 0,0"
               style="fill:#ffffff;fill-opacity:1;fill-rule:nonzero;stroke:none"
               id="path2510" />
          </g>
          <g
             id="g2512"
             transform="translate(871.7412,7831.1968)">
            <path
               d="m 0,0 c -0.947,0 -1.896,0.237 -2.753,0.712 -1.805,1.001 -2.924,2.902 -2.924,4.965 v 65.826 c 0,1.979 1.031,3.815 2.72,4.847 0.905,0.552 1.93,0.83 2.957,0.83 0.889,0 1.78,-0.208 2.596,-0.628 L 36.477,59.127 c 1.241,-0.638 2.204,-1.711 2.704,-3.015 l 8.436,-21.988 c 0.974,-2.538 0.012,-5.41 -2.294,-6.849 L 3.006,0.861 C 2.088,0.288 1.044,0 0,0"
               style="fill:#ffffff;fill-opacity:1;fill-rule:nonzero;stroke:none"
               id="path2514" />
          </g>
          <g
             id="g2516"
             transform="translate(1058.3604,7706.311)">
            <path
               d="m 0,0 -79.574,41.705 c -0.455,0.413 -0.982,0.756 -1.565,1.008 l -2.06,0.891 -4.195,2.199 c -0.821,0.43 -1.726,0.648 -2.635,0.648 -0.637,0 -1.276,-0.107 -1.889,-0.324 l -4.338,-1.531 c -1.083,-0.382 -1.998,-1.071 -2.657,-1.953 -0.276,-0.207 -0.537,-0.441 -0.778,-0.702 l -4.465,-4.848 c -0.774,-0.841 -1.267,-1.883 -1.436,-2.986 -0.111,-0.166 -0.214,-0.339 -0.308,-0.518 l -2.679,-5.103 c -0.546,-1.041 -0.738,-2.176 -0.616,-3.266 -0.027,-0.057 -0.053,-0.116 -0.077,-0.175 l -2.059,-4.902 c -0.314,-0.747 -0.457,-1.528 -0.443,-2.295 -0.255,-0.403 -0.461,-0.84 -0.61,-1.303 l -1.765,-5.49 c -0.221,-0.687 -0.304,-1.391 -0.262,-2.079 l -2.658,-5.98 c -0.365,-0.822 -0.52,-1.689 -0.485,-2.538 -0.023,-0.051 -0.046,-0.104 -0.067,-0.156 l -1.242,-3.016 -0.481,25.92 c 1.735,4.366 0.292,8.51 0.101,9.021 -0.081,0.217 -0.175,0.427 -0.28,0.629 l -0.288,15.51 c 1.274,3.812 0.143,7.242 -0.126,7.962 -0.007,0.02 -0.015,0.04 -0.022,0.059 l -0.328,17.635 c 1.399,3.853 0.235,7.375 -0.045,8.119 -0.035,0.091 -0.071,0.182 -0.11,0.271 l -0.323,17.381 c 1.356,3.162 1.035,6.547 0.214,8.735 -0.109,0.289 -0.24,0.566 -0.391,0.83 l -0.123,6.643 c 0.925,1.5 1.187,3.182 0.938,4.599 l -0.011,-0.002 c -0.126,0.684 -0.413,1.595 -1.059,2.477 l -0.341,18.366 v 0.383 l 1.159,1.302 c 0.923,1.04 1.434,2.382 1.434,3.772 v 1.361 c 0,1.167 -0.332,3.413 -2.616,4.988 l 1.051,1.997 c 1.88,0.948 3.12,2.891 3.12,5.069 v 0.729 l 6.323,18.239 c 0.135,0.072 0.268,0.15 0.399,0.233 1.626,1.045 2.61,2.845 2.61,4.778 v 0.778 c 0,2.997 -2.331,5.479 -5.322,5.666 l -2.184,0.136 -0.003,0.022 c -0.014,0.114 -0.031,0.227 -0.051,0.339 -0.519,2.855 -2.99,7.929 -8.735,9.682 -0.239,0.378 -0.524,0.731 -0.85,1.048 v 1.694 c 0,0.332 -0.029,0.657 -0.084,0.974 -0.515,3.764 -3.554,6.431 -7.448,6.431 -0.269,0 -0.512,-0.013 -0.723,-0.031 -3.527,-0.165 -6.298,-2.553 -7.007,-5.997 -0.11,-0.441 -0.168,-0.902 -0.168,-1.377 v -1.549 c -0.981,-0.963 -1.582,-2.254 -1.684,-3.632 -2.226,-2.174 -5.151,-5.365 -6.667,-8.407 -0.387,-0.071 -0.769,-0.183 -1.141,-0.338 -2.122,-0.878 -3.505,-2.948 -3.505,-5.245 v -1.613 l -0.461,-0.37 c -1.772,-1.417 -2.53,-3.753 -1.927,-5.941 0.465,-1.689 1.673,-3.039 3.234,-3.708 l 6.827,-16.873 c 0.644,-1.592 1.957,-2.775 3.538,-3.28 l 0.354,-0.446 c -0.035,-0.038 -0.068,-0.074 -0.099,-0.11 -0.916,-1.037 -1.42,-2.373 -1.42,-3.756 v -2.722 c 0,-1.283 0.434,-2.528 1.232,-3.533 l 0.769,-0.967 -0.181,-18.24 c -0.388,-0.544 -0.629,-1.064 -0.778,-1.472 -0.57,-1.572 -0.467,-3.301 0.258,-4.767 0.12,-0.251 0.267,-0.518 0.45,-0.793 L -142,99.298 c -1.364,-1.976 -1.689,-3.904 -1.678,-5.328 0.017,-2.113 0.773,-3.834 1.574,-5.069 l -0.167,-16.8 c -1.566,-2.794 -1.598,-5.989 -0.087,-8.811 l -0.179,-17.923 c -1.146,-2.442 -1.174,-5.143 -0.076,-7.627 l -0.17,-17.041 c -1.606,-2.902 -1.639,-6.196 -0.091,-9.141 l -0.187,-18.746 c -0.726,-0.743 -1.163,-1.532 -1.426,-2.224 -0.387,-1.015 -0.499,-2.093 -0.35,-3.13 0,0 -2.047,0.05 -2.095,0.05 -0.102,0 -0.203,-0.003 -0.303,-0.008 -0.766,0.4 -1.617,0.622 -2.489,0.644 l -5.103,0.127 c -0.048,0.002 -0.095,0.002 -0.143,0.002 -0.441,0 -0.874,-0.051 -1.292,-0.148 -0.164,0.014 -0.328,0.021 -0.493,0.021 -0.642,0 -1.287,-0.109 -1.909,-0.331 l -5.358,-1.914 c -1.406,-0.502 -2.535,-1.527 -3.178,-2.826 -1.037,-0.455 -1.924,-1.214 -2.534,-2.19 l -3.19,-5.104 c -1.523,-2.437 -0.984,-5.629 1.256,-7.431 l 8.314,-6.692 c -1.336,-2.511 -2.027,-5.194 -2.027,-7.95 0,-0.655 0.04,-1.314 0.119,-1.968 -0.016,-0.295 -0.025,-0.579 -0.025,-0.859 0,-4.696 1.981,-9.09 5.588,-12.772 -0.369,-0.148 -0.73,-0.302 -1.083,-0.462 -6.773,-3.079 -7.97,-7.599 -7.783,-10.849 0.091,-1.583 0.84,-3.055 2.065,-4.061 1.021,-0.838 2.297,-1.289 3.603,-1.289 0.26,0 0.522,0.018 0.782,0.054 l 41.482,5.776 24.111,-19.402 c 0.575,-0.463 1.231,-0.806 1.931,-1.016 0.538,-0.816 1.184,-1.602 1.936,-2.353 1.992,-1.993 4.69,-3.09 7.597,-3.09 2.969,0 5.925,1.145 8.36,3.195 l 6.143,-4.485 c -0.317,-4.294 1.211,-7.2 2.106,-8.83 0.102,-0.419 0.098,-1.375 0.004,-2.193 l -10.621,-7.704 c -0.348,-0.054 -0.602,-0.086 -0.733,-0.102 -4.37,-0.182 -17.557,-1.507 -18.38,-10.758 -0.301,-3.395 1.028,-5.629 2.196,-6.906 1.304,-1.426 3.786,-3.127 8.19,-3.127 1.616,0 2.93,0.229 3.292,0.298 l 35.206,6.474 c 1.332,0.166 9.739,1.235 18.542,2.793 19.839,3.511 22.61,6.016 24.171,8.925 1.024,1.909 1.061,4.105 0.101,6.026 -1.154,2.307 -4.18,6.175 -11.495,6.175 -2.029,0 -3.743,-0.303 -4.561,-0.477 l -15.748,-1.677 -2.36,0.498 c -0.361,1.015 -0.535,2.43 0.248,3.993 3.372,6.746 1.566,13.989 -0.238,17.67 -0.07,0.307 -0.137,0.723 -0.165,1.093 8.002,1.821 14.735,13.269 16.652,16.825 0.172,0.321 0.314,0.658 0.422,1.007 l 5.333,17.132 0.33,0.923 0.446,0.948 c 0.257,0.545 0.419,1.113 0.493,1.685 l 1.219,3.412 1.937,5.025 c 0.171,0.444 0.283,0.899 0.339,1.355 l 1.76,4.932 1.19,2.884 c 0.211,0.511 0.342,1.037 0.399,1.567 l 1.35,3.784 c 0.437,-0.034 0.891,-0.052 1.364,-0.052 h 0.002 c 0.45,0 0.92,0.016 1.399,0.046 7.478,0.489 10.567,6.253 11.227,9.465 0.844,3.492 0.363,7.702 -2.076,10.944 C 3.319,-3.475 2.15,-1.127 0,0"
               style="fill:#ffffff;fill-opacity:1;fill-rule:nonzero;stroke:none"
               id="path2518" />
          </g>
          <g
             id="g2520"
             transform="translate(957.3604,7657.1919)">
            <path
               d="M 0,0 C 0,9.653 -13.121,17.479 -29.305,17.479 -45.49,17.479 -58.61,9.653 -58.61,0 c 0,-9.654 13.12,-17.479 29.305,-17.479 C -13.121,-17.479 0,-9.654 0,0"
               style="fill:#194487;fill-opacity:1;fill-rule:nonzero;stroke:none"
               id="path2522" />
          </g>
          <g
             id="g2524"
             transform="translate(957.2661,7660.0186)">
            <path
               d="M 0,0 C 0,9.654 -13.121,17.479 -29.305,17.479 -45.49,17.479 -58.61,9.654 -58.61,0 c 0,-9.653 13.12,-17.479 29.305,-17.479 C -13.121,-17.479 0,-9.653 0,0"
               style="fill:#0f3572;fill-opacity:1;fill-rule:nonzero;stroke:none"
               id="path2526" />
          </g>
          <g
             id="g2528"
             transform="translate(908.8325,7659.8774)">
            <path
               d="m 0,0 v 6.266 c 0,4.866 8.396,8.81 18.751,8.81 10.357,0 18.752,-3.944 18.752,-8.81 V -0.66 L 37.5,-0.661 c 0,-0.015 0.003,-0.03 0.003,-0.046 0,-4.866 -8.395,-8.81 -18.752,-8.81 C 8.396,-9.517 0,-5.573 0,-0.707 Z"
               style="fill:#194487;fill-opacity:1;fill-rule:nonzero;stroke:none"
               id="path2530" />
          </g>
          <g
             id="g2532"
             transform="translate(945.8643,7666.332)">
            <path
               d="m 0,0 c 0,-4.605 -8.248,-8.339 -18.421,-8.339 -10.175,0 -18.422,3.734 -18.422,8.339 0,4.605 8.247,8.339 18.422,8.339 C -8.248,8.339 0,4.605 0,0"
               style="fill:#0f3572;fill-opacity:1;fill-rule:nonzero;stroke:none"
               id="path2534" />
          </g>
          <g
             id="g2536"
             transform="translate(943.2651,7673.687)">
            <path
               d="m 0,0 c 0,-4.397 -6.349,-7.962 -14.182,-7.962 -7.832,0 -14.181,3.565 -14.181,7.962 0,4.397 6.349,7.962 14.181,7.962 C -6.349,7.962 0,4.397 0,0"
               style="fill:#0f3572;fill-opacity:1;fill-rule:nonzero;stroke:none"
               id="path2538" />
          </g>
          <g
             id="g2540"
             transform="translate(937.7607,7681.1729)">
            <path
               d="m 0,0 c -3.486,1.885 -3.69,8.884 -3.69,8.884 l -2.925,157.643 c 0,0 -3.878,2.958 -8.684,0.454 L -16.875,8.884 c 0,0 -0.274,-12.559 -5.551,-13.313 0,0 -0.377,-8.197 11.495,-8.197 11.873,0 13.758,7.066 13.758,7.066 0,0 0.659,3.675 -2.827,5.56"
               style="fill:#5cb9e4;fill-opacity:1;fill-rule:nonzero;stroke:none"
               id="path2542" />
          </g>
          <g
             id="g2544"
             transform="translate(907.8149,7884.3813)">
            <path
               d="M 0,0 2.592,2.074 V 6.416 L 3.402,5.605 V 3.11 l 7.486,5.509 25.923,-1.62 V 6.221 c 0,0 -1.556,0.713 -2.593,-2.851 l -6.739,-19.442 v -1.685 l -1.361,-0.325 -2.593,-4.925 h -1.037 l -0.518,-2.009 -1.037,-1.555 0.065,-2.139 c 0,0 4.925,0 4.925,-1.102 v -1.36 l -2.592,-2.917 v -2.592 c 0,0 -3.241,1.231 -8.685,0.453 v 1.296 l -2.008,2.528 v 2.722 c 0,0 0.972,1.102 4.212,1.102 v 1.944 l -1.426,0.972 -1.361,1.944 -2.981,3.759 H 9.851 L 1.879,-0.259 Z"
               style="fill:#194487;fill-opacity:1;fill-rule:nonzero;stroke:none"
               id="path2546" />
          </g>
          <g
             id="g2548"
             transform="translate(921.396,7889.0913)">
            <path
               d="m 0,0 2.395,-18.672 h 10.554 l 6.129,18.023 z"
               style="fill:#ffffff;fill-opacity:1;fill-rule:nonzero;stroke:none"
               id="path2550" />
          </g>
          <g
             id="g2552"
             transform="translate(911.6948,7882.9214)">
            <path
               d="m 0,0 8.078,5.886 2.719,-18.632 -4.383,-2.8 z"
               style="fill:#ffffff;fill-opacity:1;fill-rule:nonzero;stroke:none"
               id="path2554" />
          </g>
          <g
             id="g2556"
             transform="translate(930.7725,7881.6226)">
            <path
               d="M 0,0 -1.015,-11.244 H 3.572 L 9.701,6.819 Z"
               style="fill:#918f8b;fill-opacity:1;fill-rule:nonzero;stroke:none"
               id="path2558" />
          </g>
          <g
             id="g2560"
             transform="translate(911.6948,7882.9214)">
            <path
               d="m 0,0 8.971,-0.325 1.826,-12.421 -4.383,-2.8 z"
               style="fill:#918f8b;fill-opacity:1;fill-rule:nonzero;stroke:none"
               id="path2562" />
          </g>
          <g
             id="g2564"
             transform="translate(923.791,7870.4194)">
            <path
               d="m 0,0 h 4.627 l 1.38,10.919 -7.509,1.137 z"
               style="fill:#918f8b;fill-opacity:1;fill-rule:nonzero;stroke:none"
               id="path2566" />
          </g>
          <g
             id="g2568"
             transform="translate(923.3442,7882.4341)">
            <path
               d="m 0,0 c 0,0 -0.243,-6.941 1.786,-7.55 0,0 2.07,-0.811 3.126,6.738 z"
               style="fill:#ffffff;fill-opacity:1;fill-rule:nonzero;stroke:none"
               id="path2570" />
          </g>
          <g
             id="g2572"
             transform="translate(921.7046,7902.313)">
            <path
               d="m 0,0 c 0,0 -1.173,-6.513 -0.445,-8.009 0.728,-1.497 1.456,-1.578 1.456,-1.578 l 17.475,-1.052 c 0,0 -2.548,0.809 -3.034,4.854 0,0 -0.971,5.34 -6.957,5.623 C 2.508,0.121 0,0 0,0"
               style="fill:#194487;fill-opacity:1;fill-rule:nonzero;stroke:none"
               id="path2574" />
          </g>
          <g
             id="g2576"
             transform="translate(911.2173,7887.4917)">
            <path
               d="m 0,0 c 0,0 1.975,2.042 2.857,5.404 0.883,3.362 7.63,9.417 7.63,9.417 0,0 -2.114,-9.126 1.012,-9.587 L 7.485,5.509 Z"
               style="fill:#5cb9e4;fill-opacity:1;fill-rule:nonzero;stroke:none"
               id="path2578" />
          </g>
          <g
             id="g2580"
             transform="translate(921.7046,7902.313)">
            <path
               d="m 0,0 v 2.055 c 0,0 4.01,3.026 7.499,-0.168 v -1.975 z"
               style="fill:#0f3572;fill-opacity:1;fill-rule:nonzero;stroke:none"
               id="path2582" />
          </g>
          <g
             id="g2584"
             transform="translate(924.8325,7905.5132)">
            <path
               d="M 0,0 V 0.924 H 1.429 V 0.042 Z"
               style="fill:#194487;fill-opacity:1;fill-rule:nonzero;stroke:none"
               id="path2586" />
          </g>
          <g
             id="g2588"
             transform="translate(924.8325,7906.4375)">
            <path
               d="M 0,0 -1.429,1.345 H 2.647 L 1.429,0 Z"
               style="fill:#0f3572;fill-opacity:1;fill-rule:nonzero;stroke:none"
               id="path2590" />
          </g>
          <path
             d="m 923.404,7909.968 h 4.076 v -2.186 h -4.076 z"
             style="fill:#194487;fill-opacity:1;fill-rule:nonzero;stroke:none"
             id="path2592" />
          <g
             id="g2594"
             transform="translate(923.4038,7909.7827)">
            <path
               d="m 0,0 c 0,0 0,1.891 1.891,1.891 0,0 2.185,0.378 2.185,-1.891 C 4.076,0 0,0.126 0,0"
               style="fill:#0f3572;fill-opacity:1;fill-rule:nonzero;stroke:none"
               id="path2596" />
          </g>
          <g
             id="g2598"
             transform="translate(921.1826,7825.4858)">
            <path
               d="m 0,0 c 0,0 -0.961,1.404 5.249,1.404 6.21,0 6.21,-0.961 6.21,-0.961 0,0 0.37,-2.069 -5.323,-2.069 C 0.443,-1.626 0,0 0,0"
               style="fill:#194487;fill-opacity:1;fill-rule:nonzero;stroke:none"
               id="path2600" />
          </g>
          <g
             id="g2602"
             transform="translate(923.2275,7815.8916)">
            <path
               d="M 0,0 H 0.744 L 0.343,-89.355 -0.801,-90.557 Z"
               style="fill:#0f3572;fill-opacity:1;fill-rule:nonzero;stroke:none"
               id="path2604" />
          </g>
          <g
             id="g2606"
             transform="translate(929.4492,7816.2607)">
            <path
               d="M 0,0 H 0.744 L 2.387,-83.246 1.243,-84.447 Z"
               style="fill:#0f3572;fill-opacity:1;fill-rule:nonzero;stroke:none"
               id="path2608" />
          </g>
          <g
             id="g2610"
             transform="translate(925.0581,7816.0635)">
            <path
               d="m 0,0 h 0.801 l 0.144,-87.454 -1.087,-1.03 z"
               style="fill:#0f3572;fill-opacity:1;fill-rule:nonzero;stroke:none"
               id="path2612" />
          </g>
          <g
             id="g2614"
             transform="translate(926.8984,7816.0254)">
            <path
               d="m 0,0 h 1.031 l 0.825,-85.513 -1.1,-0.894 z"
               style="fill:#0f3572;fill-opacity:1;fill-rule:nonzero;stroke:none"
               id="path2616" />
          </g>
          <g
             id="g2618"
             transform="translate(919.2139,7694.3853)">
            <path
               d="m 0,0 c 0,0 -1.368,2 7.473,2 8.84,0 8.84,-1.369 8.84,-1.369 0,0 0.527,-2.946 -7.578,-2.946 C 0.631,-2.315 0,0 0,0"
               style="fill:#194487;fill-opacity:1;fill-rule:nonzero;stroke:none"
               id="path2620" />
          </g>
          <g
             id="g2622"
             transform="translate(922.0786,7744.7539)">
            <path
               d="m 0,0 c 0,0 -3.422,2.966 0.229,6.236 3.65,3.271 10.799,9.659 10.799,9.659 0,0 1.521,-4.031 -1.674,-6.692 C 6.161,6.541 0,0 0,0"
               style="fill:#194487;fill-opacity:1;fill-rule:nonzero;stroke:none"
               id="path2624" />
          </g>
          <g
             id="g2626"
             transform="translate(921.6445,7719.0264)">
            <path
               d="m 0,0 c 0,0 -3.772,3.27 0.251,6.875 4.024,3.604 11.905,10.646 11.905,10.646 0,0 1.677,-4.443 -1.844,-7.377 C 6.791,7.21 0,0 0,0"
               style="fill:#194487;fill-opacity:1;fill-rule:nonzero;stroke:none"
               id="path2628" />
          </g>
          <g
             id="g2630"
             transform="translate(921.7739,7797.3921)">
            <path
               d="m 0,0 c 0,0 -3.327,2.883 0.222,6.062 3.549,3.179 10.498,9.39 10.498,9.39 0,0 1.478,-3.919 -1.627,-6.506 C 5.988,6.358 0,0 0,0"
               style="fill:#194487;fill-opacity:1;fill-rule:nonzero;stroke:none"
               id="path2632" />
          </g>
          <g
             id="g2634"
             transform="translate(921.9956,7770.999)">
            <path
               d="m 0,0 c 0,0 -3.327,2.883 0.222,6.062 3.549,3.179 10.498,9.39 10.498,9.39 0,0 1.478,-3.919 -1.627,-6.506 C 5.988,6.358 0,0 0,0"
               style="fill:#194487;fill-opacity:1;fill-rule:nonzero;stroke:none"
               id="path2636" />
          </g>
          <g
             id="g2638"
             transform="translate(922.7798,7892.5815)">
            <path
               d="m 0,0 c 0,0 -2.144,0.283 -2.063,4.733 0,0 -0.081,0.89 -0.526,0.93 -0.445,0.041 -1.424,-5.389 -1.424,-5.389 z"
               style="fill:#194487;fill-opacity:1;fill-rule:nonzero;stroke:none"
               id="path2640" />
          </g>
        </g>
      </g>
      <g
         id="g2642"
         transform="translate(750.90562,701.89914)">
        <g
           id="g2644"
           clip-path="url(#clipPath2648)">
          <g
             id="g2650"
             transform="translate(860.271,7892.6416)">
            <path
               d="m 0,0 c 19.344,-4.429 38.688,-8.858 58.032,-13.287 0.447,1.956 1.045,3.888 1.793,5.775 C 41.374,-0.207 22.923,7.099 4.472,14.404 2.608,9.695 1.117,4.879 0,0"
               style="fill:#7195c4;fill-opacity:1;fill-rule:nonzero;stroke:none"
               id="path2652" />
          </g>
          <g
             id="g2654"
             transform="translate(858.042,7877.8857)">
            <path
               d="m 0,0 c 19.789,-1.482 39.578,-2.965 59.367,-4.448 0.149,1.991 0.448,3.973 0.897,5.93 C 40.921,5.917 21.579,10.353 2.236,14.788 1.117,9.909 0.372,4.965 0,0"
               style="fill:#e7e7e7;fill-opacity:1;fill-rule:nonzero;stroke:none"
               id="path2656" />
          </g>
          <g
             id="g2658"
             transform="translate(858.0444,7863.0029)">
            <path
               d="m 0,0 59.366,4.468 c -0.15,1.99 -0.15,3.99 0,5.98 L 0,14.916 C -0.374,9.951 -0.374,4.965 0,0"
               style="fill:#7195c4;fill-opacity:1;fill-rule:nonzero;stroke:none"
               id="path2660" />
          </g>
          <g
             id="g2662"
             transform="translate(860.2783,7848.248)">
            <path
               d="M 0,0 C 19.342,4.436 38.685,8.871 58.027,13.306 57.579,15.263 57.28,17.245 57.13,19.236 37.341,17.753 17.553,16.271 -2.236,14.788 -1.864,9.823 -1.119,4.879 0,0"
               style="fill:#e7e7e7;fill-opacity:1;fill-rule:nonzero;stroke:none"
               id="path2664" />
          </g>
          <g
             id="g2666"
             transform="translate(864.7432,7833.876)">
            <path
               d="M 0,0 C 18.451,7.305 36.902,14.61 55.353,21.916 54.605,23.804 54.007,25.735 53.56,27.691 34.216,23.262 14.872,18.833 -4.472,14.404 -3.354,9.524 -1.864,4.709 0,0"
               style="fill:#7195c4;fill-opacity:1;fill-rule:nonzero;stroke:none"
               id="path2668" />
          </g>
          <g
             id="g2670"
             transform="translate(877.6919,7873.895)">
            <path
               d="M 0,0 0.836,-2.439 H 3.543 L 1.353,-3.947 2.189,-6.386 0,-4.878 l -2.19,-1.508 0.836,2.439 -2.189,1.508 h 2.707 z"
               style="fill:#e7e7e7;fill-opacity:1;fill-rule:nonzero;stroke:none"
               id="path2672" />
          </g>
          <g
             id="g2674"
             transform="translate(890.3291,7873.895)">
            <path
               d="M 0,0 0.836,-2.439 H 3.543 L 1.354,-3.947 2.19,-6.386 0,-4.878 l -2.189,-1.508 0.836,2.439 -2.19,1.508 h 2.707 z"
               style="fill:#e7e7e7;fill-opacity:1;fill-rule:nonzero;stroke:none"
               id="path2676" />
          </g>
          <g
             id="g2678"
             transform="translate(902.9668,7873.895)">
            <path
               d="M 0,0 0.836,-2.439 H 3.543 L 1.353,-3.947 2.189,-6.386 0,-4.878 l -2.19,-1.508 0.836,2.439 -2.189,1.508 h 2.707 z"
               style="fill:#e7e7e7;fill-opacity:1;fill-rule:nonzero;stroke:none"
               id="path2680" />
          </g>
        </g>
      </g>
      <g
         id="g2682"
         transform="translate(750.90562,701.89914)">
        <g
           id="g2684"
           clip-path="url(#clipPath2688)">
          <g
             id="g2690"
             transform="translate(1109.6045,7754.5322)">
            <path
               d="m 0,0 -4.403,36.998 c -0.288,2.422 -2.076,4.332 -4.367,4.857 0.898,0.316 1.712,0.852 2.357,1.579 1.078,1.212 1.584,2.829 1.392,4.44 l -7.553,63.48 c -0.34,2.855 -2.762,5.006 -5.638,5.006 h -14.409 c -2.876,0 -5.298,-2.151 -5.638,-5.006 l -2.588,-21.745 v 21.074 c 0,3.135 -2.541,5.677 -5.676,5.677 h -8.443 c -2.103,0 -3.939,-1.144 -4.921,-2.843 -1.003,1.743 -2.871,2.843 -4.919,2.843 h -8.569 c -1.969,0 -3.702,-1.002 -4.721,-2.524 -1.993,1.654 -4.422,2.524 -7.087,2.524 h -14.6 c -2.65,0 -5.041,-0.859 -6.993,-2.489 -0.073,0.106 -0.141,0.215 -0.221,0.317 -1.076,1.371 -2.723,2.172 -4.466,2.172 h -24.439 c -3.136,0 -5.677,-2.542 -5.677,-5.677 v -9.078 c 0,-3.135 2.541,-5.676 5.677,-5.676 h 5.57 l -11.717,-47.363 c -0.419,-1.694 -0.035,-3.487 1.041,-4.862 0.728,-0.929 1.719,-1.589 2.822,-1.924 -1.298,-0.302 -2.507,-0.907 -3.558,-1.807 -1.494,-1.281 -2.478,-2.965 -2.844,-4.869 -0.067,-0.354 -0.101,-0.711 -0.101,-1.071 V 1.697 c 0,-0.914 0.216,-1.6 0.373,-2.095 0.147,-0.466 0.287,-0.836 0.444,-1.172 0.571,-1.26 1.476,-2.343 2.625,-3.138 0.598,-0.414 1.231,-0.76 1.889,-1.031 0.637,-0.297 1.416,-0.521 2.346,-0.578 0.393,-0.026 0.638,-0.031 0.738,-0.031 h 5.512 c 0.533,0 1.062,0.075 1.573,0.223 0.506,-0.147 1.035,-0.223 1.572,-0.223 h 3.7 c 1.02,0 1.976,0.273 2.803,0.744 1.05,-0.516 2.173,-0.781 3.338,-0.781 h 9.953 c 0.996,0 1.999,0.199 2.974,0.59 0.161,0.064 0.316,0.138 0.472,0.212 0.855,-0.496 1.834,-0.765 2.843,-0.765 h 4.995 c 1.37,0 2.638,0.489 3.625,1.309 0.988,-0.82 2.256,-1.309 3.626,-1.309 h 4.958 c 1.622,0 3.167,0.694 4.245,1.908 0.103,0.115 0.195,0.238 0.287,0.36 1.036,-1.375 2.678,-2.268 4.531,-2.268 h 5.033 c 1.833,0 3.458,0.872 4.496,2.221 0.081,-0.106 0.16,-0.213 0.249,-0.313 1.077,-1.214 2.622,-1.908 4.245,-1.908 h 4.994 c 1.371,0 2.638,0.489 3.626,1.309 0.988,-0.82 2.256,-1.309 3.626,-1.309 h 4.958 c 1.001,0 1.972,0.266 2.822,0.754 0.021,-0.01 0.04,-0.023 0.062,-0.032 1.043,-0.479 2.138,-0.722 3.257,-0.722 h 9.138 c 1.056,0 2.115,0.263 3.098,0.753 0.851,-0.487 1.821,-0.753 2.822,-0.753 h 4.994 c 1.371,0 2.638,0.489 3.626,1.309 0.989,-0.82 2.256,-1.309 3.626,-1.309 h 4.957 c 1.623,0 3.168,0.694 4.245,1.908 C -0.315,-3.228 0.191,-1.611 0,0"
               style="fill:#ffffff;fill-opacity:1;fill-rule:nonzero;stroke:none"
               id="path2692" />
          </g>
          <g
             id="g2694"
             transform="translate(972.5898,7753.9717)">
            <path
               d="m 0,0 c -0.346,0.124 -0.679,0.296 -0.999,0.518 -0.321,0.222 -0.556,0.505 -0.703,0.851 -0.05,0.098 -0.111,0.265 -0.185,0.5 -0.074,0.234 -0.111,0.363 -0.111,0.388 v 32.336 c 0.123,0.641 0.443,1.184 0.962,1.628 0.517,0.444 1.109,0.666 1.776,0.666 h 9.915 c 0.222,0.049 0.456,0.006 0.703,-0.129 0.246,-0.136 0.487,-0.315 0.721,-0.537 0.234,-0.222 0.444,-0.469 0.63,-0.74 0.185,-0.272 0.314,-0.518 0.388,-0.74 V 26.824 L 7.844,23.346 v 8.695 H 3.366 V 5.032 H 7.77 v 10.1 H 4.884 l 1.553,4.995 h 6.66 V -0.111 h -3.7 C 9.348,-0.062 9.273,0.098 9.176,0.37 9.076,0.641 9.015,0.814 8.99,0.888 L 6.252,-0.111 H 0.74 c -0.051,0 -0.174,0.006 -0.37,0.019 C 0.172,-0.08 0.049,-0.05 0,0"
               style="fill:#194487;fill-opacity:1;fill-rule:nonzero;stroke:none"
               id="path2696" />
          </g>
          <g
             id="g2698"
             transform="translate(989.3867,7756.1177)">
            <path
               d="m 0,0 v 2.683 4.143 5.087 c 0,1.825 0.006,3.682 0.019,5.568 0.011,1.887 0.018,3.737 0.018,5.55 v 5.051 4.069 2.59 H 5.364 V 3.182 c 0,-0.05 0.037,-0.13 0.112,-0.241 C 5.55,2.831 5.624,2.775 5.697,2.775 h 3.589 c 0.05,0.024 0.123,0.086 0.222,0.185 0.098,0.098 0.136,0.172 0.111,0.222 v 31.559 h 5.365 V 0 c 0,-0.296 -0.081,-0.58 -0.241,-0.851 -0.16,-0.272 -0.37,-0.518 -0.629,-0.74 -0.259,-0.222 -0.542,-0.395 -0.85,-0.518 -0.309,-0.123 -0.599,-0.185 -0.87,-0.185 H 2.441 c -0.295,0 -0.58,0.068 -0.85,0.204 -0.272,0.135 -0.519,0.314 -0.74,0.536 -0.222,0.222 -0.408,0.468 -0.555,0.74 C 0.147,-0.543 0.049,-0.271 0,0"
               style="fill:#194487;fill-opacity:1;fill-rule:nonzero;stroke:none"
               id="path2700" />
          </g>
          <g
             id="g2702"
             transform="translate(1018.9844,7764.96)">
            <path
               d="M 0,0 -2.331,18.573 -4.551,0 Z M -6.512,25.899 H 1.887 L 6.29,-11.099 H 1.332 l -0.703,5.623 h -5.883 l -0.665,-5.623 h -4.995 z"
               style="fill:#194487;fill-opacity:1;fill-rule:nonzero;stroke:none"
               id="path2704" />
          </g>
          <g
             id="g2706"
             transform="translate(1028.9736,7782.3862)">
            <path
               d="M 0,0 V 8.473 H 4.995 V 0 L 7.807,-5.772 H 7.844 L 10.692,0 v 8.473 h 4.996 V 0 L 10.396,-13.097 V -28.525 H 5.364 v 15.428 z"
               style="fill:#194487;fill-opacity:1;fill-rule:nonzero;stroke:none"
               id="path2708" />
          </g>
          <g
             id="g2710"
             transform="translate(1059.2744,7764.96)">
            <path
               d="M 0,0 -2.331,18.573 -4.551,0 Z M -6.512,25.899 H 1.887 L 6.289,-11.099 H 1.332 l -0.703,5.623 h -5.883 l -0.666,-5.623 h -4.994 z"
               style="fill:#194487;fill-opacity:1;fill-rule:nonzero;stroke:none"
               id="path2712" />
          </g>
          <g
             id="g2714"
             transform="translate(1078.0684,7776.5405)">
            <path
               d="M 0,0 V 8.991 C 0,9.04 -0.03,9.095 -0.092,9.157 -0.154,9.218 -0.21,9.25 -0.259,9.25 h -3.293 c -0.147,0 -0.221,-0.087 -0.221,-0.259 v -26.343 c 0,-0.05 0.024,-0.099 0.074,-0.148 0.049,-0.05 0.098,-0.074 0.147,-0.074 h 3.293 c 0.049,0 0.105,0.024 0.167,0.074 0.062,0.049 0.092,0.098 0.092,0.148 v 8.99 l 4.995,-3.589 v -8.435 c 0,-0.222 -0.074,-0.468 -0.222,-0.74 -0.148,-0.271 -0.333,-0.518 -0.555,-0.74 -0.222,-0.222 -0.462,-0.413 -0.721,-0.573 -0.26,-0.161 -0.5,-0.241 -0.722,-0.241 h -9.138 c -0.296,0 -0.592,0.068 -0.888,0.204 -0.296,0.135 -0.556,0.32 -0.777,0.555 -0.222,0.234 -0.408,0.493 -0.555,0.776 -0.148,0.284 -0.222,0.574 -0.222,0.87 v 32.189 c 0,0.295 0.074,0.591 0.222,0.887 0.147,0.296 0.333,0.555 0.555,0.777 0.221,0.222 0.481,0.401 0.777,0.537 0.296,0.135 0.592,0.203 0.888,0.203 h 9.138 c 0.222,0 0.462,-0.08 0.722,-0.24 0.259,-0.161 0.499,-0.352 0.721,-0.574 0.222,-0.222 0.407,-0.468 0.555,-0.74 0.148,-0.271 0.222,-0.518 0.222,-0.74 V 3.626 Z"
               style="fill:#194487;fill-opacity:1;fill-rule:nonzero;stroke:none"
               id="path2716" />
          </g>
          <g
             id="g2718"
             transform="translate(1097.6777,7764.96)">
            <path
               d="M 0,0 -2.331,18.573 -4.551,0 Z M -6.512,25.899 H 1.887 L 6.289,-11.099 H 1.332 l -0.703,5.623 h -5.883 l -0.666,-5.623 h -4.995 z"
               style="fill:#194487;fill-opacity:1;fill-rule:nonzero;stroke:none"
               id="path2720" />
          </g>
        </g>
      </g>
      <g
         id="g2722"
         transform="translate(750.90562,701.89914)">
        <g
           id="g2724"
           clip-path="url(#clipPath2728)">
          <g
             id="g2730"
             transform="translate(996.3047,7839.354)">
            <path
               d="m 0,0 c -26.45,4.616 -52.899,9.232 -79.349,13.849 1.628,9.328 2.225,18.79 1.791,28.216 26.821,1.234 53.642,2.469 80.463,3.703 C 3.609,30.478 2.641,15.13 0,0"
               style="fill:#ff4c59;fill-opacity:1;fill-rule:nonzero;stroke:none"
               id="path2732" />
          </g>
          <g
             id="g2734"
             transform="translate(998.3027,7853.709)">
            <path
               d="m 0,0 -80.115,8.344 c 0.916,8.797 0.928,17.665 0.037,26.465 26.712,2.706 53.426,5.412 80.138,8.118 C 1.506,28.654 1.486,14.27 0,0"
               style="fill:#41478b;fill-opacity:1;fill-rule:nonzero;stroke:none"
               id="path2736" />
          </g>
          <g
             id="g2738"
             transform="translate(999.4287,7874.249)">
            <path
               d="m 0,0 c -26.849,0.156 -53.698,0.311 -80.547,0.467 0.045,7.699 -0.598,15.401 -1.926,23.014 26.45,4.616 52.899,9.232 79.349,13.849 C -0.969,24.981 0.072,12.488 0,0"
               style="fill:#ffd25a;fill-opacity:1;fill-rule:nonzero;stroke:none"
               id="path2740" />
          </g>
          <g
             id="g2742"
             transform="translate(963.0605,7880.8218)">
            <path
               d="m 0,0 c 0.202,-1.43 0.387,-2.864 0.554,-4.302 0.004,0.005 0.008,0.009 0.012,0.013 C 0.557,-2.651 0.523,-1.015 0.467,0.621 0.312,0.414 0.155,0.207 0,0"
               style="fill:#ff4c59;fill-opacity:1;fill-rule:nonzero;stroke:none"
               id="path2744" />
          </g>
          <g
             id="g2746"
             transform="translate(963.5273,7881.4429)">
            <path
               d="m 0,0 c 0.057,-1.636 0.09,-3.272 0.1,-4.91 0.429,0.476 0.858,0.955 1.285,1.438 C 1.36,-1.756 1.311,-0.041 1.235,1.673 0.826,1.112 0.415,0.554 0,0"
               style="fill:#42488a;fill-opacity:1;fill-rule:nonzero;stroke:none"
               id="path2748" />
          </g>
          <g
             id="g2750"
             transform="translate(967.1377,7885.4316)">
            <path
               d="m 0,0 c -0.25,-0.014 -0.499,-0.028 -0.749,-0.042 0.103,-1.821 0.177,-3.643 0.223,-5.465 0.242,0.283 0.484,0.569 0.726,0.855 C 0.153,-3.101 0.087,-1.55 0,0"
               style="fill:#42488a;fill-opacity:1;fill-rule:nonzero;stroke:none"
               id="path2752" />
          </g>
          <g
             id="g2754"
             transform="translate(964.7627,7883.1162)">
            <path
               d="m 0,0 c 0.075,-1.714 0.125,-3.43 0.149,-5.146 0.57,0.646 1.136,1.297 1.7,1.954 C 1.803,-1.37 1.729,0.453 1.626,2.273 1.089,1.508 0.547,0.751 0,0"
               style="fill:#ffd25a;fill-opacity:1;fill-rule:nonzero;stroke:none"
               id="path2756" />
          </g>
          <g
             id="g2758"
             transform="translate(955.0142,7880.6226)">
            <path
               d="M 0,0 C -0.116,-1.374 -0.249,-2.743 -0.398,-4.109 -0.402,-4.104 -0.407,-4.1 -0.411,-4.096 -0.42,-2.544 -0.452,-0.992 -0.506,0.56 -0.337,0.374 -0.168,0.187 0,0"
               style="fill:#ff4c59;fill-opacity:1;fill-rule:nonzero;stroke:none"
               id="path2760" />
          </g>
          <g
             id="g2762"
             transform="translate(954.5083,7881.1821)">
            <path
               d="m 0,0 c 0.053,-1.551 0.086,-3.104 0.095,-4.655 -0.436,0.445 -0.874,0.887 -1.313,1.326 -0.024,1.602 -0.071,3.204 -0.141,4.805 C -0.904,0.988 -0.451,0.496 0,0"
               style="fill:#42488a;fill-opacity:1;fill-rule:nonzero;stroke:none"
               id="path2764" />
          </g>
          <g
             id="g2766"
             transform="translate(950.5645,7884.5498)">
            <path
               d="m 0,0 c 0.25,0.014 0.499,0.028 0.749,0.042 0.094,-1.666 0.162,-3.332 0.204,-5 C 0.697,-4.71 0.44,-4.463 0.183,-4.218 0.14,-2.812 0.079,-1.405 0,0"
               style="fill:#42488a;fill-opacity:1;fill-rule:nonzero;stroke:none"
               id="path2768" />
          </g>
          <g
             id="g2770"
             transform="translate(953.1494,7882.6577)">
            <path
               d="m 0,0 c 0.07,-1.601 0.117,-3.203 0.141,-4.805 -0.588,0.586 -1.179,1.166 -1.773,1.74 -0.042,1.667 -0.11,3.334 -0.204,4.999 C -1.22,1.297 -0.608,0.652 0,0"
               style="fill:#ffd25a;fill-opacity:1;fill-rule:nonzero;stroke:none"
               id="path2772" />
          </g>
          <g
             id="g2774"
             transform="translate(965.8848,7882.3857)">
            <path
               d="m 0,0 c 0.001,0 -0.579,-0.45 -0.842,-1.013 -0.126,0.435 -0.263,0.839 -0.399,1.198 0.3,0.143 0.855,0.637 0.392,2.223 0.001,0 -0.627,-0.499 -0.86,-1.101 -0.159,0.346 -0.266,0.544 -0.266,0.544 0,0 -0.044,0.357 -0.097,0.676 0.083,0.476 -0.056,1.156 -1.371,1.373 0.003,0 0.01,-2.023 0.874,-1.969 0.072,-0.063 0.143,-0.126 0.215,-0.19 0.166,-0.221 0.317,-0.468 0.453,-0.732 -0.518,0.183 -1.312,-0.439 -1.312,-0.438 0.921,-1.521 1.57,-0.733 1.715,-0.512 0.144,-0.402 0.258,-0.821 0.353,-1.235 -0.515,0.162 -1.291,-0.431 -1.291,-0.43 0.682,-1.16 1.221,-1.002 1.511,-0.757 0.188,-1.27 0.189,-2.27 0.189,-2.27 0.122,0.178 0.244,0.357 0.365,0.536 0,0.258 -0.001,0.515 -0.003,0.773 -0.037,0.358 -0.093,0.712 -0.16,1.056 C -0.304,-2.202 0.504,-1.83 0,0"
               style="fill:#80a201;fill-opacity:1;fill-rule:nonzero;stroke:none"
               id="path2776" />
          </g>
          <g
             id="g2778"
             transform="translate(952.2397,7881.8652)">
            <path
               d="m 0,0 c 0,0 0.613,-0.37 0.91,-0.878 0.099,0.413 0.206,0.799 0.312,1.144 -0.312,0.113 -0.893,0.521 -0.591,2.03 0,0.001 0.675,-0.398 0.962,-0.941 0.127,0.338 0.214,0.535 0.214,0.535 0,0 0.009,0.339 0.028,0.645 C 1.704,2.973 1.764,3.62 3.042,3.987 3.045,3.988 3.261,2.056 2.391,2.024 2.325,1.957 2.26,1.89 2.195,1.824 2.05,1.599 1.924,1.353 1.812,1.093 2.312,1.313 3.156,0.792 3.156,0.791 2.358,-0.731 1.648,-0.021 1.488,0.169 1.378,-0.219 1.292,-0.618 1.223,-1.011 1.729,-0.824 2.538,-1.335 2.538,-1.336 1.923,-2.474 1.37,-2.342 1.071,-2.13 0.949,-3.324 0.969,-4.253 0.968,-4.253 0.842,-4.091 0.715,-3.928 0.588,-3.766 0.581,-3.527 0.572,-3.288 0.563,-3.048 0.586,-2.715 0.626,-2.385 0.676,-2.063 0.439,-2.01 -0.372,-1.714 0,0"
               style="fill:#80a201;fill-opacity:1;fill-rule:nonzero;stroke:none"
               id="path2780" />
          </g>
          <g
             id="g2782"
             transform="translate(948.6729,7887.2544)">
            <path
               d="m 0,0 c 0,0.007 2.273,-0.881 5.785,-0.064 0.006,0.006 1.578,-2.649 2.927,-3 1.038,0.053 2.075,0.107 3.112,0.161 -0.002,-0.002 1.921,1.328 2.513,3.385 -10e-4,0.008 2.953,-0.42 5.71,0.97 C 20.048,1.454 17.846,2.58 16.472,3.937 15.095,5.312 11.239,6.29 11.185,3.824 11.118,1.359 11.48,0.132 11.483,0.13 11.487,0.136 10.75,2.737 9.243,1.453 9.064,1.351 8.887,1.248 8.708,1.146 8.721,1.142 9.026,5.025 6.644,4.783 4.276,4.538 3.043,2.703 3.04,2.707 3.042,2.704 1.623,0.728 0,0"
               style="fill:#5a4647;fill-opacity:1;fill-rule:nonzero;stroke:none"
               id="path2784" />
          </g>
          <g
             id="g2786"
             transform="translate(959.6787,7887.4707)">
            <path
               d="m 0,0 c 0.048,-0.684 -0.324,-1.265 -0.825,-1.295 -0.502,-0.032 -0.941,0.491 -0.989,1.167 -0.048,0.676 0.315,1.256 0.815,1.295 C -0.499,1.207 -0.048,0.685 0,0"
               style="fill:#d2ccb9;fill-opacity:1;fill-rule:nonzero;stroke:none"
               id="path2788" />
          </g>
          <g
             id="g2790"
             transform="translate(957.7769,7888.8379)">
            <path
               d="M 0,0 C 0.355,-0.373 0.71,-0.749 1.063,-1.126 1.195,-1.269 1.241,-1.511 1.17,-1.708 1.087,-1.936 0.884,-2.029 0.707,-1.92 0.109,-1.555 -0.488,-1.193 -1.087,-0.836 -0.724,-0.559 -0.362,-0.28 0,0"
               style="fill:#edc1a1;fill-opacity:1;fill-rule:nonzero;stroke:none"
               id="path2792" />
          </g>
          <g
             id="g2794"
             transform="translate(958.9829,7864.2979)">
            <path
               d="M 0,0 C 0.187,-1.51 0.355,-3.026 0.502,-4.548 0.951,-4.275 1.4,-4 1.848,-3.723 1.519,-2.425 1.176,-1.136 0.818,0.144 0.546,0.096 0.273,0.048 0,0"
               style="fill:#41478c;fill-opacity:1;fill-rule:nonzero;stroke:none"
               id="path2796" />
          </g>
          <g
             id="g2798"
             transform="translate(960.5552,7864.5757)">
            <path
               d="M 0,0 C -0.251,-0.045 -0.502,-0.089 -0.754,-0.134 -0.396,-1.414 -0.053,-2.703 0.275,-4 0.731,-3.718 1.187,-3.433 1.642,-3.145 1.104,-2.086 0.556,-1.038 0,0"
               style="fill:#ffd25a;fill-opacity:1;fill-rule:nonzero;stroke:none"
               id="path2800" />
          </g>
          <g
             id="g2802"
             transform="translate(956.75,7864.5142)">
            <path
               d="m 0,0 c -0.568,-0.865 -1.142,-1.722 -1.723,-2.569 0.423,-0.329 0.845,-0.66 1.265,-0.994 0.492,1.134 0.973,2.277 1.441,3.429 C 0.655,-0.089 0.328,-0.044 0,0"
               style="fill:#ffd25a;fill-opacity:1;fill-rule:nonzero;stroke:none"
               id="path2804" />
          </g>
          <g
             id="g2806"
             transform="translate(956.292,7860.9517)">
            <path
               d="M 0,0 C 0.396,-0.313 0.792,-0.629 1.186,-0.947 1.613,0.458 2.022,1.872 2.415,3.294 2.09,3.339 1.765,3.384 1.441,3.428 0.972,2.277 0.492,1.134 0,0"
               style="fill:#41478c;fill-opacity:1;fill-rule:nonzero;stroke:none"
               id="path2808" />
          </g>
          <g
             id="g2810"
             transform="translate(958.3975,7864.3364)">
            <path
               d="m 0,0 c -0.375,-1.43 -0.767,-2.853 -1.177,-4.267 -0.144,0.037 -0.288,0.073 -0.432,0.11 -0.065,-0.217 -0.131,-0.432 -0.197,-0.648 0.584,-0.31 1.168,-0.623 1.751,-0.938 0.598,0.193 1.196,0.388 1.794,0.586 C 1.713,-4.914 1.687,-4.67 1.66,-4.428 1.539,-4.45 1.417,-4.472 1.296,-4.493 1.142,-2.921 0.966,-1.356 0.769,0.202 0.513,0.134 0.256,0.067 0,0"
               style="fill:#ff4c59;fill-opacity:1;fill-rule:nonzero;stroke:none"
               id="path2812" />
          </g>
          <g
             id="g2814"
             transform="translate(956.0107,7887.6914)">
            <path
               d="M 0,0 C 0,0 0.843,0.196 1.298,0.119 1.754,0.041 1.888,0.592 1.766,1.146 1.643,1.701 0.706,1.338 0.707,1.339 0.706,1.339 0.063,0.939 0,0"
               style="fill:#d69180;fill-opacity:1;fill-rule:nonzero;stroke:none"
               id="path2816" />
          </g>
          <g
             id="g2818"
             transform="translate(959.1426,7872.2056)">
            <path
               d="m 0,0 c -3.024,3.34 -6.147,6.501 -9.354,9.481 0.187,-4.787 0.158,-9.581 -0.085,-14.366 -0.219,-3.967 3.518,-6.249 5.872,-3.312 1.147,1.459 2.275,2.947 3.382,4.466 0.997,-1.635 1.971,-3.298 2.92,-4.991 1.858,-3.39 5.989,-1.701 6.241,2.807 C 9.25,-0.579 9.285,4.765 9.08,10.103 6.153,6.561 3.122,3.192 0,0"
               style="fill:#ffd25a;fill-opacity:1;fill-rule:nonzero;stroke:none"
               id="path2820" />
          </g>
        </g>
      </g>
      <g
         id="g2822"
         transform="translate(750.90562,701.89914)">
        <g
           id="g2824"
           clip-path="url(#clipPath2828)">
          <g
             id="g2830"
             transform="translate(966.0615,7880.5957)">
            <path
               d="m 0,0 c 0.138,-4.726 0.085,-9.457 -0.157,-14.18 -0.08,-1.513 -1.431,-2.204 -2.163,-1.137 -2.171,3.138 -4.427,6.159 -6.757,9.059 C -6.015,-4.281 -2.986,-2.195 0,0"
               style="fill:#42488a;fill-opacity:1;fill-rule:nonzero;stroke:none"
               id="path2832" />
          </g>
          <g
             id="g2834"
             transform="translate(964.875,7879.0601)">
            <path
               d="m 0,0 c 0.085,-4.133 0.023,-8.268 -0.184,-12.397 -1.152,1.468 -2.322,2.908 -3.51,4.318 0.354,1.94 0.676,3.892 0.965,5.853 C -1.814,-1.496 -0.904,-0.753 0,0"
               style="fill:#ff4c59;fill-opacity:1;fill-rule:nonzero;stroke:none"
               id="path2836" />
          </g>
          <g
             id="g2838"
             transform="translate(952.0566,7880.2739)">
            <path
               d="m 0,0 c 0.128,-4.351 0.083,-8.707 -0.138,-13.055 -0.072,-1.385 1.177,-2.194 2.031,-1.282 2.51,2.697 4.954,5.518 7.323,8.462 C 6.179,-3.808 3.105,-1.849 0,0"
               style="fill:#42488a;fill-opacity:1;fill-rule:nonzero;stroke:none"
               id="path2840" />
          </g>
          <g
             id="g2842"
             transform="translate(953.3159,7878.9092)">
            <path
               d="m 0,0 c 0.081,-3.86 0.026,-7.723 -0.167,-11.581 1.289,1.254 2.563,2.538 3.82,3.851 C 3.398,-5.822 3.11,-3.924 2.79,-2.036 1.864,-1.346 0.934,-0.667 0,0"
               style="fill:#ff4c59;fill-opacity:1;fill-rule:nonzero;stroke:none"
               id="path2844" />
          </g>
        </g>
      </g>
      <g
         id="g2846"
         transform="translate(750.90562,701.89914)">
        <g
           id="g2848"
           clip-path="url(#clipPath2852)">
          <g
             id="g2854"
             transform="translate(954.293,7875.6333)">
            <path
               d="M 0,0 C 0.011,-5.054 1.917,-9.289 4.596,-9.463 7.267,-9.638 9.71,-5.399 9.702,0.01 9.701,5.419 7.244,9.653 4.577,9.472 1.899,9.292 0,5.054 0,0"
               style="fill:#ffba80;fill-opacity:1;fill-rule:nonzero;stroke:none"
               id="path2856" />
          </g>
          <g
             id="g2858"
             transform="translate(954.2095,7865.6777)">
            <path
               d="m 0,0 c 3.406,-0.202 6.812,-0.404 10.218,-0.607 0.11,-0.006 0.19,-0.131 0.18,-0.279 -0.01,-0.147 -0.104,-0.261 -0.213,-0.255 -3.405,0.213 -6.81,0.426 -10.216,0.639 0.01,0.167 0.02,0.335 0.031,0.502"
               style="fill:#84664b;fill-opacity:1;fill-rule:nonzero;stroke:none"
               id="path2860" />
          </g>
          <g
             id="g2862"
             transform="translate(960.9976,7863.918)">
            <path
               d="m 0,0 c -1.5,0.101 -2.999,0.202 -4.498,0.303 -0.469,0.032 -0.816,0.549 -0.779,1.155 0.036,0.606 0.444,1.078 0.913,1.053 C -2.864,2.43 -1.363,2.349 0.137,2.268 0.607,2.243 0.96,1.712 0.922,1.082 0.883,0.452 0.469,-0.032 0,0"
               style="fill:#ae815a;fill-opacity:1;fill-rule:nonzero;stroke:none"
               id="path2864" />
          </g>
          <g
             id="g2866"
             transform="translate(954.1714,7864.3838)">
            <path
               d="m 0,0 c -0.092,0.209 -0.186,0.418 -0.278,0.627 0.021,0.339 0.042,0.678 0.061,1.017 0,0.001 -0.429,1.065 -1.192,1.253 0.002,-10e-4 0.519,1.03 1.591,0.985 C 1.255,3.837 1.561,2.836 1.56,2.836 1.56,2.835 0.445,2.345 0.365,1.545 0.346,1.212 0.326,0.879 0.305,0.546 0.204,0.364 0.102,0.182 0,0"
               style="fill:#d1d1d5;fill-opacity:1;fill-rule:nonzero;stroke:none"
               id="path2868" />
          </g>
          <g
             id="g2870"
             transform="translate(955.002,7865.1235)">
            <path
               d="m 0,0 c -0.541,0.034 -1.081,0.067 -1.621,0.102 -0.109,0.006 -0.19,0.124 -0.181,0.261 0.009,0.138 0.103,0.245 0.211,0.239 C -1.05,0.57 -0.51,0.538 0.031,0.505 Z"
               style="fill:#878087;fill-opacity:1;fill-rule:nonzero;stroke:none"
               id="path2872" />
          </g>
          <g
             id="g2874"
             transform="translate(968.7959,7878.2031)">
            <path
               d="M 0,0 C -0.266,-0.368 -0.532,-0.733 -0.8,-1.097 -0.815,0.722 -0.86,2.542 -0.933,4.36 l 0.812,0.032 C -0.062,2.928 -0.022,1.464 0,0"
               style="fill:#42488a;fill-opacity:1;fill-rule:nonzero;stroke:none"
               id="path2876" />
          </g>
          <g
             id="g2878"
             transform="translate(950.2612,7876.9443)">
            <path
               d="m 0,0 c -0.27,0.354 -0.54,0.708 -0.811,1.059 -0.021,1.27 -0.056,2.538 -0.106,3.807 0.266,0.01 0.531,0.021 0.797,0.031 C -0.055,3.266 -0.015,1.633 0,0"
               style="fill:#42488a;fill-opacity:1;fill-rule:nonzero;stroke:none"
               id="path2880" />
          </g>
        </g>
      </g>
      <g
         id="g2882"
         transform="translate(750.90562,701.89914)">
        <g
           id="g2884"
           clip-path="url(#clipPath2888)">
          <g
             id="g2890"
             transform="translate(955.2007,7875.6343)">
            <path
               d="M 0,0 C 0.008,-4.438 1.572,-8.134 3.75,-8.257 5.921,-8.381 7.894,-4.683 7.886,0.008 7.884,4.698 5.905,8.393 3.733,8.264 1.556,8.137 0.001,4.438 0,0"
               style="fill:#69b3ff;fill-opacity:1;fill-rule:nonzero;stroke:none"
               id="path2892" />
          </g>
          <g
             id="g2894"
             transform="translate(957.5835,7876.2334)">
            <path
               d="M 0,0 0.299,-0.284 C 0.598,-0.57 1.012,-0.524 1.268,-0.172 1.463,0.097 1.659,0.367 1.853,0.638 1.499,1.06 1.143,1.479 0.785,1.895 0.28,2.481 -0.48,2.435 -0.939,1.804 -1.53,0.993 -2.126,0.191 -2.729,-0.603 c 0,-0.059 10e-4,-0.118 10e-4,-0.177 0.795,0.283 1.588,0.57 2.382,0.862 C -0.228,0.125 -0.1,0.095 0,0"
               style="fill:#e2e4ec;fill-opacity:1;fill-rule:nonzero;stroke:none"
               id="path2896" />
          </g>
          <g
             id="g2898"
             transform="translate(962.3955,7875.4316)">
            <path
               d="M 0,0 C -0.912,-0.514 -1.623,-0.168 -1.623,-0.17 -2.065,0.371 -2.511,0.908 -2.959,1.44 -3.153,1.169 -3.348,0.899 -3.544,0.63 -3.801,0.277 -4.212,0.231 -4.513,0.518 L -4.812,0.802 C -4.912,0.897 -5.04,0.927 -5.158,0.883 -5.952,0.592 -6.745,0.305 -7.54,0.022 -7.536,-0.807 -7.538,-1.635 -7.547,-2.464 -4.718,-2.55 -1.888,-2.639 0.941,-2.73 1.063,-1.972 1.18,-1.212 1.292,-0.45 1.293,-0.449 0.913,0.518 0,0"
               style="fill:#018b65;fill-opacity:1;fill-rule:nonzero;stroke:none"
               id="path2900" />
          </g>
          <g
             id="g2902"
             transform="translate(955.0459,7873.5078)">
            <path
               d="M 0,0 C 2.721,-0.032 5.441,-0.064 8.161,-0.096 8.076,-0.838 7.986,-1.578 7.893,-2.317 7.755,-2.751 7.615,-3.184 7.475,-3.615 7.282,-3.971 7.088,-4.325 6.893,-4.678 6.526,-5.064 6.159,-5.448 5.792,-5.83 5.32,-6.053 4.849,-6.274 4.377,-6.494 3.76,-6.389 3.144,-6.286 2.527,-6.184 2.526,-6.182 1.327,-5.242 1.292,-5.177 1.259,-5.106 0.586,-3.441 0.56,-3.393 0.537,-3.342 0.292,-2.195 0.242,-2.063 0.196,-1.93 0.02,-0.542 0.019,-0.543 0.013,-0.362 0.006,-0.181 0,0"
               style="fill:#5a90d6;fill-opacity:1;fill-rule:nonzero;stroke:none"
               id="path2904" />
          </g>
        </g>
      </g>
      <g
         id="g2906"
         transform="translate(750.90562,701.89914)">
        <g
           id="g2908"
           clip-path="url(#clipPath2912)">
          <g
             id="g2914"
             transform="translate(973.0664,7800.0317)">
            <path
               d="m 0,0 c -0.523,0 -1.019,0.241 -1.341,0.653 -0.322,0.413 -0.437,0.951 -0.312,1.459 l 12.935,52.29 H 0.635 c -0.941,0 -1.703,0.763 -1.703,1.703 v 9.078 c 0,0.941 0.762,1.703 1.703,1.703 h 24.439 c 0.524,0 1.017,-0.24 1.34,-0.652 0.323,-0.411 0.439,-0.948 0.315,-1.456 L 13.914,12.42 h 10.082 c 0.941,0 1.703,-0.762 1.703,-1.703 V 1.703 C 25.699,0.763 24.937,0 23.996,0 Z"
               style="fill:#ffffff;fill-opacity:1;fill-rule:nonzero;stroke:none"
               id="path2916" />
          </g>
          <g
             id="g2918"
             transform="translate(986.5244,7856.1372)">
            <path
               d="m 0,0 h -12.823 v 9.078 h 24.44 L -1.714,-45.388 h 12.252 v -9.014 h -23.996 z"
               style="fill:#5cb9e4;fill-opacity:1;fill-rule:nonzero;stroke:none"
               id="path2920" />
          </g>
          <path
             d="m 1019.291,7854.942 h -4.212 v -43.315 h 4.212 z m -9.47,-54.91 c -1.999,0 -3.693,0.71 -5.037,2.111 -1.326,1.38 -1.999,3.08 -1.999,5.051 v 52.561 c 0,1.971 0.673,3.67 1.999,5.052 1.346,1.401 3.04,2.111 5.037,2.111 h 14.601 c 1.982,0 3.69,-0.702 5.076,-2.085 1.385,-1.386 2.086,-3.094 2.086,-5.078 v -52.561 c 0,-1.984 -0.702,-3.693 -2.085,-5.076 -1.385,-1.385 -3.093,-2.086 -5.077,-2.086 z"
             style="fill:#ffffff;fill-opacity:1;fill-rule:nonzero;stroke:none"
             id="path2922" />
          <g
             id="g2924"
             transform="translate(1019.9785,7809.9238)">
            <path
               d="M 0,0 C 0.295,0 0.539,0.105 0.729,0.317 0.92,0.529 1.016,0.74 1.016,0.952 v 44.817 c 0,0.635 -0.34,0.952 -1.016,0.952 h -5.523 c -0.72,0 -1.08,-0.317 -1.08,-0.952 V 0.952 c 0,-0.212 0.106,-0.423 0.318,-0.635 C -6.073,0.105 -5.819,0 -5.523,0 Z m -10.157,-8.189 c -1.524,0 -2.793,0.528 -3.809,1.587 -1.015,1.058 -1.523,2.349 -1.523,3.872 v 52.562 c 0,1.523 0.508,2.814 1.523,3.872 1.016,1.057 2.285,1.587 3.809,1.587 h 14.6 c 1.524,0 2.814,-0.53 3.872,-1.587 1.058,-1.058 1.587,-2.349 1.587,-3.872 V -2.73 C 9.902,-4.253 9.373,-5.544 8.315,-6.602 7.257,-7.661 5.967,-8.189 4.443,-8.189 Z"
               style="fill:#5cb9e4;fill-opacity:1;fill-rule:nonzero;stroke:none"
               id="path2926" />
          </g>
          <g
             id="g2928"
             transform="translate(1054.6377,7800.0317)">
            <path
               d="M 0,0 C -0.94,0 -1.703,0.763 -1.703,1.703 V 19.897 L -8.136,35.254 V 1.703 C -8.136,0.763 -8.898,0 -9.839,0 h -8.57 c -0.941,0 -1.703,0.763 -1.703,1.703 v 63.48 c 0,0.941 0.762,1.703 1.703,1.703 h 8.57 c 0.687,0 1.307,-0.412 1.571,-1.047 l 6.565,-15.713 v 15.057 c 0,0.941 0.763,1.703 1.703,1.703 h 8.443 c 0.941,0 1.703,-0.762 1.703,-1.703 V 1.703 C 10.146,0.763 9.384,0 8.443,0 Z"
               style="fill:#ffffff;fill-opacity:1;fill-rule:nonzero;stroke:none"
               id="path2930" />
          </g>
          <g
             id="g2932"
             transform="translate(1044.7988,7865.2148)">
            <path
               d="M 0,0 9.839,-23.551 V 0 h 8.443 V -63.48 H 9.839 v 18.536 L 0,-21.456 V -63.48 H -8.57 V 0 Z"
               style="fill:#5cb9e4;fill-opacity:1;fill-rule:nonzero;stroke:none"
               id="path2934" />
          </g>
          <g
             id="g2936"
             transform="translate(1086.2246,7822.4819)">
            <path
               d="M 0,0 -2.027,16.158 -3.959,0 Z m 4.216,-22.45 c -0.859,0 -1.583,0.639 -1.69,1.492 l -1.02,8.157 H -5.57 l -0.964,-8.146 c -0.102,-0.858 -0.829,-1.503 -1.692,-1.503 h -8.57 c -0.487,0 -0.95,0.208 -1.273,0.572 -0.324,0.364 -0.476,0.849 -0.418,1.332 l 7.554,63.48 c 0.102,0.857 0.829,1.502 1.692,1.502 H 5.168 c 0.862,0 1.59,-0.645 1.69,-1.502 l 7.555,-63.48 c 0.058,-0.483 -0.095,-0.968 -0.418,-1.332 -0.323,-0.364 -0.786,-0.572 -1.273,-0.572 z"
               style="fill:#ffffff;fill-opacity:1;fill-rule:nonzero;stroke:none"
               id="path2938" />
          </g>
          <g
             id="g2940"
             transform="translate(1088.1553,7820.7788)">
            <path
               d="M 0,0 -3.999,31.867 -7.808,0 Z m -11.173,44.436 h 14.41 l 7.555,-63.48 H 2.285 L 1.079,-9.395 H -9.014 l -1.143,-9.649 h -8.57 z"
               style="fill:#5cb9e4;fill-opacity:1;fill-rule:nonzero;stroke:none"
               id="path2942" />
          </g>
          <g
             id="g2944"
             transform="translate(1062.0967,7699.8428)">
            <path
               d="m 0,0 c -0.176,0.294 -0.386,0.603 -0.616,0.917 0.002,0.017 0.003,0.033 0.005,0.05 0.007,0.062 0.023,0.12 0.028,0.182 0.005,0.061 -0.002,0.122 0.001,0.183 0.008,0.166 0.009,0.331 0.003,0.497 -0.004,0.121 -0.009,0.242 -0.02,0.362 -0.015,0.162 -0.041,0.321 -0.068,0.48 -0.021,0.119 -0.041,0.238 -0.068,0.355 -0.038,0.159 -0.088,0.313 -0.139,0.468 -0.036,0.111 -0.068,0.223 -0.111,0.332 -0.063,0.157 -0.137,0.308 -0.212,0.46 -0.05,0.099 -0.093,0.2 -0.148,0.297 -0.086,0.152 -0.187,0.297 -0.287,0.442 -0.059,0.087 -0.113,0.178 -0.178,0.262 -0.109,0.143 -0.235,0.275 -0.359,0.41 -0.069,0.075 -0.132,0.156 -0.205,0.227 -0.007,0.007 -0.013,0.015 -0.02,0.022 -0.028,0.027 -0.062,0.046 -0.09,0.072 -0.222,0.206 -0.461,0.395 -0.715,0.567 -0.095,0.064 -0.192,0.122 -0.289,0.18 -0.098,0.059 -0.189,0.128 -0.29,0.181 l -79.58,41.706 c -0.467,0.412 -0.993,0.763 -1.58,1.017 l -2.059,0.891 -4.176,2.188 c -0.868,0.455 -1.825,0.686 -2.785,0.686 -0.674,0 -1.349,-0.114 -1.997,-0.342 l -4.338,-1.531 c -1.135,-0.401 -2.094,-1.123 -2.79,-2.044 -0.273,-0.209 -0.536,-0.438 -0.775,-0.698 l -4.465,-4.848 c -0.815,-0.885 -1.328,-1.982 -1.509,-3.143 -0.092,-0.144 -0.203,-0.276 -0.283,-0.429 l -2.679,-5.103 c -0.565,-1.075 -0.771,-2.246 -0.66,-3.373 -0.014,-0.031 -0.032,-0.061 -0.046,-0.093 l -2.058,-4.902 c -0.317,-0.754 -0.454,-1.538 -0.455,-2.314 -0.251,-0.407 -0.459,-0.845 -0.609,-1.311 l -1.764,-5.49 c -0.223,-0.694 -0.305,-1.403 -0.274,-2.1 l -2.634,-5.926 c -0.37,-0.833 -0.513,-1.709 -0.493,-2.572 -0.02,-0.044 -0.044,-0.085 -0.063,-0.13 l -2.058,-5 c -0.394,-0.956 -0.515,-1.963 -0.407,-2.937 l -2.353,-4.704 c -0.023,-0.046 -0.033,-0.094 -0.055,-0.141 l -2.143,-1.143 c -0.163,0.027 -0.324,0.059 -0.49,0.072 l -6.176,0.491 c -0.16,0.012 -0.319,0.019 -0.478,0.019 -0.181,0 -0.358,-0.026 -0.537,-0.042 -0.339,0.075 -0.683,0.131 -1.033,0.147 l -5.741,0.255 c -0.09,0.004 -0.179,0.006 -0.269,0.006 -0.124,0 -0.245,-0.022 -0.368,-0.029 -0.532,0.167 -1.085,0.268 -1.649,0.282 0,0 -5.205,0.13 -5.254,0.13 -0.073,0 -0.142,-0.015 -0.214,-0.017 -0.794,0.404 -1.671,0.63 -2.569,0.652 0,0 -5.205,0.13 -5.255,0.13 -0.453,0 -0.893,-0.068 -1.322,-0.165 -0.155,0.012 -0.308,0.037 -0.464,0.037 -0.678,0 -1.36,-0.114 -2.017,-0.349 l -5.359,-1.914 c -1.446,-0.516 -2.604,-1.564 -3.293,-2.886 -1.053,-0.484 -1.958,-1.262 -2.583,-2.264 l -3.19,-5.103 c -1.61,-2.576 -1.04,-5.949 1.326,-7.854 l 28.322,-22.792 c -0.012,-0.941 -0.135,-1.793 -0.435,-2.33 -0.089,-0.159 -0.173,-0.31 -0.698,-0.454 -1.514,-0.414 -3.16,-0.798 -4.903,-1.204 -8.387,-1.956 -19.873,-4.633 -19.302,-14.539 0.096,-1.672 0.888,-3.229 2.183,-4.292 1.079,-0.886 2.427,-1.362 3.807,-1.362 0.275,0 0.552,0.019 0.827,0.057 l 41.344,5.757 24.002,-19.315 c 0.005,-0.005 0.01,-0.007 0.015,-0.011 0.243,-0.195 0.505,-0.367 0.779,-0.523 0.033,-0.02 0.066,-0.04 0.1,-0.058 0.266,-0.145 0.543,-0.27 0.832,-0.374 0.039,-0.014 0.079,-0.026 0.119,-0.04 0.036,-0.011 0.07,-0.024 0.105,-0.035 0.537,-0.801 1.16,-1.575 1.891,-2.306 2.054,-2.053 4.834,-3.184 7.827,-3.184 2.963,0 5.903,1.126 8.357,3.121 l 5.798,-4.234 c -0.218,-3.578 0.847,-6.393 2.146,-8.794 0.105,-0.504 0.068,-1.719 -0.081,-2.533 -0.04,-0.206 -0.069,-0.415 -0.088,-0.624 -0.383,-4.417 -8.515,-6.151 -10.88,-6.408 -4.431,-0.184 -17.849,-1.537 -18.696,-11.052 -0.244,-2.741 0.565,-5.282 2.279,-7.153 1.348,-1.475 3.906,-3.233 8.429,-3.233 1.744,0 3.148,0.263 3.32,0.299 l 35.224,6.477 c 39.163,4.825 41.628,9.417 42.952,11.885 1.075,2.002 1.113,4.307 0.104,6.324 -1.187,2.372 -4.295,6.352 -11.782,6.352 -2.042,0 -3.773,-0.302 -4.612,-0.48 l -17.438,-1.857 -0.166,0.069 c -0.409,0.926 -0.767,2.441 0.082,4.138 3.919,7.837 0.949,15.464 -0.209,17.892 -0.059,0.247 -0.106,0.516 -0.135,0.767 8.015,2.049 14.677,13.374 16.589,16.92 0.184,0.34 0.333,0.696 0.447,1.064 l 5.331,17.127 0.323,0.904 0.438,0.931 c 0.25,0.532 0.396,1.088 0.482,1.646 l 1.236,3.465 1.941,5.033 c 0.165,0.43 0.261,0.872 0.324,1.315 l 1.773,4.966 1.189,2.883 c 0.206,0.499 0.321,1.015 0.386,1.532 l 1.286,3.602 c 0.368,-0.023 0.75,-0.036 1.143,-0.036 0.442,0 0.916,0.015 1.421,0.048 6.741,0.44 10.674,5.33 11.535,9.775 C 1.774,-8.737 2.515,-4.209 0,0"
               style="fill:#ffffff;fill-opacity:1;fill-rule:nonzero;stroke:none"
               id="path2946" />
          </g>
          <g
             id="g2948"
             transform="translate(919.8193,7657.7114)">
            <path
               d="m 0,0 c 0,0 3.705,-12.158 -4.748,-14.474 -8.452,-2.316 -20.147,-3.589 -19.799,-9.61 l 45.736,6.368 z"
               style="fill:#0f3572;fill-opacity:1;fill-rule:nonzero;stroke:none"
               id="path2950" />
          </g>
          <g
             id="g2952"
             transform="translate(923.8721,7649.2588)">
            <path
               d="m 0,0 c 0.325,-1.033 0.287,-2.192 -0.063,-3.255 -0.335,-1.076 -1.002,-2.034 -1.815,-2.803 -0.813,-0.787 -1.821,-1.294 -2.826,-1.718 -0.516,-0.18 -1.042,-0.328 -1.564,-0.462 -0.541,-0.073 -1.07,-0.172 -1.606,-0.215 0.49,0.24 0.987,0.422 1.471,0.631 l 1.413,0.68 c 0.887,0.527 1.793,1.023 2.505,1.738 C -1.006,-4.055 -0.063,-2.155 0,0"
               style="fill:#ffffff;fill-opacity:1;fill-rule:nonzero;stroke:none"
               id="path2954" />
          </g>
          <g
             id="g2956"
             transform="translate(912.9878,7640.2271)">
            <path
               d="m 0,0 c -2.591,-0.625 -5.176,-1.105 -7.726,-1.709 -1.274,-0.294 -2.539,-0.623 -3.767,-1.035 -0.61,-0.213 -1.217,-0.441 -1.782,-0.744 -0.572,-0.291 -1.099,-0.675 -1.431,-1.259 0.142,0.669 0.67,1.2 1.192,1.625 0.547,0.416 1.147,0.745 1.762,1.024 1.231,0.567 2.525,0.942 3.823,1.257 C -5.324,-0.253 -2.669,0.072 0,0"
               style="fill:#ffffff;fill-opacity:1;fill-rule:nonzero;stroke:none"
               id="path2958" />
          </g>
          <g
             id="g2960"
             transform="translate(979.7051,7619.4331)">
            <path
               d="M 0,0 14.59,-10.652 21.537,-0.347 17.368,7.295 4.632,9.147 0.811,7.758 -0.811,5.905 Z"
               style="fill:#181a19;fill-opacity:1;fill-rule:nonzero;stroke:none"
               id="path2962" />
          </g>
          <g
             id="g2964"
             transform="translate(980.6055,7623.7021)">
            <path
               d="m 0,0 c 0,0 1.027,-4.111 -1.827,-7.309 -2.856,-3.197 -6.967,-3.654 -9.25,-1.37 -2.284,2.284 -3.883,5.824 0.57,10.278 4.454,4.453 10.164,4.225 10.164,4.225 l 12.562,0.457 c 0,0 24.437,-5.253 28.092,3.54 3.654,8.793 17.471,49.332 17.471,49.332 l 5.253,14.731 c 0,0 1.942,3.883 8.907,2.17 6.966,-1.713 5.14,-8.793 5.14,-8.793 0,0 -0.8,-4.682 -6.053,-5.025 -5.253,-0.342 -5.71,1.942 -5.71,1.942 L 53.786,31.86 48.419,14.617 c 0,0 -7.081,-13.133 -13.247,-14.046 -6.167,-0.914 -3.54,-8.679 -3.54,-8.679 0,0 3.654,-6.623 0.457,-13.018 -3.198,-6.395 1.256,-11.648 1.256,-11.648 l 3.311,-1.371 19.299,2.056 c 0,0 7.766,1.942 10.05,-2.626 2.283,-4.568 -38.599,-9.593 -38.599,-9.593 l -35.4,-6.509 c 0,0 -7.423,-1.485 -6.966,3.654 0.457,5.139 13.133,5.596 13.133,5.596 0,0 15.53,1.37 16.443,11.876 0,0 0.8,4.111 -0.456,6.395 -1.257,2.284 -3.198,5.824 1.256,13.361 C 19.869,-2.398 9.249,5.596 0,0"
               style="fill:#194487;fill-opacity:1;fill-rule:nonzero;stroke:none"
               id="path2966" />
          </g>
          <g
             id="g2968"
             transform="translate(1049.459,7702.2886)">
            <path
               d="m 0,0 -7.073,-4.675 -4.914,-9.23 -17.622,-47.71 c 0,0 -2.877,-5.634 -5.994,-7.312 -3.117,-1.678 -34.043,0.839 -34.043,0.839 0,0 -13.067,-2.517 -17.742,-9.709 l -1.798,2.517 c 0,0 4.915,8.031 17.742,8.751 12.826,0.719 29.967,-0.6 29.967,-0.6 0,0 4.915,0.12 8.392,6.953 3.476,6.833 20.498,55.861 20.498,55.861 l 8.151,6.233 z"
               style="fill:#194487;fill-opacity:1;fill-rule:nonzero;stroke:none"
               id="path2970" />
          </g>
          <g
             id="g2972"
             transform="translate(1011.6982,7723.1465)">
            <path
               d="m 0,0 -7.072,-4.675 -4.915,-9.23 -17.621,-47.71 c 0,0 -2.877,-5.634 -5.994,-7.312 -3.117,-1.678 -33.924,-0.12 -33.924,-0.12 0,0 -7.073,0.24 -13.186,-4.914 l -2.997,2.277 c 0,0 1.438,4.435 14.265,5.155 12.826,0.719 29.968,-0.6 29.968,-0.6 0,0 4.915,0.12 8.391,6.953 3.477,6.833 20.499,55.861 20.499,55.861 l 8.151,6.233 z"
               style="fill:#194487;fill-opacity:1;fill-rule:nonzero;stroke:none"
               id="path2974" />
          </g>
          <g
             id="g2976"
             transform="translate(974.7773,7744.0044)">
            <path
               d="m 0,0 -7.072,-4.675 -4.915,-9.23 -17.621,-47.71 c 0,0 -2.877,-5.634 -5.994,-7.312 -3.117,-1.678 -33.924,-0.12 -33.924,-0.12 0,0 -3.476,-0.599 -6.593,-1.318 l -2.997,2.277 c 0,0 -5.155,0.839 7.672,1.559 12.826,0.719 29.968,-0.6 29.968,-0.6 0,0 4.915,0.12 8.392,6.953 3.476,6.833 20.498,55.861 20.498,55.861 l 8.151,6.233 z"
               style="fill:#194487;fill-opacity:1;fill-rule:nonzero;stroke:none"
               id="path2978" />
          </g>
          <g
             id="g2980"
             transform="translate(1050.1758,7699.688)">
            <path
               d="m 0,0 5.358,1.786 -87.393,45.802 -4.338,-1.531 z"
               style="fill:#5cb9e4;fill-opacity:1;fill-rule:nonzero;stroke:none"
               id="path2982" />
          </g>
          <g
             id="g2984"
             transform="translate(1049.5381,7697.6465)">
            <path
               d="m 0,0 -5.104,-5.103 -86.245,47.206 4.465,4.848 z"
               style="fill:#5cb9e4;fill-opacity:1;fill-rule:nonzero;stroke:none"
               id="path2986" />
          </g>
          <g
             id="g2988"
             transform="translate(1044.1797,7689.4814)">
            <path
               d="m 0,0 -2.807,-6.251 -86.756,49.119 2.679,5.103 z"
               style="fill:#5cb9e4;fill-opacity:1;fill-rule:nonzero;stroke:none"
               id="path2990" />
          </g>
          <g
             id="g2992"
             transform="translate(890.0601,7679.2749)">
            <path
               d="m 0,0 3.189,5.103 75.784,-58.815 -3.827,-6.762 z"
               style="fill:#5cb9e4;fill-opacity:1;fill-rule:nonzero;stroke:none"
               id="path2994" />
          </g>
          <g
             id="g2996"
             transform="translate(896.0562,7687.0571)">
            <path
               d="m 0,0 5.359,1.914 76.167,-57.923 -6.38,-3.062 z"
               style="fill:#5cb9e4;fill-opacity:1;fill-rule:nonzero;stroke:none"
               id="path2998" />
          </g>
          <g
             id="g3000"
             transform="translate(903.2012,7689.0986)">
            <path
               d="m 0,0 5.103,-0.127 78.718,-57.03 -7.144,-0.765 z"
               style="fill:#5cb9e4;fill-opacity:1;fill-rule:nonzero;stroke:none"
               id="path3002" />
          </g>
          <g
             id="g3004"
             transform="translate(911.2388,7688.333)">
            <path
               d="m 0,0 5.103,-0.127 79.356,-57.413 -7.144,1.021 z"
               style="fill:#5cb9e4;fill-opacity:1;fill-rule:nonzero;stroke:none"
               id="path3006" />
          </g>
          <g
             id="g3008"
             transform="translate(918.5107,7687.9502)">
            <path
               d="m 0,0 5.741,-0.255 79.357,-57.157 -6.379,0.255 z"
               style="fill:#5cb9e4;fill-opacity:1;fill-rule:nonzero;stroke:none"
               id="path3010" />
          </g>
          <g
             id="g3012"
             transform="translate(926.0918,7687.584)">
            <path
               d="m 0,0 6.177,-0.49 79.901,-56.667 -6.47,-0.196 z"
               style="fill:#5cb9e4;fill-opacity:1;fill-rule:nonzero;stroke:none"
               id="path3014" />
          </g>
          <g
             id="g3016"
             transform="translate(934.7192,7686.9961)">
            <path
               d="m 0,0 4.412,2.353 81.569,-57.059 -6.177,-2.451 z"
               style="fill:#5cb9e4;fill-opacity:1;fill-rule:nonzero;stroke:none"
               id="path3018" />
          </g>
          <g
             id="g3020"
             transform="translate(940.7979,7691.604)">
            <path
               d="M 0,0 2.353,4.706 85.49,-50.785 82.941,-56.079 Z"
               style="fill:#5cb9e4;fill-opacity:1;fill-rule:nonzero;stroke:none"
               id="path3022" />
          </g>
          <g
             id="g3024"
             transform="translate(943.7388,7699.6431)">
            <path
               d="m 0,0 2.059,5 84.216,-54.51 -2.844,-5.784 z"
               style="fill:#5cb9e4;fill-opacity:1;fill-rule:nonzero;stroke:none"
               id="path3026" />
          </g>
          <g
             id="g3028"
             transform="translate(949.0332,7713.3687)">
            <path
               d="m 0,0 -2.745,-6.177 84.804,-53.333 2.548,5.49 z"
               style="fill:#5cb9e4;fill-opacity:1;fill-rule:nonzero;stroke:none"
               id="path3030" />
          </g>
          <g
             id="g3032"
             transform="translate(954.1313,7729.3491)">
            <path
               d="m 0,0 -2.059,-4.902 85.784,-51.667 2.451,5.784 z"
               style="fill:#5cb9e4;fill-opacity:1;fill-rule:nonzero;stroke:none"
               id="path3034" />
          </g>
          <g
             id="g3036"
             transform="translate(951.1899,7721.3096)">
            <path
               d="m 0,0 -1.765,-5.49 84.511,-53.039 3.039,6.666 z"
               style="fill:#5cb9e4;fill-opacity:1;fill-rule:nonzero;stroke:none"
               id="path3038" />
          </g>
          <g
             id="g3040"
             transform="translate(1012.5898,7606.8701)">
            <path
               d="m 0,0 c 0,-4.828 -3.811,-8.742 -8.511,-8.742 -4.7,0 -8.51,3.914 -8.51,8.742 0,4.828 3.81,8.742 8.51,8.742 C -3.811,8.742 0,4.828 0,0"
               style="fill:#0f3572;fill-opacity:1;fill-rule:nonzero;stroke:none"
               id="path3042" />
          </g>
          <g
             id="g3044"
             transform="translate(976.1299,7625.8579)">
            <path
               d="m 0,0 c 2.42,-0.961 3.501,-3.956 2.415,-6.688 -1.086,-2.732 -3.928,-4.167 -6.347,-3.206 -2.42,0.961 -3.501,3.956 -2.415,6.688 C -5.261,-0.474 -2.419,0.961 0,0"
               style="fill:#0f3572;fill-opacity:1;fill-rule:nonzero;stroke:none"
               id="path3046" />
          </g>
          <g
             id="g3048"
             transform="translate(1000.3154,7596.2754)">
            <path
               d="m 0,0 c 0.178,-3.062 -0.887,-6.126 -2.562,-8.717 -1.694,-2.615 -4.158,-4.642 -6.798,-6.214 -1.309,-0.837 -2.76,-1.373 -4.166,-1.997 -0.703,-0.318 -1.457,-0.486 -2.182,-0.736 -0.733,-0.226 -1.461,-0.478 -2.207,-0.649 -1.507,-0.28 -2.999,-0.625 -4.508,-0.849 -1.523,-0.135 -3.039,-0.3 -4.556,-0.406 1.496,0.308 2.993,0.558 4.481,0.838 1.482,0.308 2.939,0.725 4.405,1.081 1.423,0.495 2.873,0.917 4.266,1.476 1.36,0.633 2.765,1.182 4.014,2.01 2.599,1.463 4.946,3.409 6.689,5.835 0.845,1.223 1.634,2.511 2.129,3.931 C -0.444,-3.002 -0.086,-1.52 0,0"
               style="fill:#ffffff;fill-opacity:1;fill-rule:nonzero;stroke:none"
               id="path3050" />
          </g>
          <g
             id="g3052"
             transform="translate(980.9785,7625.3389)">
            <path
               d="m 0,0 c 1.822,0.918 3.794,1.534 5.825,1.884 2.026,0.342 4.17,0.377 6.208,-0.271 1.008,-0.336 1.974,-0.853 2.781,-1.563 0.799,-0.716 1.452,-1.589 1.889,-2.551 0.848,-1.94 1.065,-4.042 0.898,-6.068 -0.201,2.019 -0.602,4.027 -1.512,5.76 -0.943,1.71 -2.479,3.005 -4.332,3.574 C 9.916,1.375 7.895,1.38 5.915,1.207 3.928,1.006 1.95,0.573 0,0"
               style="fill:#ffffff;fill-opacity:1;fill-rule:nonzero;stroke:none"
               id="path3054" />
          </g>
          <g
             id="g3056"
             transform="translate(1011.4316,7591.5278)">
            <path
               d="m 0,0 c 0.409,-2.183 2.082,-3.806 3.957,-4.691 1.905,-0.908 4.046,-1.223 6.172,-1.362 2.141,-0.073 4.298,0.032 6.449,0.278 2.16,0.2 4.291,0.624 6.464,0.912 -1.04,-0.333 -2.098,-0.61 -3.151,-0.918 C 18.839,-6.093 17.747,-6.225 16.672,-6.456 14.514,-6.865 12.3,-7 10.084,-6.944 7.882,-6.779 5.614,-6.423 3.637,-5.295 L 2.912,-4.859 C 2.681,-4.7 2.472,-4.503 2.252,-4.328 1.797,-3.992 1.45,-3.531 1.091,-3.104 0.447,-2.185 0.012,-1.101 0,0"
               style="fill:#ffffff;fill-opacity:1;fill-rule:nonzero;stroke:none"
               id="path3058" />
          </g>
          <g
             id="g3060"
             transform="translate(971.2021,7627.9863)">
            <path
               d="M 0,0 0.981,-2.481 7.033,0.312 6.38,3.062 Z"
               style="fill:#0f3572;fill-opacity:1;fill-rule:nonzero;stroke:none"
               id="path3062" />
          </g>
          <g
             id="g3064"
             transform="translate(969.0332,7625.5625)">
            <path
               d="m 0,0 1.754,-2.185 -2.66,-4.789 -2.921,0.212"
               style="fill:#0f3572;fill-opacity:1;fill-rule:nonzero;stroke:none"
               id="path3066" />
          </g>
          <g
             id="g3068"
             transform="translate(979.8779,7631.1763)">
            <path
               d="m 0,0 v -2.346 l 6.87,0.533 0.275,2.578 z"
               style="fill:#0f3572;fill-opacity:1;fill-rule:nonzero;stroke:none"
               id="path3070" />
          </g>
          <g
             id="g3072"
             transform="translate(997.2295,7630.7935)">
            <path
               d="m 0,0 -0.373,-3.093 6.384,-0.599 0.368,3.437 z"
               style="fill:#0f3572;fill-opacity:1;fill-rule:nonzero;stroke:none"
               id="path3074" />
          </g>
          <g
             id="g3076"
             transform="translate(988.1445,7629.1631)">
            <path
               d="M 0,0 7.183,-0.931 7.554,1.63 0.409,2.651 Z"
               style="fill:#0f3572;fill-opacity:1;fill-rule:nonzero;stroke:none"
               id="path3078" />
          </g>
          <g
             id="g3080"
             transform="translate(1005.7002,7630.2314)">
            <path
               d="M 0,0 -0.398,-2.997 5.986,-3.13 6.47,0.196 Z"
               style="fill:#0f3572;fill-opacity:1;fill-rule:nonzero;stroke:none"
               id="path3082" />
          </g>
          <g
             id="g3084"
             transform="translate(1014.5234,7629.8389)">
            <path
               d="m 0,0 1.419,-2.405 4.723,2.062 0.035,2.794 z"
               style="fill:#0f3572;fill-opacity:1;fill-rule:nonzero;stroke:none"
               id="path3086" />
          </g>
          <g
             id="g3088"
             transform="translate(1023.7393,7635.5254)">
            <path
               d="M 0,0 2.459,-0.119 4.166,3.637 2.549,5.294 Z"
               style="fill:#0f3572;fill-opacity:1;fill-rule:nonzero;stroke:none"
               id="path3090" />
          </g>
          <g
             id="g3092"
             transform="translate(1027.1699,7644.3486)">
            <path
               d="M 0,0 2.291,-0.407 4.453,4.107 2.844,5.785 Z"
               style="fill:#0f3572;fill-opacity:1;fill-rule:nonzero;stroke:none"
               id="path3094" />
          </g>
          <g
             id="g3096"
             transform="translate(1031.0918,7653.8589)">
            <path
               d="M 0,0 2.2,-0.321 4.324,4.193 2.549,5.49 Z"
               style="fill:#0f3572;fill-opacity:1;fill-rule:nonzero;stroke:none"
               id="path3098" />
          </g>
          <g
             id="g3100"
             transform="translate(1033.9355,7662.7803)">
            <path
               d="M 0,0 2.922,-0.29 4.97,5.02 3.039,6.667 Z"
               style="fill:#0f3572;fill-opacity:1;fill-rule:nonzero;stroke:none"
               id="path3102" />
          </g>
          <g
             id="g3104"
             transform="translate(1037.8564,7672.7803)">
            <path
               d="M 0,0 2.414,-0.466 4.387,4.313 2.451,5.784 Z"
               style="fill:#0f3572;fill-opacity:1;fill-rule:nonzero;stroke:none"
               id="path3106" />
          </g>
          <g
             id="g3108"
             transform="translate(1044.1797,7689.4814)">
            <path
               d="m 0,0 1.743,-1.312 -2.162,-5.007 -2.388,0.068 z"
               style="fill:#0f3572;fill-opacity:1;fill-rule:nonzero;stroke:none"
               id="path3110" />
          </g>
          <g
             id="g3112"
             transform="translate(1044.4346,7692.5435)">
            <path
               d="M 0,0 2.058,-1.112 5.736,3.023 5.104,5.103 Z"
               style="fill:#0f3572;fill-opacity:1;fill-rule:nonzero;stroke:none"
               id="path3114" />
          </g>
          <g
             id="g3116"
             transform="translate(1050.1758,7699.688)">
            <path
               d="m 0,0 -0.156,-1.58 4.968,1.517 0.546,1.849 z"
               style="fill:#0f3572;fill-opacity:1;fill-rule:nonzero;stroke:none"
               id="path3118" />
          </g>
          <g
             id="g3120"
             transform="translate(103.7231,7495.918)" />
          <g
             id="g3124"
             transform="translate(93.5103,7488.8984)" />
        </g>
      </g>
    </g>
  </g>
</svg>
