<?xml version="1.0" encoding="UTF-8" standalone="no"?>
<!-- Created with Inkscape (http://www.inkscape.org/) -->

<svg
   width="678mm"
   height="165mm"
   viewBox="0 0 678 165"
   version="1.1"
   id="svg5"
   inkscape:version="1.1.2 (b8e25be833, 2022-02-05)"
   sodipodi:docname="decoracion2.svg"
   xmlns:inkscape="http://www.inkscape.org/namespaces/inkscape"
   xmlns:sodipodi="http://sodipodi.sourceforge.net/DTD/sodipodi-0.dtd"
   xmlns="http://www.w3.org/2000/svg"
   xmlns:svg="http://www.w3.org/2000/svg">
  <sodipodi:namedview
     id="namedview7"
     pagecolor="#505050"
     bordercolor="#eeeeee"
     borderopacity="1"
     inkscape:pageshadow="0"
     inkscape:pageopacity="0"
     inkscape:pagecheckerboard="0"
     inkscape:document-units="mm"
     showgrid="false"
     inkscape:zoom="0.14498632"
     inkscape:cx="1686.366"
     inkscape:cy="255.19649"
     inkscape:window-width="1600"
     inkscape:window-height="837"
     inkscape:window-x="-8"
     inkscape:window-y="-8"
     inkscape:window-maximized="1"
     inkscape:current-layer="layer1" />
  <defs
     id="defs2">
    <clipPath
       clipPathUnits="userSpaceOnUse"
       id="clipPath3286-1">
      <path
         d="M 0,7942.213 H 1920 V 0 H 0 Z"
         id="path3284-9" />
    </clipPath>
    <clipPath
       clipPathUnits="userSpaceOnUse"
       id="clipPath3298-9">
      <path
         d="m 1347.16,921.597 h 583.66 v -463.33 h -583.66 z"
         id="path3296-2" />
    </clipPath>
    <clipPath
       clipPathUnits="userSpaceOnUse"
       id="clipPath3314-2">
      <path
         d="m 1247.16,921.597 h 683.66 v -463.33 h -683.66 z"
         id="path3312-4" />
    </clipPath>
    <clipPath
       clipPathUnits="userSpaceOnUse"
       id="clipPath3330-4">
      <path
         d="M 945.373,921.597 H 1219.7 V 458.267 H 945.373 Z"
         id="path3328-9" />
    </clipPath>
    <clipPath
       clipPathUnits="userSpaceOnUse"
       id="clipPath3286">
      <path
         d="M 0,7942.213 H 1920 V 0 H 0 Z"
         id="path3284" />
    </clipPath>
    <clipPath
       clipPathUnits="userSpaceOnUse"
       id="clipPath3298">
      <path
         d="m 1347.16,921.597 h 583.66 v -463.33 h -583.66 z"
         id="path3296" />
    </clipPath>
    <clipPath
       clipPathUnits="userSpaceOnUse"
       id="clipPath3314">
      <path
         d="m 1247.16,921.597 h 683.66 v -463.33 h -683.66 z"
         id="path3312" />
    </clipPath>
    <clipPath
       clipPathUnits="userSpaceOnUse"
       id="clipPath3330">
      <path
         d="M 945.373,921.597 H 1219.7 V 458.267 H 945.373 Z"
         id="path3328" />
    </clipPath>
  </defs>
  <g
     inkscape:label="Capa 1"
     inkscape:groupmode="layer"
     id="layer1">
    <g
       id="g3280"
       transform="matrix(0.35277777,0,0,-0.35277777,0.10887058,325.15133)"
       style="display:inline">
      <g
         id="g3282"
         clip-path="url(#clipPath3286)">
        <g
           id="g3288"
           transform="translate(525.9653,524.33)">
          <path
             d="m 0,0 h -26.14 c -0.13,0.439 -0.32,0.88 -0.54,1.29 l 18.23,18.22 c 0.83,-0.391 1.74,-0.611 2.7,-0.611 0.66,0 1.31,0.101 1.9,0.29 C -0.47,14.54 1.83,9.06 2.72,3.13 1.51,2.42 0.54,1.319 0,0 m -2.46,-21.801 c -1.49,-1.439 -2.93,-2.8 -4.32,-4.08 L -26.68,-6 c 0.22,0.399 0.41,0.84 0.54,1.279 h 26.06 c 0.52,-1.38 1.5,-2.569 2.77,-3.309 -0.78,-5 -2.57,-9.651 -5.15,-13.771 m -15.6,-13.849 c -2.14,-1 -4.37,-1.81 -6.71,-2.39 v 4.029 h -6.57 V -9.91 c 0.45,0.149 0.91,0.34 1.33,0.559 l 19.72,-19.71 c -2.89,-2.559 -5.49,-4.75 -7.77,-6.589 m -13.28,67.62 c 1.11,0.429 2.08,1.17 2.79,2.099 6.17,-0.859 11.83,-3.229 16.62,-6.75 -0.19,-0.609 -0.29,-1.259 -0.29,-1.939 0,-0.86 0.17,-1.71 0.49,-2.471 L -30.01,4.63 c -0.42,0.22 -0.88,0.41 -1.33,0.559 z m -26.6,-61.95 20.63,20.629 c 0.39,-0.2 0.81,-0.37 1.23,-0.509 v -29.201 c -2.6,0.17 -5.12,0.64 -7.54,1.321 v 2.069 h -5.58 c -3.18,1.49 -6.13,3.4 -8.74,5.691 m -3.35,3.349 c -4.63,5.28 -7.78,11.87 -8.79,19.16 0.83,0.741 1.45,1.67 1.83,2.75 h 27.07 c 0.15,-0.439 0.32,-0.88 0.54,-1.279 z m -1.86,46.24 c 0.49,-0.109 1,-0.179 1.54,-0.179 0.83,0 1.62,0.149 2.37,0.45 L -40.64,1.29 C -40.86,0.88 -41.05,0.439 -41.18,0 h -27.29 c -0.39,0.88 -0.97,1.64 -1.68,2.25 0.8,6.46 3.28,12.39 7,17.359 m 7.85,7.76 c 4.75,3.471 10.36,5.82 16.45,6.681 0.71,-0.931 1.66,-1.651 2.77,-2.08 V 5.14 c -0.42,-0.13 -0.84,-0.3 -1.23,-0.51 l -11.17,11.17 -7.3,7.3 c 0.41,0.839 0.65,1.809 0.65,2.82 0,0.51 -0.05,0.979 -0.17,1.449 M 1389.209,-13.7 v 86.91 h -4.059 v 3.75 h -7.82 v -3.75 h -5.94 V -13.7 h -15.63 V 3.8 h -0.631 v 4.689 h -16.25 V 27.56 h -16.259 v -6.25 h -3.13 V 8.489 h -0.62 V 3.8 h -3.44 v 6.88 h -14.69 V 3.8 h -4.38 v -9.691 h -5.941 V 35.06 h -4.069 v 4.69 h -13.44 v -4.69 h -7.19 V 14.739 h -5.31 v 4.38 h -8.76 v -4.38 h -10.941 V 0.05 h -4.689 v 10.319 h -4.061 v 5.941 h -8.129 v -5.941 h -7.5 V 0.05 h -3.76 v 2.809 h -6.87 v 4.38 h -2.821 V 11.93 H 1192.25 V 7.239 h -6.56 v -4.38 h -5.94 V -0.57 h -3.44 V -30.9 h -5.32 V 6.3 h -9.06 v -37.2 h -1.88 V 9.739 h -18.44 V -30.9 h -3.441 v 13.759 h -5.319 V 16.31 h -14.69 v -33.451 h -7.19 V -30.9 h -7.82 v 12.19 h -31.88 V -30.9 h -2.82 v 10 h -3.44 v 15.95 h -5.94 v 9.689 h -10.941 v 32.83 h -13.75 V 4.739 h -5.319 v -23.76 h -5 V 11.31 h -10.94 V 7.239 h -11.88 v -12.5 h -4.071 V 4.43 H 989.98 V 8.8 h -8.75 V -19.021 H 969.35 V 17.25 h -14.07 v -5.94 h -13.441 v -34.111 h -6.759 v -9.639 h -3.64 v 10.919 h -4.07 v 6.21 H 921.8 V -44.86 h -5.99 v 5.349 h -3.431 v 3 h -5.989 v -3 h -9.85 v -6.849 h -3.64 v 5.139 h -6.43 v 15.42 h -5.35 v 3.851 h -9.42 v -3.851 h -3.43 v -15.42 h -3.21 v -5.139 h -2.57 v 25.049 h -5.14 v 4.29 h -9.641 v -4.29 H 842.79 V -46.36 h -19.06 v 35.549 h -2.351 v 3.851 h -6.429 v -3.851 h -3.42 V -46.36 h -3.861 v 31.259 h -2.779 v 4.071 h -6.431 v -4.071 H 795.47 V -32.23 h -1.93 v 4.709 h -3 v -4.709 h -3.21 v 6 h -15.85 v -12.42 h -4.07 v 7.71 H 750.5 v -7.71 H 743 v 12.2 h -0.85 v 5.139 H 740 v 4.93 h -5.78 v -4.93 h -6.42 v -5.139 h -5.78 v -12.2 h -3.641 v 8.349 h -1.5 v 4.5 H 709.6 v -4.5 h -2.79 v -8.349 h -13.06 v 1.5 H 692.9 V 6.529 h -4.93 V 13.17 H 672.55 V 6.529 H 668.7 V -37.15 h -4.71 v 17.769 h -2.571 v 5.351 h -4.069 v -5.351 h -7.07 V -37.15 h -5.78 v 22.479 H 632.3 V -37.15 h -13.711 v 31.69 h -0.429 v 4.279 h -4.71 V -5.46 h -1.281 v 3 H 598.68 v -3 h -3.21 v -31.69 h -2.57 v 7.49 h -2.15 v 1.72 h -5.56 v -1.72 h -3.64 v -7.49 h -6.211 v 27.19 h -2.359 v 7.279 H 557.99 V -9.96 h -3.42 v -15.631 h -9.85 V 40.79 H 529.73 V -25.591 H 518.81 V -9.74 h -11.99 v 13.7 h -14.99 v -16.061 h -5.14 v 4.071 h -9.21 v -4.071 H 474.7 V 8.67 h -22.27 v -23.12 h -11.78 v -23.34 h -6.64 V -4.601 H 420.09 V -8.03 h -6.42 v -10.281 h -2.57 v 5.781 h -5.78 v 5.139 h -11.35 v -5.139 h -8.57 v -5.781 h -2.35 V -37.79 h -3.86 v 25.909 h -6.21 V -37.79 h -3.21 V -7.391 H 355.42 V -37.79 h -2.57 v 7.489 h -2.78 V -6.96 h -9.21 v -11.99 h -4.07 v -11.351 h -3.21 v -7.489 h -2.14 v 6.63 h -9.85 v 4.93 H 308.1 v -4.93 h -5.35 v -9.851 h -7.07 v 27.84 H 286.9 V 16.17 h -11.13 v -29.341 h -5.14 V -32.66 h -2.14 v 21.849 h -0.86 v 3.21 h -8.57 v -3.21 h -8.56 v -9.429 h -4.07 v 5.569 h -6.21 v 6 h -5.14 V -30.94 h -8.78 v 22.91 h -3.64 v 5.349 h -6.64 V -8.03 h -8.78 v -25.7 h -5.78 v -7.281 h -3.64 v 12 h -8.99 v -7.979 h -15.78 l -5.47,4.319 c 0.24,0.681 0.4,1.41 0.4,2.181 v 19.26 c 0,1.83 -0.78,3.469 -2.01,4.639 v 16.25 c 1.13,1.101 1.84,2.631 1.84,4.33 V 26.6 c 0,1.71 -0.71,3.24 -1.84,4.33 V 48.76 H 140.05 V 30.93 c -1.14,-1.09 -1.84,-2.62 -1.84,-4.33 V 13.989 c 0,-1.699 0.7,-3.229 1.84,-4.33 v -16.25 c -0.84,-0.79 -1.45,-1.809 -1.76,-2.949 l -21.8,17.21 c 0,0 -14.3,9.319 -32.42,14.64 v 9.179 H 70.5 V 25.26 c -4.83,0.649 -9.75,0.859 -14.59,0.41 V 40.399 H 49.68 V 24.689 C 40.86,22.72 32.56,18.159 25.85,9.649 19.58,1.71 13.55,-5.221 7.93,-11.23 c 0.19,0.919 0.39,1.839 0.53,2.78 2.36,0.96 4.02,3.29 4.02,5.979 0,2.691 -1.64,5.011 -3.99,5.991 v 0.009 c -1.01,7.33 -3.89,14.04 -8.13,19.67 v 0.011 c 0.25,0.68 0.39,1.409 0.39,2.17 0,3.58 -2.91,6.489 -6.5,6.489 -0.74,0 -1.47,-0.13 -2.13,-0.369 -5.61,4.279 -12.31,7.199 -19.61,8.25 -0.76,2.739 -3.25,4.729 -6.22,4.729 -2.98,0 -5.48,-2.009 -6.24,-4.75 -7.07,-1.03 -13.56,-3.82 -19.04,-7.889 -0.81,0.349 -1.69,0.559 -2.62,0.559 -3.58,0 -6.48,-2.91 -6.48,-6.479 0,-0.91 0.19,-1.78 0.53,-2.551 -4.28,-5.63 -7.19,-12.349 -8.22,-19.68 -2.92,-0.629 -5.1,-3.219 -5.1,-6.33 0,-3.139 2.23,-5.75 5.19,-6.339 1.68,-10.781 7.43,-20.191 15.59,-26.691 h -8.66 v 6.95 h -22.5 V -8.21 h -8.6 v -8.601 h -15.22 v 16.54 h -11.24 V 45.05 h -22.83 V -1.33 h 1.21 V -49.101 H -505.5 v 9.01 h -5.28 V 5.71 h -6.03 v 6.63 h -12.96 V -68.421 H 1404.839 V -13.7 Z"
             style="fill:#ffffff;fill-opacity:1;fill-rule:nonzero;stroke:none"
             id="path3290" />
        </g>
        <g
           id="g3292">
          <g
             id="g3294" />
          <g
             id="g3306">
            <g
               clip-path="url(#clipPath3298)"
               opacity="0.699997"
               id="g3304">
              <g
                 transform="translate(1521.4951,458.2675)"
                 id="g3302">
                <path
                   d="M 0,0 H 409.322 V 463.329 H 0 L -174.337,241.276 Z"
                   style="fill:#49aeda;fill-opacity:1;fill-rule:nonzero;stroke:none"
                   id="path3300" />
              </g>
            </g>
          </g>
        </g>
        <g
           id="g3308">
          <g
             id="g3310" />
          <g
             id="g3322">
            <g
               clip-path="url(#clipPath3314)"
               opacity="0.699997"
               id="g3320">
              <g
                 transform="translate(1421.4951,458.2675)"
                 id="g3318">
                <path
                   d="M 0,0 H 509.322 V 463.329 H 0 L -174.337,241.276 Z"
                   style="fill:#49aeda;fill-opacity:1;fill-rule:nonzero;stroke:none"
                   id="path3316" />
              </g>
            </g>
          </g>
        </g>
        <g
           id="g3324">
          <g
             id="g3326" />
          <g
             id="g3338">
            <g
               clip-path="url(#clipPath3330)"
               opacity="0.699997"
               id="g3336">
              <g
                 transform="translate(1045.373,699.537)"
                 id="g3334">
                <path
                   d="m 0,0 174.33,-241.27 h -100 L -100,0 74.33,222.061 h 100 z"
                   style="fill:#49aeda;fill-opacity:1;fill-rule:nonzero;stroke:none"
                   id="path3332" />
              </g>
            </g>
          </g>
        </g>
        <g
           id="g3340"
           transform="translate(1721.8115,898.7499)" />
        <g
           id="g3344"
           transform="translate(1593.6406,799.2802)" />
        <g
           id="g3348"
           transform="translate(1827.4688,642.8026)" />
        <g
           id="g3352"
           transform="translate(1700.9189,581.2577)" />
        <g
           id="g3356"
           transform="translate(1700.8008,584.7997)" />
        <g
           id="g3360"
           transform="translate(1640.1152,584.6229)" />
        <g
           id="g3364"
           transform="translate(1686.5146,592.7098)" />
        <g
           id="g3368"
           transform="translate(1683.2578,601.9257)" />
        <g
           id="g3372"
           transform="translate(1676.3613,611.3055)" />
        <g
           id="g3376"
           transform="translate(1638.8398,865.9178)" />
        <g
           id="g3380"
           transform="translate(1655.8564,871.8192)" />
        <g
           id="g3384"
           transform="translate(1643.7012,864.0887)" />
        <g
           id="g3388"
           transform="translate(1667.6055,862.4618)" />
        <g
           id="g3392"
           transform="translate(1643.7012,864.0887)" />
        <g
           id="g3396"
           transform="translate(1658.8574,848.4247)" />
        <g
           id="g3400"
           transform="translate(1658.2979,863.4784)" />
        <g
           id="g3404"
           transform="translate(1656.2432,888.3856)" />
        <g
           id="g3408"
           transform="translate(1643.1035,869.8153)" />
        <g
           id="g3412"
           transform="translate(1656.2432,888.3856)" />
        <g
           id="g3416"
           transform="translate(1660.1621,892.3954)" />
        <g
           id="g3420"
           transform="translate(1660.1621,893.5546)" />
        <g
           id="g3426"
           transform="translate(1658.3721,897.745)" />
        <g
           id="g3430"
           transform="translate(1655.5889,792.1239)" />
        <g
           id="g3434"
           transform="translate(1658.1514,780.1034)" />
        <g
           id="g3438"
           transform="translate(1665.9473,780.5653)" />
        <g
           id="g3442"
           transform="translate(1660.4453,780.3182)" />
        <g
           id="g3446"
           transform="translate(1662.751,780.2704)" />
        <g
           id="g3450"
           transform="translate(1653.1221,627.8602)" />
        <g
           id="g3454"
           transform="translate(1656.7119,690.9706)" />
        <g
           id="g3458"
           transform="translate(1656.168,658.7343)" />
        <g
           id="g3462"
           transform="translate(1656.3301,756.9237)" />
        <g
           id="g3466"
           transform="translate(1656.6084,723.8544)" />
        <g
           id="g3470"
           transform="translate(1657.5908,876.1932)" />
      </g>
    </g>
  </g>
</svg>
