<?xml version="1.0" encoding="utf-8"?>
<!-- Generator: Adobe Illustrator 24.0.2, SVG Export Plug-In . SVG Version: 6.00 Build 0)  -->
<svg version="1.1" id="Layer_1" xmlns="http://www.w3.org/2000/svg" xmlns:xlink="http://www.w3.org/1999/xlink" x="0px" y="0px"
	 viewBox="0 0 1866.2 458.3" style="enable-background:new 0 0 1866.2 458.3;" xml:space="preserve">
<style type="text/css">
	.st0{opacity:0.7;}
	.st1{fill:#49ADDA;}
	.st2{fill:#FFFFFF;}
	.st3{fill:#1B4687;}
	.st4{fill:#223970;}
	.st5{fill:#5EBAE5;}
	.st6{fill:#918F8B;}
	.st7{clip-path:url(#SVGID_4_);}
	.st8{fill:#7195C4;}
	.st9{fill:#E8E7E7;}
	.st10{clip-path:url(#SVGID_6_);}
	.st11{fill:#F0505C;}
	.st12{fill:#41488D;}
	.st13{fill:#FFD25B;}
	.st14{fill:#43498B;}
	.st15{fill:#80A33E;}
	.st16{fill:#5B4748;}
	.st17{fill:#D1CCB9;}
	.st18{fill:#ECC1A1;}
	.st19{fill:#D69180;}
	.st20{clip-path:url(#SVGID_12_);}
	.st21{fill:#FBBA80;}
	.st22{fill:#84664C;}
	.st23{fill:#AE825B;}
	.st24{fill:#D2D1D5;}
	.st25{fill:#888187;}
	.st26{clip-path:url(#SVGID_14_);}
	.st27{fill:#7AAFDE;}
	.st28{fill:#E2E4EC;}
	.st29{fill:#008C66;}
	.st30{fill:#5E90CB;}
	.st31{fill:#181A19;}
</style>
<g>
	<defs>
		<rect id="SVGID_1_" x="-4.7" y="-1.9" width="1934.3" height="464.1"/>
	</defs>
	<clipPath id="SVGID_2_">
		<use xlink:href="#SVGID_1_"  style="overflow:visible;"/>
	</clipPath>
	<g style="clip-path:url(#SVGID_2_);">
		
			<image style="overflow:visible;" width="940" height="636" xlink:href="IMAGENES/guayaquil-ciudad.jpg"  transform="matrix(2.0609 0 0 2.0609 -5.0498 -306.8641)">
		</image>
	</g>
</g>
<g class="st0">
	<g>
		<polygon class="st1" points="1522.3,459.3 1931.6,459.3 1931.6,-4 1522.3,-4 1347.9,218.1 		"/>
	</g>
</g>
<g>
	<path class="st2" d="M173.2,133.6v-8.3l16-44.5h-14.9V70.3h28.2v9.5l-15.5,43.4h15.6v10.5H173.2z"/>
	<path class="st2" d="M237.7,101.9c0,5.9-0.2,10.9-0.7,15c-0.4,4.1-1.3,7.5-2.5,10.1c-1.2,2.6-2.9,4.5-5,5.6
		c-2.1,1.2-4.8,1.8-8.1,1.8c-3.3,0-5.9-0.6-8-1.8c-2.1-1.2-3.7-3.1-4.8-5.6c-1.2-2.6-2-5.9-2.4-10.1c-0.4-4.1-0.7-9.1-0.7-15
		c0-5.6,0.2-10.5,0.6-14.5c0.4-4.1,1.2-7.4,2.4-10.1c1.2-2.6,2.8-4.6,4.9-5.9c2.1-1.3,4.8-1.9,8.1-1.9c3.4,0,6.1,0.6,8.3,1.9
		c2.1,1.2,3.8,3.2,4.9,5.8c1.2,2.6,1.9,6,2.4,10.1C237.5,91.4,237.7,96.3,237.7,101.9z M226,101.9c0-4.7-0.1-8.5-0.2-11.4
		c-0.1-2.9-0.4-5.1-0.7-6.7c-0.4-1.6-0.8-2.6-1.4-3.1c-0.6-0.5-1.3-0.8-2.2-0.8c-0.9,0-1.6,0.3-2.2,1c-0.6,0.7-1,1.8-1.3,3.5
		c-0.3,1.7-0.5,3.9-0.7,6.7c-0.1,2.8-0.2,6.5-0.2,10.9c0,4.7,0.1,8.4,0.2,11.3c0.1,2.9,0.3,5.1,0.7,6.7c0.3,1.6,0.8,2.7,1.3,3.2
		c0.6,0.5,1.3,0.8,2.1,0.8c0.9,0,1.6-0.3,2.2-1c0.6-0.6,1.1-1.8,1.4-3.5c0.4-1.7,0.6-3.9,0.8-6.7C226,109.9,226,106.3,226,101.9z"/>
	<path class="st2" d="M261.7,133.6l-9.4-38.3h-0.2v38.3h-10.4V70.3h12.1l9.1,37.4h0.2V70.3h10.4v63.3H261.7z"/>
	<path class="st2" d="M298.9,133.6l-1.7-13.1h-8.3l-1.5,13.1h-11.6l9.6-63.3h15.3l9.8,63.3H298.9z M292.8,82.1h-0.2l-3.2,28.9h6.9
		L292.8,82.1z"/>
	<path class="st2" d="M335.8,133.6l-0.4-5.6h-0.3c-1.2,2.3-2.6,3.9-4.1,4.9c-1.6,1-3.5,1.5-5.9,1.5c-2.5,0-4.6-0.6-6.3-1.9
		c-1.7-1.3-3-3.2-4-5.9c-1-2.7-1.7-6.1-2.2-10.2c-0.4-4.1-0.7-9.1-0.7-14.8c0-6.3,0.3-11.5,1-15.6c0.7-4.1,1.7-7.4,3.1-9.8
		c1.4-2.5,3.2-4.2,5.3-5.1c2.1-1,4.6-1.5,7.5-1.5c2.9,0,5.3,0.4,7.2,1.3c1.9,0.9,3.4,2.2,4.6,3.9c1.1,1.7,1.9,3.8,2.4,6.3
		c0.5,2.5,0.7,5.4,0.7,8.6h-9.9c-0.1-3.6-0.4-6.3-1.1-8.1c-0.7-1.8-1.9-2.7-3.8-2.7c-1.1,0-1.9,0.3-2.6,0.8
		c-0.7,0.5-1.2,1.6-1.7,3.2s-0.8,3.9-0.9,6.8c-0.2,3-0.3,6.9-0.3,11.7c0,4.9,0.1,8.9,0.3,12c0.2,3.1,0.5,5.5,0.8,7.1
		c0.4,1.7,0.9,2.8,1.6,3.4c0.6,0.6,1.4,0.9,2.4,0.9c0.8,0,1.6-0.2,2.2-0.7c0.6-0.4,1.2-1.2,1.6-2.4s0.8-2.7,1-4.7
		c0.2-2,0.4-4.5,0.4-7.7v-0.8h-5.8v-8.8h16.1v33.8H335.8z"/>
	<path class="st2" d="M378.5,118.3c0,5.6-1.2,9.7-3.7,12.3c-2.5,2.6-6.3,3.9-11.4,3.9c-2.8,0-5.1-0.3-7-0.9
		c-1.9-0.6-3.4-1.6-4.6-2.9c-1.2-1.3-2-3-2.5-5c-0.5-2-0.8-4.4-0.8-7.2V70.3H360v49.2c0,3.3,1.2,4.9,3.5,4.9c2.4,0,3.5-1.6,3.5-4.9
		V70.3h11.4V118.3z"/>
	<path class="st2" d="M403.6,133.6l-1.7-13.1h-8.3l-1.5,13.1h-11.6l9.6-63.3h15.3l9.8,63.3H403.6z M397.6,82.1h-0.2l-3.2,28.9h6.9
		L397.6,82.1z"/>
	<path class="st2" d="M419.8,133.6v-21.4l-12.1-42h12.7l5,26.5h0.1l5.5-26.5h12l-11.7,42v21.4H419.8z"/>
	<path class="st2" d="M458.6,133.6l-1.7-13.1h-8.3l-1.5,13.1h-11.6l9.6-63.3h15.3l9.8,63.3H458.6z M452.5,82.1h-0.2l-3.2,28.9h6.9
		L452.5,82.1z"/>
	<path class="st2" d="M502.7,110c-0.1,4.4-0.5,8.2-1,11.3c-0.6,3.1-1.5,5.6-2.7,7.6c-1.2,2-2.8,3.4-4.7,4.2
		c-1.9,0.9-4.3,1.3-7.1,1.3c-3.1,0-5.6-0.6-7.6-1.8c-2-1.2-3.6-3.1-4.7-5.7c-1.2-2.6-2-6-2.4-10.1c-0.5-4.1-0.7-9.1-0.7-14.9
		c0-5.9,0.3-10.8,0.8-14.9c0.5-4.1,1.4-7.4,2.7-10c1.3-2.6,3-4.4,5.1-5.6c2.1-1.2,4.7-1.8,7.9-1.8c2.8,0,5.2,0.4,7.1,1.3
		c1.9,0.9,3.3,2.2,4.4,4c1.1,1.8,1.9,4.1,2.3,6.8c0.4,2.7,0.7,5.9,0.7,9.6h-10.2c0-4.5-0.3-7.7-0.9-9.6c-0.6-1.9-1.7-2.8-3.3-2.8
		c-0.9,0-1.6,0.3-2.2,0.8c-0.6,0.6-1.1,1.7-1.5,3.3c-0.4,1.6-0.7,3.9-0.9,7c-0.2,3-0.3,7-0.3,11.9c0,4.8,0.1,8.7,0.2,11.7
		c0.1,3,0.4,5.4,0.8,7c0.4,1.7,0.8,2.8,1.4,3.4c0.6,0.6,1.3,0.9,2.1,0.9c0.8,0,1.4-0.2,2-0.6c0.5-0.4,1-1.2,1.4-2.3
		c0.4-1.1,0.7-2.6,0.9-4.5c0.2-1.9,0.3-4.3,0.4-7.4H502.7z"/>
	<path class="st2" d="M526.9,133.6l-1.7-13.1h-8.3l-1.5,13.1h-11.6l9.6-63.3h15.3l9.8,63.3H526.9z M520.8,82.1h-0.2l-3.2,28.9h6.9
		L520.8,82.1z"/>
	<path class="st2" d="M173.2,247.6v-8.3l16-44.5h-14.9v-10.5h28.2v9.5l-15.5,43.4h15.6v10.5H173.2z"/>
	<path class="st2" d="M237.7,215.9c0,5.9-0.2,10.9-0.7,15c-0.4,4.1-1.3,7.5-2.5,10.1c-1.2,2.6-2.9,4.5-5,5.6
		c-2.1,1.2-4.8,1.8-8.1,1.8c-3.3,0-5.9-0.6-8-1.8c-2.1-1.2-3.7-3.1-4.8-5.6c-1.2-2.6-2-5.9-2.4-10.1c-0.4-4.1-0.7-9.1-0.7-15
		c0-5.6,0.2-10.5,0.6-14.5c0.4-4.1,1.2-7.4,2.4-10.1c1.2-2.6,2.8-4.6,4.9-5.9c2.1-1.3,4.8-1.9,8.1-1.9c3.4,0,6.1,0.6,8.3,1.9
		c2.1,1.2,3.8,3.2,4.9,5.8c1.2,2.6,1.9,6,2.4,10.1C237.5,205.4,237.7,210.3,237.7,215.9z M226,215.9c0-4.7-0.1-8.5-0.2-11.4
		c-0.1-2.9-0.4-5.1-0.7-6.7c-0.4-1.6-0.8-2.6-1.4-3.1c-0.6-0.5-1.3-0.8-2.2-0.8c-0.9,0-1.6,0.3-2.2,1c-0.6,0.7-1,1.8-1.3,3.5
		c-0.3,1.7-0.5,3.9-0.7,6.7c-0.1,2.8-0.2,6.5-0.2,10.9c0,4.7,0.1,8.4,0.2,11.3c0.1,2.9,0.3,5.1,0.7,6.7c0.3,1.6,0.8,2.7,1.3,3.2
		c0.6,0.5,1.3,0.8,2.1,0.8c0.9,0,1.6-0.3,2.2-1c0.6-0.6,1.1-1.8,1.4-3.5c0.4-1.7,0.6-3.9,0.8-6.7C226,223.9,226,220.3,226,215.9z"/>
	<path class="st2" d="M261.7,247.6l-9.4-38.3h-0.2v38.3h-10.4v-63.3h12.1l9.1,37.4h0.2v-37.4h10.4v63.3H261.7z"/>
	<path class="st2" d="M298.9,247.6l-1.7-13.1h-8.3l-1.5,13.1h-11.6l9.6-63.3h15.3l9.8,63.3H298.9z M292.8,196.1h-0.2l-3.2,28.9h6.9
		L292.8,196.1z"/>
	<path class="st2" d="M310.3,259.1v-4.3h44.4v4.3H310.3z"/>
	<path class="st2" d="M380.1,247.6l-0.4-5.6h-0.3c-1.2,2.3-2.6,3.9-4.1,4.9c-1.6,1-3.5,1.5-5.9,1.5c-2.5,0-4.6-0.6-6.3-1.9
		c-1.7-1.3-3-3.2-4-5.9c-1-2.7-1.7-6.1-2.2-10.2c-0.4-4.1-0.7-9.1-0.7-14.8c0-6.3,0.3-11.5,1-15.6c0.7-4.1,1.7-7.4,3.1-9.8
		c1.4-2.5,3.2-4.2,5.3-5.1c2.1-1,4.6-1.5,7.5-1.5c2.9,0,5.3,0.4,7.2,1.3c1.9,0.9,3.4,2.2,4.6,3.9c1.1,1.7,1.9,3.8,2.4,6.3
		c0.5,2.5,0.7,5.4,0.7,8.6h-9.9c-0.1-3.6-0.4-6.3-1.1-8.1c-0.7-1.8-1.9-2.7-3.8-2.7c-1.1,0-1.9,0.3-2.6,0.8
		c-0.7,0.5-1.2,1.6-1.7,3.2s-0.8,3.9-0.9,6.8c-0.2,3-0.3,6.9-0.3,11.7c0,4.9,0.1,8.9,0.3,12c0.2,3.1,0.5,5.5,0.8,7.1
		c0.4,1.7,0.9,2.8,1.6,3.4c0.6,0.6,1.4,0.9,2.4,0.9c0.8,0,1.6-0.2,2.2-0.7c0.6-0.4,1.2-1.2,1.6-2.4s0.8-2.7,1-4.7
		c0.2-2,0.4-4.5,0.4-7.7v-0.8h-5.8v-8.8h16.1v33.8H380.1z"/>
	<path class="st2" d="M422.9,232.3c0,5.6-1.2,9.7-3.7,12.3c-2.5,2.6-6.3,3.9-11.4,3.9c-2.8,0-5.1-0.3-7-0.9
		c-1.9-0.6-3.4-1.6-4.6-2.9c-1.2-1.3-2-3-2.5-5c-0.5-2-0.8-4.4-0.8-7.2v-48.1h11.4v49.2c0,3.3,1.2,4.9,3.5,4.9
		c2.4,0,3.5-1.6,3.5-4.9v-49.2h11.4V232.3z"/>
	<path class="st2" d="M448,247.6l-1.7-13.1h-8.3l-1.5,13.1h-11.6l9.6-63.3h15.3l9.8,63.3H448z M442,196.1h-0.2l-3.2,28.9h6.9
		L442,196.1z"/>
	<path class="st2" d="M464.1,247.6v-21.4l-12.1-42h12.7l5,26.5h0.1l5.5-26.5h12l-11.7,42v21.4H464.1z"/>
	<path class="st2" d="M502.9,247.6l-1.7-13.1H493l-1.5,13.1h-11.6l9.6-63.3h15.3l9.8,63.3H502.9z M496.9,196.1h-0.2l-3.2,28.9h6.9
		L496.9,196.1z"/>
	<path class="st2" d="M547.1,224c-0.1,4.4-0.5,8.2-1,11.3c-0.6,3.1-1.5,5.6-2.7,7.6c-1.2,2-2.8,3.4-4.7,4.2
		c-1.9,0.9-4.3,1.3-7.1,1.3c-3.1,0-5.6-0.6-7.6-1.8c-2-1.2-3.6-3.1-4.7-5.7c-1.2-2.6-2-6-2.4-10.1c-0.5-4.1-0.7-9.1-0.7-14.9
		c0-5.9,0.3-10.8,0.8-14.9c0.5-4.1,1.4-7.4,2.7-10c1.3-2.6,3-4.4,5.1-5.6c2.1-1.2,4.7-1.8,7.9-1.8c2.8,0,5.2,0.4,7.1,1.3
		c1.9,0.9,3.3,2.2,4.4,4c1.1,1.8,1.9,4.1,2.3,6.8c0.4,2.7,0.7,5.9,0.7,9.6h-10.2c0-4.5-0.3-7.7-0.9-9.6c-0.6-1.9-1.7-2.8-3.3-2.8
		c-0.9,0-1.6,0.3-2.2,0.8c-0.6,0.6-1.1,1.7-1.5,3.3c-0.4,1.6-0.7,3.9-0.9,7c-0.2,3-0.3,7-0.3,11.9c0,4.8,0.1,8.7,0.2,11.7
		c0.1,3,0.4,5.4,0.8,7c0.4,1.7,0.8,2.8,1.4,3.4c0.6,0.6,1.3,0.9,2.1,0.9c0.8,0,1.4-0.2,2-0.6c0.5-0.4,1-1.2,1.4-2.3
		c0.4-1.1,0.7-2.6,0.9-4.5c0.2-1.9,0.3-4.3,0.4-7.4H547.1z"/>
	<path class="st2" d="M571.2,247.6l-1.7-13.1h-8.3l-1.5,13.1h-11.6l9.6-63.3h15.3l9.8,63.3H571.2z M565.2,196.1H565l-3.2,28.9h6.9
		L565.2,196.1z"/>
</g>
<g>
	<g>
		<path class="st2" d="M93.6,341.6c0,9.6-1.2,17.1-3.6,22.4c-2.4,5.4-6.5,9.3-12.3,11.9v0.6c2.8,0.9,5.1,2,7,3.4
			c1.8,1.3,3.3,3.2,4.4,5.6c1.1,2.4,1.9,5.4,2.4,9.2c0.5,3.8,0.8,8.5,1,14.1c0.3,9.7,0.6,17.4,1,23.2c0.4,5.7,1.2,9.3,2.5,10.7v1.3
			H71c-0.4-1-0.7-2.6-1-4.6c-0.3-2-0.5-4.5-0.7-7.3c-0.2-2.8-0.4-5.8-0.5-9c-0.1-3.2-0.2-6.4-0.2-9.8c-0.1-5.6-0.4-10.1-0.8-13.4
			c-0.4-3.3-1-5.8-1.9-7.6c-0.9-1.7-2-2.8-3.4-3.3c-1.3-0.4-3-0.7-4.9-0.7h-5.2v55.6H27.9V307.1h33.3c11.5,0,19.8,2.9,24.8,8.8
			C91.1,321.8,93.6,330.4,93.6,341.6z M69.7,346.8c0-6.8-0.9-11.7-2.7-14.7c-1.8-3-4.9-4.5-9.2-4.5H53v41.6h5.4c4.1,0,7-1.9,8.7-5.8
			C68.8,359.4,69.7,353.9,69.7,346.8z"/>
		<path class="st2" d="M103.6,443.9V307.1h54v22.6h-29.3v33.1H154v21.1h-25.7v37.4h30.5v22.6H103.6z"/>
		<path class="st2" d="M235.2,373.8c0,10.7-0.5,20.4-1.6,29.1c-1.1,8.7-3,16.1-5.8,22.1c-2.8,6.1-6.6,10.7-11.5,14
			c-4.9,3.3-11,4.9-18.4,4.9h-31.4V307.1h31c7.4,0,13.5,1.3,18.4,3.9c4.9,2.6,8.7,6.7,11.6,12.2c2.9,5.5,4.9,12.4,6,20.8
			C234.6,352.4,235.2,362.3,235.2,373.8z M210.1,374.4c0-10.1-0.4-18.1-1.1-24c-0.8-5.9-1.8-10.4-3.2-13.5c-1.3-3.1-2.8-5-4.5-5.8
			c-1.7-0.8-3.4-1.2-5.4-1.2h-4.8v91.6h5.2c2.3,0,4.3-0.6,6-1.9c1.7-1.3,3.2-3.6,4.3-7.1s2-8.2,2.6-14.3
			C209.8,392,210.1,384.1,210.1,374.4z"/>
		<path class="st2" d="M243.8,443.9V307.1h54v22.6h-29.3v33.1h25.7v21.1h-25.7v37.4H299v22.6H243.8z"/>
		<path class="st2" d="M368.9,405.8c0,26.6-11,39.8-33,39.8c-5.4,0-10-0.7-13.9-2c-3.9-1.3-7.1-3.7-9.7-7c-2.6-3.3-4.5-7.8-5.8-13.4
			c-1.3-5.6-2.1-12.7-2.4-21.3h22.6c0.1,4.5,0.4,8.2,0.9,11.1c0.4,2.9,1,5.3,1.7,7c0.7,1.7,1.6,3,2.7,3.7c1.1,0.8,2.5,1.2,4.1,1.2
			c5.9,0,8.8-4.5,8.8-13.6c0-5.1-1-9.4-3-12.9c-2-3.5-4.5-6.6-7.5-9.4c-3-2.7-6.3-5.4-9.8-8c-3.5-2.6-6.8-5.7-9.8-9.2
			c-3-3.5-5.5-7.7-7.5-12.6c-2-4.9-3-11-3-18.3c0-11.7,2.7-20.6,8.1-26.4c5.4-5.9,13.3-8.8,23.7-8.8c6,0,11,0.9,14.9,2.7
			c4,1.8,7.1,4.3,9.5,7.7c2.4,3.3,4.1,7.5,5.1,12.5c1,5,1.5,10.6,1.5,16.9h-20.1c-0.3-6.1-0.9-10.9-2-14.5c-1.1-3.5-3.5-5.3-7.4-5.3
			c-1.8,0-3.2,0.4-4.3,1.1c-1.1,0.7-1.9,1.6-2.5,2.8c-0.6,1.1-1,2.5-1.2,3.9c-0.3,1.5-0.4,3-0.4,4.5c0,4.9,1,8.9,3,12.2
			c2,3.3,4.4,6.2,7.3,8.8c2.9,2.6,6,5.2,9.5,7.8c3.4,2.6,6.6,5.5,9.5,8.9c2.9,3.4,5.3,7.5,7.3,12.4
			C367.9,392.6,368.9,398.6,368.9,405.8z"/>
	</g>
	<g>
		<g>
			<g>
				<path class="st2" d="M1916,407v-86.9h-4.1v-3.8h-7.8v3.8h-5.9V407h-15.6v-17.5h-0.6v-4.7h-16.3v-19.1h-16.3v6.3h-3.1v12.8h-0.6
					v4.7h-3.4v-6.9h-14.7v6.9h-4.4v9.7h-5.9v-41h-4.1v-4.7h-13.4v4.7h-7.2v20.3h-5.3v-4.4h-8.8v4.4h-10.9v14.7h-4.7v-10.3h-4.1V377
					h-8.1v5.9h-7.5v10.3h-3.8v-2.8h-6.9V386h-2.8v-4.7H1719v4.7h-6.6v4.4h-5.9v3.4h-3.4v30.3h-5.3V387h-9.1v37.2h-1.9v-40.6h-18.4
					v40.6h-3.4v-13.8h-5.3V377h-14.7v33.5h-7.2v13.8h-7.8V412H1598v12.2h-2.8v-10h-3.4v-15.9h-5.9v-9.7h-10.9v-32.8h-13.8v32.8h-5.3
					v23.8h-5V382h-10.9v4.1H1528v12.5h-4.1v-9.7h-7.2v-4.4h-8.8v27.8h-11.9V376H1482v5.9h-13.4v34.1h-6.8v9.6h-3.6v-10.9h-4.1v-6.2
					h-5.6v29.6h-6v-5.4h-3.4v-3h-6v3h-9.8v6.9h-3.6v-5.1h-6.4v-15.4h-5.3v-3.9h-9.4v3.9h-3.4v15.4h-3.2v5.1h-2.6v-25.1h-5.1v-4.3
					h-9.6v4.3h-4.9v25.1h-19.1v-35.6h-2.3v-3.9h-6.4v3.9h-3.4v35.6h-3.9v-31.3h-2.8v-4.1h-6.4v4.1h-3v17.1h-1.9v-4.7h-3v4.7h-3.2v-6
					h-15.9v12.4h-4.1v-7.7h-16.9v7.7h-7.5v-12.2h-0.8v-5.1h-2.2v-4.9h-5.8v4.9h-6.4v5.1h-5.8v12.2h-3.6v-8.3h-1.5v-4.5h-7.3v4.5
					h-2.8v8.3h-13.1v-1.5h-0.8v-43.7h-4.9v-6.6h-15.4v6.6h-3.9v43.7h-4.7v-17.8h-2.6v-5.4h-4.1v5.4h-7.1v17.8h-5.8V408h-12.2v22.5
					h-13.7v-31.7h-0.4v-4.3h-4.7v4.3h-1.3v-3h-13.5v3h-3.2v31.7h-2.6v-7.5h-2.2v-1.7h-5.6v1.7h-3.6v7.5h-6.2v-27.2h-2.4V396h-15v7.3
					h-3.4v15.6h-9.9v-66.4h-15v66.4h-10.9V403h-12v-13.7h-15v16.1h-5.1v-4.1h-9.2v4.1h-2.8v-20.8h-22.3v23.1h-11.8v23.3h-6.6v-33.2
					h-13.9v3.4h-6.4v10.3h-2.6v-5.8h-5.8v-5.1h-11.4v5.1h-8.6v5.8h-2.3v19.5h-3.9v-25.9h-6.2v25.9h-3.2v-30.4h-14.4v30.4h-2.6v-7.5
					h-2.8v-23.3h-9.2v12h-4.1v11.4h-3.2v7.5h-2.1v-6.6h-9.9v-4.9h-13.5v4.9h-5.4v9.9h-7.1v-27.8h-8.8v-29.3h-11.1v29.3h-5.1v19.5
					h-2.1v-21.9h-0.9v-3.2h-8.6v3.2h-8.6v9.4h-4.1V408H767v-6h-5.1v22.3h-8.8v-22.9h-3.6V396h-6.6v5.4H734V427h-5.8v7.3h-3.6v-12h-9
					v8h-15.8l-5.5-4.3c0.2-0.7,0.4-1.4,0.4-2.2v-19.3c0-1.8-0.8-3.5-2-4.6v-16.3c1.1-1.1,1.8-2.6,1.8-4.3v-12.6
					c0-1.7-0.7-3.2-1.8-4.3v-17.8h-25.9v17.8c-1.1,1.1-1.8,2.6-1.8,4.3v12.6c0,1.7,0.7,3.2,1.8,4.3v16.3c-0.8,0.8-1.4,1.8-1.8,2.9
					l-21.8-17.2c0,0-14.3-9.3-32.4-14.6v-9.2h-13.6v6.2c-4.8-0.6-9.8-0.9-14.6-0.4v-14.7h-6.2v15.7c-8.8,2-17.1,6.5-23.8,15
					c-6.3,7.9-12.3,14.9-17.9,20.9c0.2-0.9,0.4-1.8,0.5-2.8c2.4-1,4-3.3,4-6s-1.6-5-4-6v0c-1-7.3-3.9-14-8.1-19.7v0
					c0.3-0.7,0.4-1.4,0.4-2.2c0-3.6-2.9-6.5-6.5-6.5c-0.7,0-1.5,0.1-2.1,0.4c-5.6-4.3-12.3-7.2-19.6-8.3c-0.8-2.7-3.3-4.7-6.2-4.7
					c-3,0-5.5,2-6.2,4.8c-7.1,1-13.6,3.8-19,7.9c-0.8-0.4-1.7-0.6-2.6-0.6c-3.6,0-6.5,2.9-6.5,6.5c0,0.9,0.2,1.8,0.5,2.6
					c-4.3,5.6-7.2,12.3-8.2,19.7c-2.9,0.6-5.1,3.2-5.1,6.3c0,3.1,2.2,5.8,5.2,6.3c1.7,10.8,7.4,20.2,15.6,26.7H458v-7h-22.5v-20.5
					h-8.6v8.6h-15.2v-16.5h-11.2v-45.3h-22.8v46.4h1.2v47.8H21.3v-9H16v-45.8h-6v-6.6H-3v80.8h1934.6V407H1916z M471.5,365.9
					c4.8-3.5,10.4-5.8,16.4-6.7c0.7,0.9,1.7,1.6,2.8,2.1v26.8c-0.4,0.1-0.8,0.3-1.2,0.5l-11.2-11.2l-7.3-7.3
					c0.4-0.8,0.7-1.8,0.7-2.8C471.6,366.9,471.6,366.4,471.5,365.9z M463.6,373.7c0.5,0.1,1,0.2,1.5,0.2c0.8,0,1.6-0.1,2.4-0.5
					l18.6,18.6c-0.2,0.4-0.4,0.9-0.5,1.3h-27.3c-0.4-0.9-1-1.6-1.7-2.3C457.4,384.6,459.9,378.6,463.6,373.7z M465.5,419.9
					c-4.6-5.3-7.8-11.9-8.8-19.2c0.8-0.7,1.5-1.7,1.8-2.8h27.1c0.1,0.4,0.3,0.9,0.5,1.3L465.5,419.9z M468.8,423.3l20.6-20.6
					c0.4,0.2,0.8,0.4,1.2,0.5v29.2c-2.6-0.2-5.1-0.6-7.5-1.3V429h-5.6C474.4,427.5,471.4,425.6,468.8,423.3z M495.4,361.3
					c1.1-0.4,2.1-1.2,2.8-2.1c6.2,0.9,11.8,3.2,16.6,6.8c-0.2,0.6-0.3,1.3-0.3,1.9c0,0.9,0.2,1.7,0.5,2.5l-18.3,18.3
					c-0.4-0.2-0.9-0.4-1.3-0.6V361.3z M508.7,428.9c-2.1,1-4.4,1.8-6.7,2.4v-4h-6.6v-24.1c0.4-0.1,0.9-0.3,1.3-0.6l19.7,19.7
					C513.6,424.9,511,427.1,508.7,428.9z M524.3,415.1c-1.5,1.4-2.9,2.8-4.3,4.1l-19.9-19.9c0.2-0.4,0.4-0.8,0.5-1.3h26.1
					c0.5,1.4,1.5,2.6,2.8,3.3C528.7,406.3,526.9,411,524.3,415.1z M526.8,393.3h-26.1c-0.1-0.4-0.3-0.9-0.5-1.3l18.2-18.2
					c0.8,0.4,1.7,0.6,2.7,0.6c0.7,0,1.3-0.1,1.9-0.3c3.4,4.6,5.7,10.1,6.6,16.1C528.3,390.9,527.3,392,526.8,393.3z"/>
			</g>
		</g>
	</g>
</g>
<g class="st0">
	<g>
		<polygon class="st1" points="1422.3,459.3 1931.6,459.3 1931.6,-4 1422.3,-4 1247.9,218.1 		"/>
	</g>
</g>
<g class="st0">
	<g>
		<polygon class="st1" points="1046.2,218.1 1220.5,459.3 1120.5,459.3 946.2,218.1 1120.5,-4 1220.5,-4 		"/>
	</g>
</g>
<g>
	<g>
		<path class="st2" d="M1673.5,18.9c-1.1-0.6-2.2-0.9-3.4-0.9c-1.3,0-2.7,0.4-3.8,1.1l-32.7,21c-1.5,0.9-2.5,2.4-3,4l-8.3,28.8
			c-0.9,2.9,0.3,6.1,2.8,7.8l41.1,28.2c1.2,0.8,2.6,1.3,4,1.3c1.1,0,2.3-0.3,3.3-0.8c2.3-1.2,3.8-3.7,3.8-6.3v-78
			C1677.2,22.5,1675.7,20.1,1673.5,18.9z"/>
	</g>
	<g>
		<path class="st2" d="M1545.3,118.3c-1.2,0-2.4-0.3-3.5-0.9c-2.3-1.3-3.7-3.6-3.7-6.2V28.7c0-2.5,1.3-4.8,3.4-6.1
			c1.1-0.7,2.4-1,3.7-1c1.1,0,2.2,0.3,3.3,0.8l42.5,21.8c1.6,0.8,2.8,2.1,3.4,3.8l10.6,27.6c1.2,3.2,0,6.8-2.9,8.6l-53,33.1
			C1547.9,118,1546.6,118.3,1545.3,118.3z"/>
	</g>
	<g>
		<path class="st2" d="M1779.1,274.8l-99.7-52.3c-0.6-0.5-1.2-0.9-2-1.3l-2.6-1.1l-5.3-2.8c-1-0.5-2.2-0.8-3.3-0.8
			c-0.8,0-1.6,0.1-2.4,0.4l-5.4,1.9c-1.4,0.5-2.5,1.3-3.3,2.4c-0.3,0.3-0.7,0.6-1,0.9l-5.6,6.1c-1,1.1-1.6,2.4-1.8,3.7
			c-0.1,0.2-0.3,0.4-0.4,0.6l-3.4,6.4c-0.7,1.3-0.9,2.7-0.8,4.1c0,0.1-0.1,0.1-0.1,0.2l-2.6,6.1c-0.4,0.9-0.6,1.9-0.6,2.9
			c-0.3,0.5-0.6,1.1-0.8,1.6l-2.2,6.9c-0.3,0.9-0.4,1.7-0.3,2.6l-3.3,7.5c-0.5,1-0.7,2.1-0.6,3.2c0,0.1-0.1,0.1-0.1,0.2l-1.6,3.8
			l-0.6-32.5c2.2-5.5,0.4-10.7,0.1-11.3c-0.1-0.3-0.2-0.5-0.4-0.8l-0.4-19.4c1.6-4.8,0.2-9.1-0.2-10c0,0,0,0,0-0.1l-0.4-22.1
			c1.8-4.8,0.3-9.2-0.1-10.2c0-0.1-0.1-0.2-0.1-0.3l-0.4-21.8c1.7-4,1.3-8.2,0.3-10.9c-0.1-0.4-0.3-0.7-0.5-1l-0.2-8.3
			c1.2-1.9,1.5-4,1.2-5.8l0,0c-0.2-0.9-0.5-2-1.3-3.1l-0.4-23v-0.5l1.5-1.6c1.2-1.3,1.8-3,1.8-4.7V89c0-1.5-0.4-4.3-3.3-6.2l1.3-2.5
			c2.4-1.2,3.9-3.6,3.9-6.4V73l7.9-22.9c0.2-0.1,0.3-0.2,0.5-0.3c2-1.3,3.3-3.6,3.3-6v-1c0-3.8-2.9-6.9-6.7-7.1l-2.7-0.2
			c0,0,0,0,0,0c0-0.1,0-0.3-0.1-0.4c-0.7-3.6-3.7-9.9-10.9-12.1c-0.3-0.5-0.7-0.9-1.1-1.3v-2.1c0-0.4,0-0.8-0.1-1.2
			c-0.6-4.7-4.5-8.1-9.3-8.1c-0.3,0-0.6,0-0.9,0c-4.4,0.2-7.9,3.2-8.8,7.5c-0.1,0.6-0.2,1.1-0.2,1.7v1.9c-1.2,1.2-2,2.8-2.1,4.6
			c-2.8,2.7-6.5,6.7-8.4,10.5c-0.5,0.1-1,0.2-1.4,0.4c-2.7,1.1-4.4,3.7-4.4,6.6v2l-0.6,0.5c-2.2,1.8-3.2,4.7-2.4,7.4
			c0.6,2.1,2.1,3.8,4.1,4.6l8.6,21.1c0.8,2,2.5,3.5,4.4,4.1l0.4,0.6c0,0-0.1,0.1-0.1,0.1c-1.1,1.3-1.8,3-1.8,4.7v3.4
			c0,1.6,0.5,3.2,1.5,4.4l1,1.2l-0.2,22.9c-0.5,0.7-0.8,1.3-1,1.8c-0.7,2-0.6,4.1,0.3,6c0.1,0.3,0.3,0.6,0.6,1l-0.2,20.8
			c-1.7,2.5-2.1,4.9-2.1,6.7c0,2.6,1,4.8,2,6.4l-0.2,21c-2,3.5-2,7.5-0.1,11l-0.2,22.5c-1.4,3.1-1.5,6.4-0.1,9.6l-0.2,21.4
			c-2,3.6-2.1,7.8-0.1,11.5l-0.2,23.5c-0.9,0.9-1.5,1.9-1.8,2.8c-0.5,1.3-0.6,2.6-0.4,3.9c0,0-2.6-0.1-2.6-0.1c-0.1,0-0.3,0-0.4,0
			c-1-0.5-2-0.8-3.1-0.8l-6.4-0.2c-0.1,0-0.1,0-0.2,0c-0.6,0-1.1,0.1-1.6,0.2c-0.2,0-0.4,0-0.6,0c-0.8,0-1.6,0.1-2.4,0.4l-6.7,2.4
			c-1.8,0.6-3.2,1.9-4,3.5c-1.3,0.6-2.4,1.5-3.2,2.7l-4,6.4c-1.9,3.1-1.2,7.1,1.6,9.3l10.4,8.4c-1.7,3.1-2.5,6.5-2.5,10
			c0,0.8,0,1.6,0.1,2.5c0,0.4,0,0.7,0,1.1c0,5.9,2.5,11.4,7,16c-0.5,0.2-0.9,0.4-1.4,0.6c-8.5,3.9-10,9.5-9.8,13.6
			c0.1,2,1.1,3.8,2.6,5.1c1.3,1.1,2.9,1.6,4.5,1.6c0.3,0,0.7,0,1-0.1l52-7.2l30.2,24.3c0.7,0.6,1.5,1,2.4,1.3c0.7,1,1.5,2,2.4,2.9
			c2.5,2.5,5.9,3.9,9.5,3.9c3.7,0,7.4-1.4,10.5-4l7.7,5.6c-0.4,5.4,1.5,9,2.6,11.1c0.1,0.5,0.1,1.7,0,2.7l-13.3,9.7
			c-0.4,0.1-0.8,0.1-0.9,0.1c-5.5,0.2-22,1.9-23,13.5c-0.4,4.3,1.3,7.1,2.8,8.7c1.6,1.8,4.7,3.9,10.3,3.9c2,0,3.7-0.3,4.1-0.4
			l44.1-8.1c1.7-0.2,12.2-1.5,23.2-3.5c24.9-4.4,28.3-7.5,30.3-11.2c1.3-2.4,1.3-5.1,0.1-7.6c-1.4-2.9-5.2-7.7-14.4-7.7
			c-2.5,0-4.7,0.4-5.7,0.6l-19.7,2.1l-3-0.6c-0.5-1.3-0.7-3,0.3-5c4.2-8.5,2-17.5-0.3-22.1c-0.1-0.4-0.2-0.9-0.2-1.4
			c10-2.3,18.5-16.6,20.9-21.1c0.2-0.4,0.4-0.8,0.5-1.3l6.7-21.5l0.4-1.2l0.6-1.2c0.3-0.7,0.5-1.4,0.6-2.1l1.5-4.3l2.4-6.3
			c0.2-0.6,0.4-1.1,0.4-1.7l2.2-6.2l1.5-3.6c0.3-0.6,0.4-1.3,0.5-2l1.7-4.7c0.5,0,1.1,0.1,1.7,0.1c0,0,0,0,0,0c0.6,0,1.2,0,1.8-0.1
			c9.4-0.6,13.2-7.8,14.1-11.9c1.1-4.4,0.5-9.7-2.6-13.7C1783.3,279.2,1781.8,276.2,1779.1,274.8z"/>
	</g>
	<g>
		<g>
			<ellipse class="st3" cx="1615.8" cy="336.4" rx="36.7" ry="21.9"/>
		</g>
		<g>
			<ellipse class="st4" cx="1615.7" cy="332.8" rx="36.7" ry="21.9"/>
		</g>
		<g>
			<path class="st3" d="M1591.8,333v-7.9c0-6.1,10.5-11,23.5-11c13,0,23.5,4.9,23.5,11v8.7l0,0c0,0,0,0,0,0.1c0,6.1-10.5,11-23.5,11
				c-13,0-23.5-4.9-23.5-11V333z"/>
		</g>
		<g>
			<ellipse class="st4" cx="1615.1" cy="324.9" rx="23.1" ry="10.4"/>
		</g>
		<g>
			<ellipse class="st4" cx="1617.1" cy="315.7" rx="17.8" ry="10"/>
		</g>
		<g>
			<path class="st5" d="M1628,306.3c-4.4-2.4-4.6-11.1-4.6-11.1l-3.7-197.5c0,0-4.9-3.7-10.9-0.6l-2,198.1c0,0-0.3,15.7-7,16.7
				c0,0-0.5,10.3,14.4,10.3c14.9,0,17.2-8.9,17.2-8.9S1632.4,308.7,1628,306.3z"/>
		</g>
		<g>
			<path class="st3" d="M1590.5,51.7l3.2-2.6v-5.4l1,1v3.1l9.4-6.9l32.5,2v1c0,0-1.9-0.9-3.2,3.6l-8.4,24.4v2.1l-1.7,0.4l-3.2,6.2
				h-1.3L1618,83l-1.3,1.9l0.1,2.7c0,0,6.2,0,6.2,1.4v1.7l-3.2,3.7v3.2c0,0-4.1-1.5-10.9-0.6v-1.6l-2.5-3.2v-3.4
				c0,0,1.2-1.4,5.3-1.4v-2.4l-1.8-1.2l-1.7-2.4l-3.7-4.7h-1.5l-10-24.7L1590.5,51.7z"/>
		</g>
		<g>
			<polygon class="st2" points="1607.5,45.8 1610.5,69.2 1623.7,69.2 1631.4,46.6 			"/>
		</g>
		<g>
			<polygon class="st2" points="1595.4,53.5 1605.5,46.2 1608.9,69.5 1603.4,73 			"/>
		</g>
		<g>
			<polygon class="st6" points="1619.3,55.2 1618,69.2 1623.7,69.2 1631.4,46.6 			"/>
		</g>
		<g>
			<polygon class="st6" points="1595.4,53.5 1606.6,53.9 1608.9,69.5 1603.4,73 			"/>
		</g>
		<g>
			<polygon class="st6" points="1610.5,69.2 1616.3,69.2 1618,55.5 1608.6,54.1 			"/>
		</g>
		<g>
			<path class="st2" d="M1609.9,54.1c0,0-0.3,8.7,2.2,9.5c0,0,2.6,1,3.9-8.4L1609.9,54.1z"/>
		</g>
		<g>
			<path class="st3" d="M1607.9,29.2c0,0-1.5,8.2-0.6,10c0.9,1.9,1.8,2,1.8,2l21.9,1.3c0,0-3.2-1-3.8-6.1c0,0-1.2-6.7-8.7-7
				S1607.9,29.2,1607.9,29.2z"/>
		</g>
		<g>
			<path class="st5" d="M1594.8,47.8c0,0,2.5-2.6,3.6-6.8s9.6-11.8,9.6-11.8s-2.6,11.4,1.3,12l-5-0.3L1594.8,47.8z"/>
		</g>
		<g>
			<path class="st4" d="M1607.9,29.2v-2.6c0,0,5-3.8,9.4,0.2v2.5L1607.9,29.2z"/>
		</g>
		<g>
			<polygon class="st3" points="1611.8,25.2 1611.8,24.1 1613.6,24.1 1613.6,25.2 			"/>
		</g>
		<g>
			<polygon class="st4" points="1611.8,24.1 1610,22.4 1615.1,22.4 1613.6,24.1 			"/>
		</g>
		<g>
			<path class="st3" d="M1610,22.4v-2.7h5.1v2.7C1615.1,22.4,1609.9,22.4,1610,22.4z"/>
		</g>
		<g>
			<path class="st4" d="M1610,19.9c0,0,0-2.4,2.4-2.4c0,0,2.7-0.5,2.7,2.4C1615.1,19.9,1610,19.7,1610,19.9z"/>
		</g>
		<g>
			<path class="st3" d="M1607.2,125.5c0,0-1.2-1.8,6.6-1.8c7.8,0,7.8,1.2,7.8,1.2s0.5,2.6-6.7,2.6
				C1607.8,127.5,1607.2,125.5,1607.2,125.5z"/>
		</g>
		<g>
			<polygon class="st4" points="1609.8,137.5 1610.7,137.5 1610.2,249.5 1608.8,251 			"/>
		</g>
		<g>
			<polygon class="st4" points="1617.6,137 1618.5,137 1620.6,241.4 1619.2,242.9 			"/>
		</g>
		<g>
			<polygon class="st4" points="1612.1,137.3 1613.1,137.3 1613.3,246.9 1611.9,248.2 			"/>
		</g>
		<g>
			<polygon class="st4" points="1614.4,137.3 1615.7,137.3 1616.7,244.5 1615.3,245.6 			"/>
		</g>
		<g>
			<path class="st3" d="M1604.8,289.8c0,0-1.7-2.5,9.4-2.5c11.1,0,11.1,1.7,11.1,1.7s0.7,3.7-9.5,3.7
				C1605.6,292.7,1604.8,289.8,1604.8,289.8z"/>
		</g>
		<g>
			<path class="st3" d="M1608.4,226.6c0,0-4.3-3.7,0.3-7.8s13.5-12.1,13.5-12.1s1.9,5.1-2.1,8.4
				C1616.1,218.4,1608.4,226.6,1608.4,226.6z"/>
		</g>
		<g>
			<path class="st3" d="M1607.8,258.9c0,0-4.7-4.1,0.3-8.6s14.9-13.3,14.9-13.3s2.1,5.6-2.3,9.2
				C1616.3,249.8,1607.8,258.9,1607.8,258.9z"/>
		</g>
		<g>
			<path class="st3" d="M1608,160.7c0,0-4.2-3.6,0.3-7.6c4.4-4,13.2-11.8,13.2-11.8s1.9,4.9-2,8.2S1608,160.7,1608,160.7z"/>
		</g>
		<g>
			<path class="st3" d="M1608.3,193.8c0,0-4.2-3.6,0.3-7.6s13.2-11.8,13.2-11.8s1.9,4.9-2,8.2
				C1615.8,185.8,1608.3,193.8,1608.3,193.8z"/>
		</g>
		<g>
			<path class="st3" d="M1609.2,41.4c0,0-2.7-0.4-2.6-5.9c0,0-0.1-1.1-0.7-1.2c-0.6-0.1-1.8,6.8-1.8,6.8L1609.2,41.4z"/>
		</g>
	</g>
	<g>
		<defs>
			<polygon id="SVGID_3_" points="1587.2,50.3 1544.7,28.5 1544.7,110.9 1597.8,77.8 			"/>
		</defs>
		<clipPath id="SVGID_4_">
			<use xlink:href="#SVGID_3_"  style="overflow:visible;"/>
		</clipPath>
		<g class="st7">
			<g>
				<g>
					<g>
						<path class="st8" d="M1530.9,41.3c24.2,5.5,48.5,11.1,72.7,16.6c0.6-2.5,1.3-4.9,2.2-7.2c-23.1-9.2-46.2-18.3-69.4-27.5
							C1534.2,29.2,1532.3,35.2,1530.9,41.3z"/>
					</g>
				</g>
				<g>
					<g>
						<path class="st9" d="M1528.1,59.8c24.8,1.9,49.6,3.7,74.4,5.6c0.2-2.5,0.6-5,1.1-7.4c-24.2-5.6-48.5-11.1-72.7-16.7
							C1529.5,47.4,1528.6,53.6,1528.1,59.8z"/>
					</g>
				</g>
				<g>
					<g>
						<path class="st8" d="M1528.1,78.5c24.8-1.9,49.6-3.7,74.4-5.6c-0.2-2.5-0.2-5,0-7.5c-24.8-1.9-49.6-3.7-74.4-5.6
							C1527.7,66,1527.7,72.3,1528.1,78.5z"/>
					</g>
				</g>
				<g>
					<g>
						<path class="st9" d="M1530.9,97c24.2-5.6,48.5-11.1,72.7-16.7c-0.6-2.5-0.9-4.9-1.1-7.4c-24.8,1.9-49.6,3.7-74.4,5.6
							C1528.6,84.7,1529.5,90.9,1530.9,97z"/>
					</g>
				</g>
				<g>
					<g>
						<path class="st8" d="M1536.5,115c23.1-9.2,46.2-18.3,69.4-27.5c-0.9-2.4-1.7-4.8-2.2-7.2c-24.2,5.5-48.5,11.1-72.7,16.6
							C1532.3,103,1534.2,109.1,1536.5,115z"/>
					</g>
				</g>
			</g>
			<g>
				<g>
					<polygon class="st9" points="1552.7,64.8 1553.8,67.9 1557.2,67.9 1554.4,69.8 1555.5,72.8 1552.7,70.9 1550,72.8 1551,69.8 
						1548.3,67.9 1551.7,67.9 					"/>
				</g>
				<g>
					<polygon class="st9" points="1568.6,64.8 1569.6,67.9 1573,67.9 1570.3,69.8 1571.3,72.8 1568.6,70.9 1565.8,72.8 1566.9,69.8 
						1564.1,67.9 1567.5,67.9 					"/>
				</g>
				<g>
					<polygon class="st9" points="1584.4,64.8 1585.5,67.9 1588.9,67.9 1586.1,69.8 1587.2,72.8 1584.4,70.9 1581.7,72.8 
						1582.7,69.8 1580,67.9 1583.4,67.9 					"/>
				</g>
			</g>
		</g>
	</g>
	<g>
		<path class="st2" d="M1843.3,214.4l-5.5-46.4c-0.4-3-2.6-5.4-5.5-6.1c1.1-0.4,2.1-1.1,3-2c1.4-1.5,2-3.5,1.7-5.6l-9.5-79.5
			c-0.4-3.6-3.5-6.3-7.1-6.3h-18.1c-3.6,0-6.6,2.7-7.1,6.3l-3.2,27.2V75.7c0-3.9-3.2-7.1-7.1-7.1h-10.6c-2.6,0-4.9,1.4-6.2,3.6
			c-1.3-2.2-3.6-3.6-6.2-3.6h-10.7c-2.5,0-4.6,1.3-5.9,3.2c-2.5-2.1-5.5-3.2-8.9-3.2h-18.3c-3.3,0-6.3,1.1-8.8,3.1
			c-0.1-0.1-0.2-0.3-0.3-0.4c-1.3-1.7-3.4-2.7-5.6-2.7H1673c-3.9,0-7.1,3.2-7.1,7.1v11.4c0,3.9,3.2,7.1,7.1,7.1h7l-14.7,59.3
			c-0.5,2.1,0,4.4,1.3,6.1c0.9,1.2,2.2,2,3.5,2.4c-1.6,0.4-3.1,1.1-4.5,2.3c-1.9,1.6-3.1,3.7-3.6,6.1c-0.1,0.4-0.1,0.9-0.1,1.3v40.5
			c0,1.1,0.3,2,0.5,2.6c0.2,0.6,0.4,1,0.6,1.5c0.7,1.6,1.8,2.9,3.3,3.9c0.7,0.5,1.5,1,2.4,1.3c0.8,0.4,1.8,0.7,2.9,0.7
			c0.5,0,0.8,0,0.9,0h6.9c0.7,0,1.3-0.1,2-0.3c0.6,0.2,1.3,0.3,2,0.3h4.6c1.3,0,2.5-0.3,3.5-0.9c1.3,0.6,2.7,1,4.2,1h12.5
			c1.2,0,2.5-0.2,3.7-0.7c0.2-0.1,0.4-0.2,0.6-0.3c1.1,0.6,2.3,1,3.6,1h6.3c1.7,0,3.3-0.6,4.5-1.6c1.2,1,2.8,1.6,4.5,1.6h6.2
			c2,0,4-0.9,5.3-2.4c0.1-0.1,0.2-0.3,0.4-0.5c1.3,1.7,3.4,2.8,5.7,2.8h6.3c2.3,0,4.3-1.1,5.6-2.8c0.1,0.1,0.2,0.3,0.3,0.4
			c1.4,1.5,3.3,2.4,5.3,2.4h6.3c1.7,0,3.3-0.6,4.5-1.6c1.2,1,2.8,1.6,4.5,1.6h6.2c1.3,0,2.5-0.3,3.5-0.9c0,0,0.1,0,0.1,0
			c1.3,0.6,2.7,0.9,4.1,0.9h11.5c1.3,0,2.6-0.3,3.9-0.9c1.1,0.6,2.3,0.9,3.5,0.9h6.3c1.7,0,3.3-0.6,4.5-1.6c1.2,1,2.8,1.6,4.5,1.6
			h6.2c2,0,4-0.9,5.3-2.4C1842.9,218.4,1843.6,216.4,1843.3,214.4z"/>
	</g>
	<g>
		<g>
			<path class="st3" d="M1671.6,215.1c-0.4-0.2-0.9-0.4-1.3-0.6c-0.4-0.3-0.7-0.6-0.9-1.1c-0.1-0.1-0.1-0.3-0.2-0.6
				c-0.1-0.3-0.1-0.5-0.1-0.5v-40.5c0.2-0.8,0.6-1.5,1.2-2c0.6-0.6,1.4-0.8,2.2-0.8h12.4c0.3-0.1,0.6,0,0.9,0.2
				c0.3,0.2,0.6,0.4,0.9,0.7c0.3,0.3,0.6,0.6,0.8,0.9c0.2,0.3,0.4,0.6,0.5,0.9v9.9l-6.6,4.4v-10.9h-5.6v33.8h5.5v-12.7h-3.6l1.9-6.3
				h8.3v25.4h-4.6c-0.1-0.1-0.2-0.3-0.3-0.6c-0.1-0.3-0.2-0.6-0.2-0.6l-3.4,1.3h-6.9c-0.1,0-0.2,0-0.5,0
				C1671.9,215.2,1671.7,215.2,1671.6,215.1z"/>
		</g>
		<g>
			<path class="st3" d="M1692.7,212.4c0-0.7,0-1.9,0-3.4c0-1.5,0-3.2,0-5.2c0-2,0-4.1,0-6.4c0-2.3,0-4.6,0-7c0-2.4,0-4.7,0-7
				c0-2.3,0-4.4,0-6.3c0-1.9,0-3.6,0-5.1c0-1.5,0-2.5,0-3.2h6.7v39.5c0,0.1,0,0.2,0.1,0.3c0.1,0.1,0.2,0.2,0.3,0.2h4.5
				c0.1,0,0.2-0.1,0.3-0.2c0.1-0.1,0.2-0.2,0.1-0.3v-39.5h6.7v43.5c0,0.4-0.1,0.7-0.3,1.1c-0.2,0.3-0.5,0.6-0.8,0.9
				c-0.3,0.3-0.7,0.5-1.1,0.6c-0.4,0.2-0.7,0.2-1.1,0.2h-12.5c-0.4,0-0.7-0.1-1.1-0.3c-0.3-0.2-0.6-0.4-0.9-0.7
				c-0.3-0.3-0.5-0.6-0.7-0.9C1692.9,213.1,1692.8,212.7,1692.7,212.4z"/>
		</g>
		<g>
			<path class="st3" d="M1721.6,168.9h10.5l5.5,46.4h-6.2l-0.9-7h-7.4l-0.8,7h-6.3L1721.6,168.9z M1729.8,201.3l-2.9-23.3l-2.8,23.3
				H1729.8z"/>
		</g>
		<g>
			<path class="st3" d="M1742.3,179.5v-10.6h6.3v10.6l3.5,7.2h0l3.6-7.2v-10.6h6.3v10.6l-6.6,16.4v19.3h-6.3v-19.3L1742.3,179.5z"/>
		</g>
		<g>
			<path class="st3" d="M1772.1,168.9h10.5l5.5,46.4h-6.2l-0.9-7h-7.4l-0.8,7h-6.3L1772.1,168.9z M1780.3,201.3l-2.9-23.3l-2.8,23.3
				H1780.3z"/>
		</g>
		<g>
			<path class="st3" d="M1803.8,186.8v-11.3c0-0.1,0-0.1-0.1-0.2c-0.1-0.1-0.1-0.1-0.2-0.1h-4.1c-0.2,0-0.3,0.1-0.3,0.3v33
				c0,0.1,0,0.1,0.1,0.2c0.1,0.1,0.1,0.1,0.2,0.1h4.1c0.1,0,0.1,0,0.2-0.1c0.1-0.1,0.1-0.1,0.1-0.2v-11.3l6.3,4.5v10.6
				c0,0.3-0.1,0.6-0.3,0.9c-0.2,0.3-0.4,0.6-0.7,0.9c-0.3,0.3-0.6,0.5-0.9,0.7c-0.3,0.2-0.6,0.3-0.9,0.3h-11.5
				c-0.4,0-0.7-0.1-1.1-0.3c-0.4-0.2-0.7-0.4-1-0.7c-0.3-0.3-0.5-0.6-0.7-1c-0.2-0.4-0.3-0.7-0.3-1.1v-40.3c0-0.4,0.1-0.7,0.3-1.1
				c0.2-0.4,0.4-0.7,0.7-1c0.3-0.3,0.6-0.5,1-0.7c0.4-0.2,0.7-0.3,1.1-0.3h11.5c0.3,0,0.6,0.1,0.9,0.3c0.3,0.2,0.6,0.4,0.9,0.7
				c0.3,0.3,0.5,0.6,0.7,0.9c0.2,0.3,0.3,0.6,0.3,0.9v10.5L1803.8,186.8z"/>
		</g>
		<g>
			<path class="st3" d="M1820.2,168.9h10.5l5.5,46.4h-6.2l-0.9-7h-7.4l-0.8,7h-6.3L1820.2,168.9z M1828.4,201.3l-2.9-23.3l-2.8,23.3
				H1828.4z"/>
		</g>
	</g>
	<g>
		<defs>
			<polygon id="SVGID_5_" points="1637.4,44.7 1670.2,23.7 1670.2,101.7 1629.1,73.4 			"/>
		</defs>
		<clipPath id="SVGID_6_">
			<use xlink:href="#SVGID_5_"  style="overflow:visible;"/>
		</clipPath>
		<g class="st10">
			<g>
				<g>
					<defs>
						<path id="SVGID_7_" d="M1654.8,67c-3.8-4.2-7.7-8.1-11.7-11.9c0.2,6,0.2,12-0.1,18c-0.3,5,4.4,7.8,7.4,4.1
							c1.4-1.8,2.9-3.7,4.2-5.6c1.2,2,2.5,4.1,3.7,6.3c2.3,4.2,7.5,2.1,7.8-3.5c0.3-6.7,0.4-13.4,0.1-20.1
							C1662.5,58.7,1658.7,63,1654.8,67z"/>
					</defs>
					<clipPath id="SVGID_8_">
						<use xlink:href="#SVGID_7_"  style="overflow:visible;"/>
					</clipPath>
				</g>
				<g>
					<defs>
						<path id="SVGID_9_" d="M1649.9,62.7c0,5.6,2,10.2,4.7,10.3c2.7,0.2,5.2-4.5,5.2-10.4c0-5.9-2.5-10.5-5.2-10.3
							C1651.8,52.5,1649.9,57.1,1649.9,62.7z"/>
					</defs>
					<clipPath id="SVGID_10_">
						<use xlink:href="#SVGID_9_"  style="overflow:visible;"/>
					</clipPath>
				</g>
			</g>
			<g>
				<g>
					<g>
						<path class="st11" d="M1701.4,108.1c-33.1-5.8-66.3-11.6-99.4-17.4c2-11.7,2.8-23.5,2.2-35.4c33.6-1.5,67.2-3.1,100.8-4.6
							C1705.9,69.9,1704.7,89.2,1701.4,108.1z"/>
					</g>
					<g>
						<g>
							<path class="st12" d="M1703.9,90.1c-33.5-3.5-66.9-7-100.4-10.5c1.1-11,1.2-22.1,0-33.2c33.5-3.4,66.9-6.8,100.4-10.2
								C1705.8,54.2,1705.7,72.2,1703.9,90.1z"/>
						</g>
					</g>
					<g>
						<g>
							<path class="st13" d="M1705.3,64.4c-33.6-0.2-67.3-0.4-100.9-0.6c0.1-9.6-0.7-19.3-2.4-28.8c33.1-5.8,66.3-11.6,99.4-17.4
								C1704.1,33.1,1705.4,48.7,1705.3,64.4z"/>
						</g>
					</g>
				</g>
				<g>
					<g>
						<g>
							<path class="st11" d="M1659.7,56.2c0.3,1.8,0.5,3.6,0.7,5.4c0,0,0,0,0,0c0-2.1-0.1-4.1-0.1-6.2
								C1660.1,55.6,1659.9,55.9,1659.7,56.2z"/>
						</g>
					</g>
					<g>
						<g>
							<path class="st14" d="M1660.3,55.4c0.1,2.1,0.1,4.1,0.1,6.2c0.5-0.6,1.1-1.2,1.6-1.8c0-2.1-0.1-4.3-0.2-6.4
								C1661.3,54,1660.8,54.7,1660.3,55.4z"/>
						</g>
					</g>
					<g>
						<g>
							<path class="st14" d="M1664.8,50.4c-0.3,0-0.6,0-0.9,0.1c0.1,2.3,0.2,4.6,0.3,6.8c0.3-0.4,0.6-0.7,0.9-1.1
								C1665,54.3,1664.9,52.3,1664.8,50.4z"/>
						</g>
					</g>
					<g>
						<g>
							<path class="st13" d="M1661.8,53.3c0.1,2.1,0.2,4.3,0.2,6.4c0.7-0.8,1.4-1.6,2.1-2.4c-0.1-2.3-0.2-4.6-0.3-6.8
								C1663.2,51.4,1662.5,52.3,1661.8,53.3z"/>
						</g>
					</g>
					<g>
						<g>
							<path class="st11" d="M1649.6,56.4c-0.1,1.7-0.3,3.4-0.5,5.1c0,0,0,0,0,0c0-1.9-0.1-3.9-0.1-5.8
								C1649.2,55.9,1649.4,56.2,1649.6,56.4z"/>
						</g>
					</g>
					<g>
						<g>
							<path class="st14" d="M1649,55.7c0.1,1.9,0.1,3.9,0.1,5.8c-0.5-0.6-1.1-1.1-1.6-1.7c0-2-0.1-4-0.2-6
								C1647.9,54.5,1648.4,55.1,1649,55.7z"/>
						</g>
					</g>
					<g>
						<g>
							<path class="st14" d="M1644.1,51.5c0.3,0,0.6,0,0.9-0.1c0.1,2.1,0.2,4.2,0.3,6.3c-0.3-0.3-0.6-0.6-1-0.9
								C1644.2,55,1644.2,53.2,1644.1,51.5z"/>
						</g>
					</g>
					<g>
						<g>
							<path class="st13" d="M1647.3,53.9c0.1,2,0.1,4,0.2,6c-0.7-0.7-1.5-1.5-2.2-2.2c-0.1-2.1-0.1-4.2-0.3-6.3
								C1645.8,52.2,1646.5,53,1647.3,53.9z"/>
						</g>
					</g>
					<g>
						<g>
							<path class="st15" d="M1663.2,54.2c0,0-0.7,0.6-1.1,1.3c-0.2-0.5-0.3-1.1-0.5-1.5c0.4-0.2,1.1-0.8,0.5-2.8
								c0,0-0.8,0.6-1.1,1.4c-0.2-0.4-0.3-0.7-0.3-0.7c0,0-0.1-0.4-0.1-0.8c0.1-0.6-0.1-1.4-1.7-1.7c0,0,0,2.5,1.1,2.5
								c0.1,0.1,0.2,0.2,0.3,0.2c0.2,0.3,0.4,0.6,0.6,0.9c-0.6-0.2-1.6,0.5-1.6,0.5c1.2,1.9,2,0.9,2.1,0.6c0.2,0.5,0.3,1,0.4,1.5
								c-0.6-0.2-1.6,0.5-1.6,0.5c0.9,1.5,1.5,1.3,1.9,0.9c0.2,1.6,0.2,2.8,0.2,2.8c0.2-0.2,0.3-0.4,0.5-0.7c0-0.3,0-0.6,0-1
								c0-0.4-0.1-0.9-0.2-1.3C1662.9,57,1663.9,56.5,1663.2,54.2z"/>
						</g>
					</g>
					<g>
						<g>
							<path class="st15" d="M1646.2,54.8c0,0,0.8,0.5,1.1,1.1c0.1-0.5,0.3-1,0.4-1.4c-0.4-0.1-1.1-0.7-0.7-2.5c0,0,0.8,0.5,1.2,1.2
								c0.2-0.4,0.3-0.7,0.3-0.7c0,0,0-0.4,0-0.8c-0.2-0.5-0.1-1.4,1.5-1.8c0,0,0.3,2.4-0.8,2.5c-0.1,0.1-0.2,0.2-0.2,0.3
								c-0.2,0.3-0.3,0.6-0.5,0.9c0.6-0.3,1.7,0.4,1.7,0.4c-1,1.9-1.9,1-2.1,0.8c-0.1,0.5-0.2,1-0.3,1.5c0.6-0.2,1.6,0.4,1.6,0.4
								c-0.8,1.4-1.5,1.3-1.8,1c-0.2,1.5-0.1,2.7-0.1,2.7c-0.2-0.2-0.3-0.4-0.5-0.6c0-0.3,0-0.6,0-0.9c0-0.4,0.1-0.8,0.1-1.2
								C1646.7,57.4,1645.7,57,1646.2,54.8z"/>
						</g>
					</g>
					<g>
						<g>
							<path class="st16" d="M1641.7,48.1c0,0,2.8,1.1,7.2,0.1c0,0,2,3.3,3.7,3.8c1.3-0.1,2.6-0.1,3.9-0.2c0,0,2.4-1.7,3.1-4.2
								c0,0,3.7,0.5,7.2-1.2c0,0-2.8-1.4-4.5-3.1c-1.7-1.7-6.6-2.9-6.6,0.1c-0.1,3.1,0.4,4.6,0.4,4.6c0,0-0.9-3.3-2.8-1.7
								c-0.2,0.1-0.4,0.3-0.7,0.4c0,0,0.4-4.9-2.6-4.6c-3,0.3-4.5,2.6-4.5,2.6C1645.5,44.7,1643.7,47.2,1641.7,48.1z"/>
						</g>
					</g>
					<g>
						<g>
							<path class="st17" d="M1655.5,47.8c0.1,0.9-0.4,1.6-1,1.6c-0.6,0-1.2-0.6-1.2-1.5c-0.1-0.8,0.4-1.6,1-1.6
								C1654.8,46.3,1655.4,47,1655.5,47.8z"/>
						</g>
					</g>
					<g>
						<g>
							<path class="st18" d="M1653.1,46.1c0.4,0.5,0.9,0.9,1.3,1.4c0.2,0.2,0.2,0.5,0.1,0.7c0,0,0,0,0,0c-0.1,0.3-0.4,0.4-0.6,0.3
								c-0.7-0.5-1.5-0.9-2.2-1.4C1652.2,46.8,1652.6,46.5,1653.1,46.1z"/>
						</g>
					</g>
					<g>
						<g>
							<path class="st12" d="M1654.6,76.9c0.2,1.9,0.4,3.8,0.6,5.7c0.6-0.3,1.1-0.7,1.7-1c-0.4-1.6-0.8-3.2-1.3-4.8
								C1655.3,76.7,1654.9,76.8,1654.6,76.9z"/>
						</g>
					</g>
					<g>
						<g>
							<path class="st13" d="M1656.6,76.5c-0.3,0.1-0.6,0.1-0.9,0.2c0.4,1.6,0.9,3.2,1.3,4.8c0.6-0.4,1.1-0.7,1.7-1.1
								C1658,79.1,1657.3,77.8,1656.6,76.5z"/>
						</g>
					</g>
					<g>
						<g>
							<path class="st13" d="M1651.8,76.6c-0.7,1.1-1.4,2.2-2.2,3.2c0.5,0.4,1.1,0.8,1.6,1.2c0.6-1.4,1.2-2.9,1.8-4.3
								C1652.6,76.7,1652.2,76.6,1651.8,76.6z"/>
						</g>
					</g>
					<g>
						<g>
							<path class="st12" d="M1651.2,81.1c0.5,0.4,1,0.8,1.5,1.2c0.5-1.8,1-3.5,1.5-5.3c-0.4-0.1-0.8-0.1-1.2-0.2
								C1652.4,78.2,1651.8,79.6,1651.2,81.1z"/>
						</g>
					</g>
					<g>
						<g>
							<path class="st11" d="M1653.9,76.8c-0.5,1.8-1,3.6-1.5,5.3c-0.2,0-0.4-0.1-0.5-0.1c-0.1,0.3-0.2,0.5-0.2,0.8
								c0.7,0.4,1.5,0.8,2.2,1.2c0.7-0.2,1.5-0.5,2.2-0.7c0-0.3-0.1-0.6-0.1-0.9c-0.2,0-0.3,0.1-0.5,0.1c-0.2-2-0.4-3.9-0.7-5.9
								C1654.5,76.6,1654.2,76.7,1653.9,76.8z"/>
						</g>
					</g>
					<g>
						<g>
							<path class="st19" d="M1650.9,47.5c0,0,1.1-0.2,1.6-0.1c0.6,0.1,0.7-0.6,0.6-1.3c-0.2-0.7-1.3-0.2-1.3-0.2
								C1651.8,45.9,1651,46.4,1650.9,47.5z"/>
						</g>
					</g>
					<g>
						<defs>
							<path id="SVGID_11_" d="M1654.8,67c-3.8-4.2-7.7-8.1-11.7-11.9c0.2,6,0.2,12-0.1,18c-0.3,5,4.4,7.8,7.4,4.1
								c1.4-1.8,2.9-3.7,4.2-5.6c1.2,2,2.5,4.1,3.7,6.3c2.3,4.2,7.5,2.1,7.8-3.5c0.3-6.7,0.4-13.4,0.1-20.1
								C1662.5,58.7,1658.7,63,1654.8,67z"/>
						</defs>
						<use xlink:href="#SVGID_11_"  style="overflow:visible;fill:#FFD25B;"/>
						<clipPath id="SVGID_12_">
							<use xlink:href="#SVGID_11_"  style="overflow:visible;"/>
						</clipPath>
						<g class="st20">
							<g>
								<g>
									<path class="st14" d="M1663.5,56.4c0.2,5.9,0.1,11.8-0.2,17.8c-0.1,1.9-1.8,2.8-2.7,1.4c-2.7-3.9-5.5-7.7-8.5-11.4
										C1655.9,61.8,1659.7,59.2,1663.5,56.4z"/>
								</g>
							</g>
							<g>
								<g>
									<path class="st11" d="M1662,58.4c0.1,5.2,0,10.4-0.2,15.5c-1.4-1.8-2.9-3.6-4.4-5.4c0.4-2.4,0.8-4.9,1.2-7.3
										C1659.7,60.2,1660.8,59.3,1662,58.4z"/>
								</g>
							</g>
							<g>
								<g>
									<path class="st14" d="M1645.9,56.8c0.2,5.5,0.1,10.9-0.2,16.4c-0.1,1.7,1.5,2.7,2.5,1.6c3.1-3.4,6.2-6.9,9.2-10.6
										C1653.7,61.6,1649.8,59.2,1645.9,56.8z"/>
								</g>
							</g>
							<g>
								<g>
									<path class="st11" d="M1647.5,58.6c0.1,4.8,0,9.7-0.2,14.5c1.6-1.6,3.2-3.2,4.8-4.8c-0.3-2.4-0.7-4.8-1.1-7.1
										C1649.8,60.2,1648.7,59.4,1647.5,58.6z"/>
								</g>
							</g>
						</g>
					</g>
					<g>
						<g>
							<path class="st21" d="M1648.7,62.7c0,6.3,2.4,11.6,5.8,11.9c3.3,0.2,6.4-5.1,6.4-11.9c0-6.8-3.1-12.1-6.4-11.9
								C1651.1,51,1648.7,56.3,1648.7,62.7z"/>
						</g>
					</g>
					<g>
						<g>
							<g>
								<path class="st22" d="M1648.6,75.1c4.3,0.3,8.5,0.5,12.8,0.8c0.1,0,0.2,0.2,0.2,0.3c0,0,0,0,0,0c0,0.2-0.1,0.3-0.3,0.3
									c-4.3-0.3-8.5-0.5-12.8-0.8C1648.6,75.6,1648.6,75.3,1648.6,75.1z"/>
							</g>
						</g>
						<g>
							<g>
								<path class="st23" d="M1657.1,77.3c-1.9-0.1-3.8-0.3-5.6-0.4c-0.6,0-1-0.7-1-1.4l0,0c0-0.8,0.6-1.4,1.1-1.3
									c1.9,0.1,3.8,0.2,5.6,0.3c0.6,0,1,0.7,1,1.5l0,0C1658.2,76.8,1657.7,77.4,1657.1,77.3z"/>
							</g>
						</g>
						<g>
							<g>
								<path class="st24" d="M1648.6,76.8c-0.1-0.3-0.2-0.5-0.3-0.8c0-0.4,0.1-0.8,0.1-1.3c0,0-0.5-1.3-1.5-1.6c0,0,0.7-1.3,2-1.2
									c1.3,0.1,1.7,1.3,1.7,1.3c0,0-1.4,0.6-1.5,1.6c0,0.4,0,0.8-0.1,1.3C1648.8,76.3,1648.7,76.5,1648.6,76.8z"/>
							</g>
						</g>
						<g>
							<g>
								<path class="st25" d="M1649.6,75.8c-0.7,0-1.4-0.1-2-0.1c-0.1,0-0.2-0.2-0.2-0.3l0,0c0-0.2,0.1-0.3,0.3-0.3
									c0.7,0,1.4,0.1,2,0.1C1649.6,75.4,1649.6,75.6,1649.6,75.8z"/>
							</g>
						</g>
					</g>
					<g>
						<g>
							<path class="st14" d="M1666.9,59.4c-0.3,0.5-0.7,0.9-1,1.4c0-2.3-0.1-4.6-0.2-6.8c0.3,0,0.7,0,1,0
								C1666.8,55.8,1666.9,57.6,1666.9,59.4z"/>
						</g>
					</g>
					<g>
						<g>
							<path class="st14" d="M1643.7,61c-0.3-0.4-0.7-0.9-1-1.3c0-1.6-0.1-3.2-0.1-4.8c0.3,0,0.7,0,1,0
								C1643.6,56.9,1643.7,59,1643.7,61z"/>
						</g>
					</g>
					<g>
						<defs>
							<path id="SVGID_13_" d="M1649.9,62.7c0,5.6,2,10.2,4.7,10.3c2.7,0.2,5.2-4.5,5.2-10.4c0-5.9-2.5-10.5-5.2-10.3
								C1651.8,52.5,1649.9,57.1,1649.9,62.7z"/>
						</defs>
						<clipPath id="SVGID_14_">
							<use xlink:href="#SVGID_13_"  style="overflow:visible;"/>
						</clipPath>
						<g class="st26">
							<g>
								<g>
									<path class="st27" d="M1649.9,62.7c0,5.6,2,10.2,4.7,10.3c2.7,0.2,5.2-4.5,5.2-10.4c0-5.9-2.5-10.5-5.2-10.3
										C1651.8,52.5,1649.9,57.1,1649.9,62.7z"/>
								</g>
							</g>
							<g>
								<g>
									<path class="st28" d="M1652.8,61.9c0.1,0.1,0.2,0.2,0.4,0.4c0.4,0.4,0.9,0.3,1.2-0.1c0.2-0.3,0.5-0.7,0.7-1
										c-0.4-0.5-0.9-1.1-1.3-1.6c-0.6-0.7-1.6-0.7-2.2,0.1c-0.7,1-1.5,2-2.2,3c0,0.1,0,0.1,0,0.2c1-0.4,2-0.7,3-1.1
										C1652.6,61.7,1652.7,61.8,1652.8,61.9z"/>
								</g>
								<g>
									<g>
										<path class="st29" d="M1658.9,62.9c-1.1,0.6-2,0.2-2,0.2c-0.6-0.7-1.1-1.4-1.7-2c-0.2,0.3-0.5,0.7-0.7,1
											c-0.3,0.4-0.8,0.5-1.2,0.1c-0.1-0.1-0.2-0.2-0.4-0.4c-0.1-0.1-0.3-0.2-0.4-0.1c-1,0.4-2,0.7-3,1.1c0,1,0,2.1,0,3.1
											c3.5,0.1,7.1,0.2,10.6,0.3c0.2-1,0.3-1.9,0.4-2.9C1660.5,63.5,1660,62.3,1658.9,62.9z"/>
									</g>
								</g>
							</g>
							<g>
								<g>
									<path class="st30" d="M1649.7,65.3c3.4,0,6.8,0.1,10.2,0.1c-0.1,0.9-0.2,1.9-0.3,2.8c-0.2,0.5-0.3,1.1-0.5,1.6
										c-0.2,0.4-0.5,0.9-0.7,1.3c-0.5,0.5-0.9,1-1.4,1.4c-0.6,0.3-1.2,0.6-1.8,0.8c-0.8-0.1-1.5-0.3-2.3-0.4c0,0-1.5-1.2-1.5-1.3
										c0-0.1-0.9-2.2-0.9-2.2c0-0.1-0.3-1.5-0.4-1.7c-0.1-0.2-0.3-1.9-0.3-1.9C1649.7,65.8,1649.7,65.5,1649.7,65.3z"/>
								</g>
							</g>
						</g>
					</g>
				</g>
			</g>
			<g>
				<g>
					<defs>
						<path id="SVGID_15_" d="M1654.8,67c-3.8-4.2-7.7-8.1-11.7-11.9c0.2,6,0.2,12-0.1,18c-0.3,5,4.4,7.8,7.4,4.1
							c1.4-1.8,2.9-3.7,4.2-5.6c1.2,2,2.5,4.1,3.7,6.3c2.3,4.2,7.5,2.1,7.8-3.5c0.3-6.7,0.4-13.4,0.1-20.1
							C1662.5,58.7,1658.7,63,1654.8,67z"/>
					</defs>
					<clipPath id="SVGID_16_">
						<use xlink:href="#SVGID_15_"  style="overflow:visible;"/>
					</clipPath>
				</g>
				<g>
					<defs>
						<path id="SVGID_17_" d="M1649.9,62.7c0,5.6,2,10.2,4.7,10.3c2.7,0.2,5.2-4.5,5.2-10.4c0-5.9-2.5-10.5-5.2-10.3
							C1651.8,52.5,1649.9,57.1,1649.9,62.7z"/>
					</defs>
					<clipPath id="SVGID_18_">
						<use xlink:href="#SVGID_17_"  style="overflow:visible;"/>
					</clipPath>
				</g>
			</g>
		</g>
	</g>
	<g>
		<g>
			<path class="st2" d="M1672.2,157.4c-0.7,0-1.3-0.3-1.7-0.8c-0.4-0.5-0.5-1.2-0.4-1.8l16.2-65.5H1673c-1.2,0-2.1-1-2.1-2.1V75.7
				c0-1.2,1-2.1,2.1-2.1h30.6c0.7,0,1.3,0.3,1.7,0.8c0.4,0.5,0.5,1.2,0.4,1.8l-16.1,65.6h12.6c1.2,0,2.1,1,2.1,2.1v11.3
				c0,1.2-1,2.1-2.1,2.1H1672.2z"/>
		</g>
		<g>
			<path class="st5" d="M1689.1,87.1H1673V75.7h30.6L1687,144h15.4v11.3h-30.1L1689.1,87.1z"/>
		</g>
		<g>
			<path class="st2" d="M1718.3,157.4c-2.5,0-4.6-0.9-6.3-2.6c-1.7-1.7-2.5-3.9-2.5-6.3V82.6c0-2.5,0.8-4.6,2.5-6.3
				c1.7-1.8,3.8-2.6,6.3-2.6h18.3c2.5,0,4.6,0.9,6.4,2.6c1.7,1.7,2.6,3.9,2.6,6.4v65.9c0,2.5-0.9,4.6-2.6,6.4
				c-1.7,1.7-3.9,2.6-6.4,2.6H1718.3z M1730.2,142.9V88.6l-5.3,0v54.3H1730.2z"/>
		</g>
		<g>
			<path class="st5" d="M1718.3,155.2c-1.9,0-3.5-0.7-4.8-2c-1.3-1.3-1.9-2.9-1.9-4.9V82.6c0-1.9,0.6-3.5,1.9-4.9
				c1.3-1.3,2.9-2,4.8-2h18.3c1.9,0,3.5,0.7,4.9,2c1.3,1.3,2,2.9,2,4.9v65.9c0,1.9-0.7,3.5-2,4.9c-1.3,1.3-2.9,2-4.9,2H1718.3z
				 M1731,145c0.4,0,0.7-0.1,0.9-0.4c0.2-0.3,0.4-0.5,0.4-0.8V87.6c0-0.8-0.4-1.2-1.3-1.2h-6.9c-0.9,0-1.4,0.4-1.4,1.2v56.2
				c0,0.3,0.1,0.5,0.4,0.8c0.3,0.3,0.6,0.4,1,0.4H1731z"/>
		</g>
		<g>
			<path class="st2" d="M1774.5,157.4c-1.2,0-2.1-1-2.1-2.1v-22.8l-8.1-19.2v42c0,1.2-1,2.1-2.1,2.1h-10.7c-1.2,0-2.1-1-2.1-2.1
				V75.7c0-1.2,1-2.1,2.1-2.1h10.7c0.9,0,1.6,0.5,2,1.3l8.2,19.7V75.7c0-1.2,1-2.1,2.1-2.1h10.6c1.2,0,2.1,1,2.1,2.1v79.5
				c0,1.2-1,2.1-2.1,2.1H1774.5z"/>
		</g>
		<g>
			<path class="st5" d="M1762.1,75.7l12.3,29.5V75.7h10.6v79.5h-10.6V132l-12.3-29.4v52.7h-10.7V75.7H1762.1z"/>
		</g>
		<g>
			<path class="st2" d="M1819.3,157.4c-1.1,0-2-0.8-2.1-1.9l-1.3-10.2h-8.9l-1.2,10.2c-0.1,1.1-1,1.9-2.1,1.9H1793
				c-0.6,0-1.2-0.3-1.6-0.7c-0.4-0.5-0.6-1.1-0.5-1.7l9.5-79.5c0.1-1.1,1-1.9,2.1-1.9h18.1c1.1,0,2,0.8,2.1,1.9l9.5,79.5
				c0.1,0.6-0.1,1.2-0.5,1.7c-0.4,0.5-1,0.7-1.6,0.7H1819.3z M1814,129.3l-2.5-20.2l-2.4,20.2H1814z"/>
		</g>
		<g>
			<path class="st5" d="M1802.5,75.7h18.1l9.5,79.5h-10.7l-1.5-12.1h-12.6l-1.4,12.1H1793L1802.5,75.7z M1816.4,131.4l-5-39.9
				l-4.8,39.9H1816.4z"/>
		</g>
	</g>
	<g>
		<path class="st2" d="M1783.8,282.9c-0.2-0.4-0.5-0.8-0.8-1.1c0,0,0,0,0-0.1c0-0.1,0-0.2,0-0.2c0-0.1,0-0.2,0-0.2
			c0-0.2,0-0.4,0-0.6c0-0.2,0-0.3,0-0.5c0-0.2-0.1-0.4-0.1-0.6c0-0.1-0.1-0.3-0.1-0.4c0-0.2-0.1-0.4-0.2-0.6c0-0.1-0.1-0.3-0.1-0.4
			c-0.1-0.2-0.2-0.4-0.3-0.6c-0.1-0.1-0.1-0.3-0.2-0.4c-0.1-0.2-0.2-0.4-0.4-0.6c-0.1-0.1-0.1-0.2-0.2-0.3c-0.1-0.2-0.3-0.3-0.5-0.5
			c-0.1-0.1-0.2-0.2-0.3-0.3c0,0,0,0,0,0c0,0-0.1-0.1-0.1-0.1c-0.3-0.3-0.6-0.5-0.9-0.7c-0.1-0.1-0.2-0.2-0.4-0.2
			c-0.1-0.1-0.2-0.2-0.4-0.2l-99.7-52.3c-0.6-0.5-1.2-1-2-1.3l-2.6-1.1l-5.2-2.7c-1.1-0.6-2.3-0.9-3.5-0.9c-0.8,0-1.7,0.1-2.5,0.4
			l-5.4,1.9c-1.4,0.5-2.6,1.4-3.5,2.6c-0.3,0.3-0.7,0.5-1,0.9l-5.6,6.1c-1,1.1-1.7,2.5-1.9,3.9c-0.1,0.2-0.3,0.3-0.4,0.5l-3.4,6.4
			c-0.7,1.3-1,2.8-0.8,4.2c0,0,0,0.1-0.1,0.1l-2.6,6.1c-0.4,0.9-0.6,1.9-0.6,2.9c-0.3,0.5-0.6,1.1-0.8,1.6l-2.2,6.9
			c-0.3,0.9-0.4,1.8-0.3,2.6l-3.3,7.4c-0.5,1-0.6,2.1-0.6,3.2c0,0.1-0.1,0.1-0.1,0.2l-2.6,6.3c-0.5,1.2-0.6,2.5-0.5,3.7l-2.9,5.9
			c0,0.1,0,0.1-0.1,0.2l-2.7,1.4c-0.2,0-0.4-0.1-0.6-0.1l-7.7-0.6c-0.2,0-0.4,0-0.6,0c-0.2,0-0.4,0-0.7,0.1
			c-0.4-0.1-0.9-0.2-1.3-0.2l-7.2-0.3c-0.1,0-0.2,0-0.3,0c-0.2,0-0.3,0-0.5,0c-0.7-0.2-1.4-0.3-2.1-0.4c0,0-6.5-0.2-6.6-0.2
			c-0.1,0-0.2,0-0.3,0c-1-0.5-2.1-0.8-3.2-0.8c0,0-6.5-0.2-6.6-0.2c-0.6,0-1.1,0.1-1.7,0.2c-0.2,0-0.4,0-0.6,0
			c-0.8,0-1.7,0.1-2.5,0.4l-6.7,2.4c-1.8,0.6-3.3,2-4.1,3.6c-1.3,0.6-2.5,1.6-3.2,2.8l-4,6.4c-2,3.2-1.3,7.5,1.7,9.8l35.5,28.6
			c0,1.2-0.2,2.2-0.5,2.9c-0.1,0.2-0.2,0.4-0.9,0.6c-1.9,0.5-4,1-6.1,1.5c-10.5,2.4-24.9,5.8-24.2,18.2c0.1,2.1,1.1,4,2.7,5.4
			c1.4,1.1,3,1.7,4.8,1.7c0.3,0,0.7,0,1-0.1l51.8-7.2l30.1,24.2c0,0,0,0,0,0c0.3,0.2,0.6,0.5,1,0.7c0,0,0.1,0,0.1,0.1
			c0.3,0.2,0.7,0.3,1,0.5c0,0,0.1,0,0.1,0.1c0,0,0.1,0,0.1,0c0.7,1,1.5,2,2.4,2.9c2.6,2.6,6.1,4,9.8,4c3.7,0,7.4-1.4,10.5-3.9
			l7.3,5.3c-0.3,4.5,1.1,8,2.7,11c0.1,0.6,0.1,2.2-0.1,3.2c-0.1,0.3-0.1,0.5-0.1,0.8c-0.5,5.5-10.7,7.7-13.6,8
			c-5.6,0.2-22.4,1.9-23.4,13.8c-0.3,3.4,0.7,6.6,2.9,9c1.7,1.8,4.9,4.1,10.6,4.1c2.2,0,3.9-0.3,4.2-0.4l44.1-8.1
			c49.1-6,52.2-11.8,53.8-14.9c1.3-2.5,1.4-5.4,0.1-7.9c-1.5-3-5.4-8-14.8-8c-2.6,0-4.7,0.4-5.8,0.6l-21.8,2.3l-0.2-0.1
			c-0.5-1.2-1-3.1,0.1-5.2c4.9-9.8,1.2-19.4-0.3-22.4c-0.1-0.3-0.1-0.6-0.2-1c10-2.6,18.4-16.8,20.8-21.2c0.2-0.4,0.4-0.9,0.6-1.3
			l6.7-21.5l0.4-1.1l0.5-1.2c0.3-0.7,0.5-1.4,0.6-2.1l1.5-4.3l2.4-6.3c0.2-0.5,0.3-1.1,0.4-1.6l2.2-6.2l1.5-3.6
			c0.3-0.6,0.4-1.3,0.5-1.9l1.6-4.5c0.5,0,0.9,0,1.4,0c0.6,0,1.1,0,1.8-0.1c8.4-0.6,13.4-6.7,14.5-12.2
			C1786,293.9,1786.9,288.2,1783.8,282.9z"/>
	</g>
	<g>
		<g>
			<path class="st4" d="M1605.5,335.7c0,0,4.6,15.2-5.9,18.1c-10.6,2.9-25.2,4.5-24.8,12l57.3-8L1605.5,335.7z"/>
		</g>
		<g>
			<path class="st2" d="M1610.6,346.3c0.4,1.3,0.4,2.7-0.1,4.1c-0.4,1.3-1.3,2.5-2.3,3.5c-1,1-2.3,1.6-3.5,2.2
				c-0.6,0.2-1.3,0.4-2,0.6c-0.7,0.1-1.3,0.2-2,0.3c0.6-0.3,1.2-0.5,1.8-0.8l1.8-0.9c1.1-0.7,2.2-1.3,3.1-2.2
				C1609.3,351.4,1610.5,349,1610.6,346.3z"/>
		</g>
		<g>
			<path class="st2" d="M1597,357.6c-3.2,0.8-6.5,1.4-9.7,2.1c-1.6,0.4-3.2,0.8-4.7,1.3c-0.8,0.3-1.5,0.6-2.2,0.9
				c-0.7,0.4-1.4,0.8-1.8,1.6c0.2-0.8,0.8-1.5,1.5-2c0.7-0.5,1.4-0.9,2.2-1.3c1.5-0.7,3.2-1.2,4.8-1.6
				C1590.3,357.9,1593.6,357.5,1597,357.6z"/>
		</g>
		<g>
			<polygon class="st31" points="1680.6,383.7 1698.8,397 1707.5,384.1 1702.3,374.5 1686.4,372.2 1681.6,373.9 1679.5,376.3 			"/>
		</g>
		<g>
			<path class="st3" d="M1681.7,378.3c0,0,1.3,5.2-2.3,9.2c-3.6,4-8.7,4.6-11.6,1.7s-4.9-7.3,0.7-12.9s12.7-5.3,12.7-5.3l15.7-0.6
				c0,0,30.6,6.6,35.2-4.4c4.6-11,21.9-61.8,21.9-61.8l6.6-18.5c0,0,2.4-4.9,11.2-2.7c8.7,2.1,6.4,11,6.4,11s-1,5.9-7.6,6.3
				c-6.6,0.4-7.2-2.4-7.2-2.4l-14.5,40.5l-6.7,21.6c0,0-8.9,16.5-16.6,17.6c-7.7,1.1-4.4,10.9-4.4,10.9s4.6,8.3,0.6,16.3
				c-4,8,1.6,14.6,1.6,14.6l4.1,1.7l24.2-2.6c0,0,9.7-2.4,12.6,3.3c2.9,5.7-48.4,12-48.4,12l-44.4,8.2c0,0-9.3,1.9-8.7-4.6
				c0.6-6.4,16.5-7,16.5-7s19.5-1.7,20.6-14.9c0,0,1-5.2-0.6-8c-1.6-2.9-4-7.3,1.6-16.7S1693.3,371.3,1681.7,378.3z"/>
		</g>
		<g>
			<path class="st3" d="M1768,279.9l-8.9,5.9l-6.2,11.6l-22.1,59.8c0,0-3.6,7.1-7.5,9.2s-42.7-1.1-42.7-1.1s-16.4,3.2-22.2,12.2
				l-2.3-3.2c0,0,6.2-10.1,22.2-11s37.5,0.8,37.5,0.8s6.2-0.2,10.5-8.7c4.4-8.6,25.7-70,25.7-70l10.2-7.8L1768,279.9z"/>
		</g>
		<g>
			<path class="st3" d="M1720.7,253.7l-8.9,5.9l-6.2,11.6l-22.1,59.8c0,0-3.6,7.1-7.5,9.2c-3.9,2.1-42.5,0.2-42.5,0.2
				s-8.9-0.3-16.5,6.2l-3.8-2.9c0,0,1.8-5.6,17.9-6.5s37.5,0.8,37.5,0.8s6.2-0.2,10.5-8.7s25.7-70,25.7-70l10.2-7.8L1720.7,253.7z"
				/>
		</g>
		<g>
			<path class="st3" d="M1674.4,227.6l-8.9,5.9l-6.2,11.6l-22.1,59.8c0,0-3.6,7.1-7.5,9.2c-3.9,2.1-42.5,0.2-42.5,0.2
				s-4.4,0.8-8.3,1.7l-3.8-2.9c0,0-6.5-1.1,9.6-2s37.5,0.8,37.5,0.8s6.2-0.2,10.5-8.7c4.4-8.6,25.7-70,25.7-70l10.2-7.8
				L1674.4,227.6z"/>
		</g>
		<g>
			<polygon class="st5" points="1768.9,283.1 1775.6,280.9 1666.1,223.5 1660.6,225.4 			"/>
		</g>
		<g>
			<polygon class="st5" points="1768.1,285.7 1761.7,292.1 1653.6,232.9 1659.2,226.8 			"/>
		</g>
		<g>
			<polygon class="st5" points="1761.3,295.9 1757.8,303.7 1649.1,242.2 1652.5,235.8 			"/>
		</g>
		<g>
			<polygon class="st5" points="1568.2,308.7 1572.2,302.3 1667.2,376 1662.4,384.5 			"/>
		</g>
		<g>
			<polygon class="st5" points="1575.8,298.9 1582.5,296.5 1677.9,369.1 1669.9,372.9 			"/>
		</g>
		<g>
			<polygon class="st5" points="1584.7,296.4 1591.1,296.5 1689.7,368 1680.8,369 			"/>
		</g>
		<g>
			<polygon class="st5" points="1594.8,297.3 1601.2,297.5 1700.6,369.4 1691.7,368.2 			"/>
		</g>
		<g>
			<polygon class="st5" points="1603.9,297.8 1611.1,298.1 1710.5,369.8 1702.5,369.4 			"/>
		</g>
		<g>
			<polygon class="st5" points="1613.4,298.3 1621.1,298.9 1721.2,369.9 1713.1,370.1 			"/>
		</g>
		<g>
			<polygon class="st5" points="1624.2,299 1629.7,296.1 1731.9,367.6 1724.2,370.6 			"/>
		</g>
		<g>
			<polygon class="st5" points="1631.8,293.2 1634.8,287.3 1738.9,356.9 1735.7,363.5 			"/>
		</g>
		<g>
			<polygon class="st5" points="1635.5,283.2 1638.1,276.9 1743.6,345.2 1740,352.4 			"/>
		</g>
		<g>
			<polygon class="st5" points="1642.1,266 1638.7,273.7 1745,340.5 1748.1,333.7 			"/>
		</g>
		<g>
			<polygon class="st5" points="1648.5,245.9 1645.9,252.1 1753.4,316.8 1756.5,309.6 			"/>
		</g>
		<g>
			<polygon class="st5" points="1644.8,256 1642.6,262.9 1748.5,329.4 1752.3,321 			"/>
		</g>
		<g>
			<ellipse class="st4" cx="1711.1" cy="399.4" rx="10.7" ry="11"/>
		</g>
		<g>
			
				<ellipse transform="matrix(0.3693 -0.9293 0.9293 0.3693 700.7106 1796.1123)" class="st4" cx="1673.6" cy="381.8" rx="6.7" ry="5.9"/>
		</g>
		<g>
			<path class="st2" d="M1706.4,412.7c0.2,3.8-1.1,7.7-3.2,10.9c-2.1,3.3-5.2,5.8-8.5,7.8c-1.6,1-3.5,1.7-5.2,2.5
				c-0.9,0.4-1.8,0.6-2.7,0.9c-0.9,0.3-1.8,0.6-2.8,0.8c-1.9,0.4-3.8,0.8-5.6,1.1c-1.9,0.2-3.8,0.4-5.7,0.5c1.9-0.4,3.7-0.7,5.6-1
				c1.9-0.4,3.7-0.9,5.5-1.4c1.8-0.6,3.6-1.1,5.3-1.9c1.7-0.8,3.5-1.5,5-2.5c3.3-1.8,6.2-4.3,8.4-7.3c1.1-1.5,2-3.1,2.7-4.9
				C1705.8,416.4,1706.3,414.6,1706.4,412.7z"/>
		</g>
		<g>
			<path class="st2" d="M1682.2,376.3c2.3-1.2,4.8-1.9,7.3-2.4c2.5-0.4,5.2-0.5,7.8,0.3c1.3,0.4,2.5,1.1,3.5,2c1,0.9,1.8,2,2.4,3.2
				c1.1,2.4,1.3,5.1,1.1,7.6c-0.3-2.5-0.8-5-1.9-7.2c-1.2-2.1-3.1-3.8-5.4-4.5c-2.3-0.8-4.8-0.8-7.3-0.6
				C1687.1,375,1684.6,375.5,1682.2,376.3z"/>
		</g>
		<g>
			<path class="st2" d="M1720.3,418.6c0.5,2.7,2.6,4.8,5,5.9c2.4,1.1,5.1,1.5,7.7,1.7c2.7,0.1,5.4,0,8.1-0.3
				c2.7-0.3,5.4-0.8,8.1-1.1c-1.3,0.4-2.6,0.8-3.9,1.1c-1.3,0.4-2.7,0.6-4,0.8c-2.7,0.5-5.5,0.7-8.3,0.6c-2.8-0.2-5.6-0.7-8.1-2.1
				l-0.9-0.5c-0.3-0.2-0.6-0.4-0.8-0.7c-0.6-0.4-1-1-1.5-1.5C1720.9,421.4,1720.3,420,1720.3,418.6z"/>
		</g>
		<g>
			<polygon class="st4" points="1669.9,372.9 1671.1,376.1 1678.7,372.6 1677.9,369.1 			"/>
		</g>
		<g>
			<polyline class="st4" points="1667.2,376 1669.4,378.7 1666.1,384.7 1662.4,384.5 			"/>
		</g>
		<g>
			<polygon class="st4" points="1680.8,369 1680.8,371.9 1689.4,371.2 1689.7,368 			"/>
		</g>
		<g>
			<polygon class="st4" points="1702.5,369.4 1702.1,373.3 1710.1,374.1 1710.5,369.8 			"/>
		</g>
		<g>
			<polygon class="st4" points="1691.1,371.5 1700.1,372.6 1700.6,369.4 1691.7,368.2 			"/>
		</g>
		<g>
			<polygon class="st4" points="1713.1,370.1 1712.6,373.9 1720.6,374.1 1721.2,369.9 			"/>
		</g>
		<g>
			<polygon class="st4" points="1724.2,370.6 1726,373.6 1731.9,371.1 1731.9,367.6 			"/>
		</g>
		<g>
			<polygon class="st4" points="1735.7,363.5 1738.8,363.7 1741,358.9 1738.9,356.9 			"/>
		</g>
		<g>
			<polygon class="st4" points="1740,352.4 1742.9,353 1745.6,347.3 1743.6,345.2 			"/>
		</g>
		<g>
			<polygon class="st4" points="1745,340.5 1747.7,340.9 1750.4,335.3 1748.1,333.7 			"/>
		</g>
		<g>
			<polygon class="st4" points="1748.5,329.4 1752.2,329.7 1754.7,323.1 1752.3,321 			"/>
		</g>
		<g>
			<polygon class="st4" points="1753.4,316.8 1756.5,317.4 1758.9,311.4 1756.5,309.6 			"/>
		</g>
		<g>
			<polygon class="st4" points="1761.3,295.9 1763.5,297.5 1760.8,303.8 1757.8,303.7 			"/>
		</g>
		<g>
			<polygon class="st4" points="1761.7,292.1 1764.2,293.5 1768.9,288.3 1768.1,285.7 			"/>
		</g>
		<g>
			<polygon class="st4" points="1768.9,283.1 1768.7,285.1 1774.9,283.2 1775.6,280.9 			"/>
		</g>
	</g>
</g>
<g>
	<g id="XMLID_1811_">
		<g id="XMLID_1820_">
			<path class="st1" d="M137.1,266.4H54c-4.7,0-8.5-3.8-8.5-8.5v-83.1c0-4.7,3.8-8.5,8.5-8.5h83.1c4.7,0,8.5,3.8,8.5,8.5v83.1
				C145.5,262.6,141.8,266.4,137.1,266.4z"/>
		</g>
		<g id="XMLID_1812_">
			<g id="XMLID_1817_">
				<path class="st2" d="M95.5,193.9c7.3,0,8.2,0,11.1,0.2c2.7,0.1,4.1,0.6,5.1,0.9c1.3,0.5,2.2,1.1,3.2,2.1c1,1,1.6,1.9,2.1,3.2
					c0.4,1,0.8,2.4,0.9,5.1c0.1,2.9,0.2,3.8,0.2,11.1c0,7.3,0,8.2-0.2,11.1c-0.1,2.7-0.6,4.1-0.9,5.1c-0.5,1.3-1.1,2.2-2.1,3.2
					c-1,1-1.9,1.6-3.2,2.1c-1,0.4-2.4,0.8-5.1,0.9c-2.9,0.1-3.8,0.2-11.1,0.2s-8.2,0-11.1-0.2c-2.7-0.1-4.1-0.6-5.1-0.9
					c-1.3-0.5-2.2-1.1-3.2-2.1c-1-1-1.6-1.9-2.1-3.2c-0.4-1-0.8-2.4-0.9-5.1c-0.1-2.9-0.2-3.8-0.2-11.1c0-7.3,0-8.2,0.2-11.1
					c0.1-2.7,0.6-4.1,0.9-5.1c0.5-1.3,1.1-2.2,2.1-3.2c1-1,1.9-1.6,3.2-2.1c1-0.4,2.4-0.8,5.1-0.9C87.3,193.9,88.2,193.9,95.5,193.9
					 M95.5,188.9c-7.4,0-8.4,0-11.3,0.2c-2.9,0.1-4.9,0.6-6.7,1.3c-1.8,0.7-3.3,1.6-4.9,3.2c-1.5,1.5-2.5,3.1-3.2,4.9
					c-0.7,1.7-1.1,3.7-1.3,6.7c-0.1,2.9-0.2,3.9-0.2,11.3c0,7.4,0,8.4,0.2,11.3c0.1,2.9,0.6,4.9,1.3,6.7c0.7,1.8,1.6,3.3,3.2,4.9
					c1.5,1.5,3.1,2.5,4.9,3.2c1.7,0.7,3.7,1.1,6.7,1.3c2.9,0.1,3.9,0.2,11.3,0.2c7.4,0,8.4,0,11.3-0.2c2.9-0.1,4.9-0.6,6.7-1.3
					c1.8-0.7,3.3-1.6,4.9-3.2c1.5-1.5,2.5-3.1,3.2-4.9c0.7-1.7,1.1-3.7,1.3-6.7c0.1-2.9,0.2-3.9,0.2-11.3c0-7.4,0-8.4-0.2-11.3
					c-0.1-2.9-0.6-4.9-1.3-6.7c-0.7-1.8-1.6-3.3-3.2-4.9c-1.5-1.5-3.1-2.5-4.9-3.2c-1.7-0.7-3.7-1.1-6.7-1.3
					C103.9,189,103,188.9,95.5,188.9"/>
			</g>
			<g id="XMLID_1814_">
				<path class="st2" d="M95.5,202.3c-7.8,0-14.1,6.3-14.1,14.1s6.3,14.1,14.1,14.1c7.8,0,14.1-6.3,14.1-14.1
					S103.3,202.3,95.5,202.3 M95.5,225.5c-5,0-9.1-4.1-9.1-9.1c0-5,4.1-9.1,9.1-9.1s9.1,4.1,9.1,9.1
					C104.7,221.4,100.6,225.5,95.5,225.5"/>
			</g>
			<g id="XMLID_1813_">
				<path class="st2" d="M113.5,201.7c0,1.8-1.5,3.3-3.3,3.3c-1.8,0-3.3-1.5-3.3-3.3c0-1.8,1.5-3.3,3.3-3.3
					C112,198.4,113.5,199.9,113.5,201.7"/>
			</g>
		</g>
	</g>
	<g id="XMLID_500_">
		<g id="XMLID_505_">
			<path class="st1" d="M137.1,146H54c-4.7,0-8.5-3.8-8.5-8.5V54.4c0-4.7,3.8-8.5,8.5-8.5h83.1c4.7,0,8.5,3.8,8.5,8.5v83.1
				C145.5,142.2,141.8,146,137.1,146z"/>
		</g>
		<g id="XMLID_501_">
			<g id="XMLID_503_">
				<path class="st2" d="M133.9,76.6c-0.9-3.5-3.6-6.2-7.1-7.1c-6.2-1.7-31.3-1.7-31.3-1.7s-25,0-31.3,1.7c-3.4,0.9-6.2,3.7-7.1,7.1
					C55.5,82.9,55.5,96,55.5,96s0,13.1,1.7,19.4c0.9,3.5,3.6,6.2,7.1,7.1c6.2,1.7,31.3,1.7,31.3,1.7s25,0,31.3-1.7
					c3.4-0.9,6.2-3.7,7.1-7.1c1.7-6.3,1.7-19.4,1.7-19.4S135.6,82.9,133.9,76.6z"/>
			</g>
			<g id="XMLID_502_">
				<polygon class="st1" points="87.3,107.9 87.3,84.1 108.3,96 				"/>
			</g>
		</g>
	</g>
</g>
</svg>
